<svg xmlns="http://www.w3.org/2000/svg" width="175" height="145.965" viewBox="0 0 175 145.965">
  <g id="Grupo_992577" data-name="Grupo 992577" transform="translate(-300 -3316.035)">
    <g id="Grupo_992576" data-name="Grupo 992576" transform="translate(-96.959 3285.664)">
      <g id="Trazado_706404" data-name="Trazado 706404" transform="translate(0 -0.161)" fill="#ffb400" stroke-linecap="round" stroke-miterlimit="10">
        <path d="M 462.0368041992188 135.0110168457031 C 455.8623962402344 135.0110168457031 450.8081665039062 135.0080718994141 446.1308288574219 135.0017242431641 C 441.9949340820312 134.9961090087891 438.4010009765625 134.0449829101562 435.4488220214844 132.1748046875 C 432.4154968261719 130.2532196044922 430.0567016601562 127.3625564575195 428.43798828125 123.583122253418 C 427.2534484863281 120.8180084228516 426.7771301269531 117.9937744140625 427.0223999023438 115.1890258789062 C 427.25927734375 112.4798736572266 428.1714782714844 109.7780380249023 429.7336120605469 107.1585388183594 C 432.6700134277344 102.2336883544922 435.6055603027344 97.30813598632812 438.5411071777344 92.38260650634766 C 448.4295349121094 75.790771484375 458.6546325683594 58.63405609130859 468.7500915527344 41.78185653686523 C 470.5059204101562 38.85055541992188 472.9319152832031 36.45662307739258 475.7657775878906 34.85892105102539 C 478.4663696289062 33.33638763427734 481.5279846191406 32.53162384033203 484.6196594238281 32.53162384033203 C 487.716064453125 32.53162384033203 490.783203125 33.33815765380859 493.4895324707031 34.86404037475586 C 496.3290100097656 36.46500778198242 498.7611694335938 38.86382293701172 500.5229797363281 41.80113983154297 C 508.5665893554688 55.21099090576172 516.7083129882812 68.86577606201172 524.58203125 82.07099151611328 C 527.9451904296875 87.71142578125 531.4228515625 93.54389190673828 534.8458862304688 99.27845764160156 C 535.2644653320312 99.97997283935547 535.681396484375 100.6821060180664 536.0982666015625 101.3841857910156 C 537.1077880859375 103.0842742919922 538.151611328125 104.8422393798828 539.1978149414062 106.5519714355469 C 541.1068725585938 109.6730575561523 542.1433715820312 112.8520889282227 542.2786865234375 116.0010223388672 C 542.4191284179688 119.2704391479492 541.5914916992188 122.5242691040039 539.8187255859375 125.6721420288086 C 538.0488891601562 128.8147888183594 535.6844482421875 131.2022094726562 532.7911376953125 132.7680511474609 C 530.041748046875 134.2559967041016 526.7925415039062 135.0104370117188 523.1336669921875 135.0104370117188 L 523.1038818359375 135.0104217529297 C 518.5025024414062 135.0055084228516 513.5487670898438 135.0032043457031 507.51416015625 135.0032043457031 C 503.6838684082031 135.0032043457031 499.8539733886719 135.0041046142578 496.0240478515625 135.0050048828125 C 492.1937561035156 135.0059051513672 488.3634338378906 135.0068054199219 484.5326843261719 135.0068054199219 C 480.7835998535156 135.0068054199219 477.0341796875 135.0078582763672 473.2847290039062 135.0089111328125 C 469.5353393554688 135.0099792480469 465.7859191894531 135.0110168457031 462.0368041992188 135.0110168457031 Z" stroke="none"/>
        <path d="M 462.0298767089844 133.0110168457031 C 469.5304870605469 133.0110168457031 477.0321960449219 133.0068054199219 484.5326843261719 133.0068054199219 C 497.3907470703125 133.0068054199219 510.2481384277344 132.9966888427734 523.1060791015625 133.0104217529297 C 523.1152954101562 133.0104370117188 523.1244506835938 133.0104370117188 523.1336669921875 133.0104370117188 C 529.66748046875 133.0104370117188 534.8342895507812 130.4471893310547 538.0760498046875 124.6907348632812 C 541.3115234375 118.945686340332 540.9138793945312 113.1904907226562 537.4918212890625 107.5958251953125 C 536.0133056640625 105.1795196533203 534.580322265625 102.7364730834961 533.1285400390625 100.3035430908203 C 521.69189453125 81.14373016357422 510.2856750488281 61.96511459350586 498.807861328125 42.82989883422852 C 492.1770935058594 31.77509880065918 477.0828247070312 31.76272583007812 470.4657897949219 42.80966186523438 C 457.4248046875 64.57880401611328 444.4474792480469 86.38627624511719 431.4513549804688 108.1829223632812 C 428.6655883789062 112.8542785644531 428.1312561035156 117.7881393432617 430.2764587402344 122.7957077026367 C 433.2349853515625 129.7033538818359 438.6792907714844 132.9916076660156 446.133544921875 133.0017395019531 C 451.4328308105469 133.0089111328125 456.7307739257812 133.0110168457031 462.0298767089844 133.0110168457031 M 462.0298767089844 137.0110168457031 C 455.8517456054688 137.0110168457031 450.7988586425781 137.0080718994141 446.1281127929688 137.0017395019531 C 441.6082458496094 136.9955902099609 437.6551208496094 135.9400177001953 434.3785095214844 133.8643341064453 C 430.9975280761719 131.7224884033203 428.3802795410156 128.5283050537109 426.5995178222656 124.3705444335938 C 425.2838134765625 121.2993011474609 424.7557067871094 118.1514663696289 425.0299987792969 115.0148010253906 C 425.2933654785156 112.0027084350586 426.2979736328125 109.0148239135742 428.0158386230469 106.134162902832 C 430.9516296386719 101.2103729248047 433.8866271972656 96.28575897216797 436.8215942382812 91.36116027832031 C 446.7110900878906 74.76756286621094 456.9372863769531 57.60901641845703 467.0343627929688 40.75406646728516 C 468.9682006835938 37.52558898925781 471.6478881835938 34.88459014892578 474.7835693359375 33.11673355102539 C 477.7832641601562 31.42554092407227 481.1845397949219 30.53161239624023 484.6196594238281 30.53161239624023 C 488.0594787597656 30.53161239624023 491.46630859375 31.42730331420898 494.4717712402344 33.12187576293945 C 497.6127319335938 34.89280319213867 500.2982788085938 37.53832626342773 502.2380981445312 40.77239990234375 C 510.283447265625 54.18513870239258 518.4263305664062 67.84175872802734 526.3010864257812 81.04875946044922 C 529.6636962890625 86.68832397460938 533.1408081054688 92.5198974609375 536.5631713867188 98.25337219238281 C 536.9827270507812 98.95644378662109 537.4004516601562 99.65989685058594 537.818115234375 100.3633041381836 C 538.82421875 102.0576858520508 539.8645629882812 103.8097763061523 540.9037475585938 105.5080871582031 C 545.1839599609375 112.505729675293 545.4112548828125 119.8175430297852 541.5613403320312 126.653564453125 C 539.603515625 130.1300354003906 536.9730834960938 132.7791137695312 533.7432250976562 134.5271148681641 C 530.6984252929688 136.1749420166016 527.1288452148438 137.0104522705078 523.1336059570312 137.0104522705078 L 523.1060791015625 137.0104217529297 C 518.4911499023438 137.0054931640625 513.5364990234375 137.0032043457031 507.5091247558594 137.0032043457031 C 499.8497314453125 137.0032043457031 492.1922607421875 137.0068054199219 484.5326843261719 137.0068054199219 C 480.7828369140625 137.0068054199219 477.0326538085938 137.0078582763672 473.2825012207031 137.0088958740234 C 469.5315551757812 137.0099639892578 465.7805786132812 137.0110168457031 462.0298767089844 137.0110168457031 Z" stroke="none" fill="#171715"/>
      </g>
      <path id="Trazado_706405" data-name="Trazado 706405" d="M503.512,132.846V34.371s7.7-3.057,15.326,7.334,40.053,68.229,40.053,68.229,6.276,21.967-15.134,22.916C524.57,133.7,503.512,132.846,503.512,132.846Z" transform="translate(-20.65 0)" fill="#e89c00" opacity="0.28"/>
      <path id="Trazado_706406" data-name="Trazado 706406" d="M515.379,84.248c0,4.9.051,9.81-.017,14.714-.053,3.825-2.714,6.671-6.919,7.6-3.34.74-7.478-.9-9.111-3.84a8.664,8.664,0,0,1-1.108-3.989c-.093-9.61-.07-19.222-.041-28.833a8.608,8.608,0,0,1,17.188.027C515.407,74.7,515.38,79.475,515.379,84.248Z" transform="translate(-19.167 -7.715)" fill="#eca91c" style="isolation: isolate"/>
      <path id="Trazado_706407" data-name="Trazado 706407" d="M516.22,139.259a12.713,12.713,0,1,1-12.5-12.9A12.767,12.767,0,0,1,516.22,139.259Z" transform="translate(-17.128 -25.597)" fill="#eca91c" style="isolation: isolate"/>
      <g id="Trazado_706408" data-name="Trazado 706408" transform="translate(-18.799 -8.778)" fill="#a00011" stroke-miterlimit="10">
        <path d="M 503.4252014160156 106.3673400878906 C 502.0443725585938 106.3673400878906 500.5980224609375 105.9555892944336 499.3525695800781 105.2079238891602 C 498.0395202636719 104.419677734375 497.0113525390625 103.3166198730469 496.3792114257812 102.0179977416992 C 495.7462158203125 100.7180786132812 495.3915405273438 99.25254058837891 495.380615234375 97.89151763916016 C 495.3114318847656 89.70133972167969 495.3255920410156 81.64174652099609 495.3494873046875 72.71028900146484 C 495.362548828125 67.90671539306641 498.9066772460938 64.14396667480469 503.4180908203125 64.14396667480469 L 503.4402465820312 64.14399719238281 C 505.6427001953125 64.15048980712891 507.6842956542969 65.046875 509.1892700195312 66.66803741455078 C 510.667236328125 68.26012420654297 511.4889831542969 70.412109375 511.5031433105469 72.72756958007812 C 511.5217895507812 75.62702941894531 511.5172729492188 78.57276916503906 511.5128784179688 81.42151641845703 C 511.5109252929688 82.692138671875 511.5089721679688 83.96273040771484 511.5089721679688 85.23325347900391 C 511.5087585449219 86.53736877441406 511.5122985839844 87.86421966552734 511.5157470703125 89.14738464355469 C 511.5235595703125 92.07814025878906 511.5316467285156 95.10866546630859 511.4957885742188 98.0941162109375 C 511.4474487304688 102.0836639404297 508.98486328125 105.1769104003906 505.069091796875 106.1668853759766 C 504.5431823730469 106.2998886108398 503.9900817871094 106.3673400878906 503.4252014160156 106.3673400878906 Z" stroke="none"/>
        <path d="M 503.4180603027344 65.64395904541016 C 499.7573852539062 65.64395904541016 496.8603210449219 68.72193908691406 496.8494873046875 72.71430969238281 C 496.8270263671875 81.10268402099609 496.8096923828125 89.49181365966797 496.8805541992188 97.87944793701172 C 496.8899536132812 99.04856109619141 497.214599609375 100.3073272705078 497.7279052734375 101.3614730834961 C 498.97802734375 103.9296112060547 502.1454467773438 105.3590545654297 504.701416015625 104.712646484375 C 507.9187622070312 103.8992462158203 509.9554443359375 101.4149780273438 509.9959106445312 98.07611083984375 C 510.0473022460938 93.79589080810547 510.00830078125 89.51419830322266 510.0089721679688 85.23326110839844 C 510.0089721679688 81.06798553466797 510.0299682617188 76.90198516845703 510.003173828125 72.73674011230469 C 509.9786376953125 68.72112274169922 507.1148071289062 65.65482330322266 503.4360961914062 65.64398956298828 C 503.4300537109375 65.64396667480469 503.4241027832031 65.64395904541016 503.4180603027344 65.64395904541016 M 503.4180603027344 62.64395904541016 L 503.4419860839844 62.64398956298828 C 506.0672912597656 62.65172576904297 508.4977722167969 63.7183837890625 510.2886047363281 65.64751434326172 C 512.0226440429688 67.51542663574219 512.9866943359375 70.02658843994141 513.0031127929688 72.71841430664062 C 513.0218505859375 75.62329864501953 513.0172729492188 78.572021484375 513.0128784179688 81.42366027832031 C 513.0109252929688 82.69356536865234 513.0089721679688 83.96344757080078 513.0089721679688 85.23326110839844 C 513.0087890625 86.53537750244141 513.0123291015625 87.86102294921875 513.0157470703125 89.14302825927734 C 513.0235595703125 92.07929992675781 513.0316772460938 95.11554718017578 512.9957275390625 98.11212158203125 C 512.9677124023438 100.4200592041016 512.2355346679688 102.5323257446289 510.8782653808594 104.2209091186523 C 509.5422058105469 105.8831405639648 507.6605224609375 107.0589294433594 505.4367370605469 107.6211395263672 C 504.7908020019531 107.7844848632812 504.1139526367188 107.8673400878906 503.4252014160156 107.8673400878906 C 499.916015625 107.8673400878906 496.5424499511719 105.7805023193359 495.030517578125 102.6745147705078 C 494.3017578125 101.1779403686523 493.8933715820312 99.48343658447266 493.8806762695312 97.90353393554688 C 493.8114013671875 89.70569610595703 493.8255615234375 81.64193725585938 493.8494873046875 72.70627593994141 C 493.8568115234375 70.02066040039062 494.8234252929688 67.50967407226562 496.5712585449219 65.63574981689453 C 498.3707580566406 63.70645904541016 500.8023376464844 62.64395904541016 503.4180603027344 62.64395904541016 Z" stroke="none" fill="#171715"/>
      </g>
      <g id="Trazado_706409" data-name="Trazado 706409" transform="translate(-17.599 -26.309)" fill="#a00011" stroke-miterlimit="10">
        <path d="M 502.1453857421875 149.9492034912109 C 502.1141052246094 149.9492034912109 502.0832824707031 149.9490814208984 502.0519714355469 149.9488372802734 C 495.9328002929688 149.8995666503906 490.9736328125 144.8046875 490.9969787597656 138.5914916992188 C 491.0086059570312 135.5729522705078 492.1826477050781 132.7592010498047 494.3028869628906 130.6684112548828 C 496.4177856445312 128.5829010009766 499.2537536621094 127.4343490600586 502.288330078125 127.4343490600586 C 502.3262329101562 127.4343490600586 502.3639831542969 127.4345245361328 502.4019470214844 127.4348831176758 C 505.39501953125 127.4635620117188 508.1866149902344 128.6520690917969 510.2626953125 130.7814331054688 C 512.3343505859375 132.90625 513.4678955078125 135.7376861572266 513.45458984375 138.754150390625 C 513.44140625 141.7647399902344 512.260498046875 144.5827484130859 510.1294250488281 146.6890411376953 C 508.0023803710938 148.7913970947266 505.1669006347656 149.9492034912109 502.1453857421875 149.9492034912109 Z" stroke="none"/>
        <path d="M 502.1453857421875 148.4492034912109 C 507.5690612792969 148.4492034912109 511.930908203125 144.1444091796875 511.9546203613281 138.7475280761719 C 511.978515625 133.3292694091797 507.7438354492188 128.9861450195312 502.3877563476562 128.934814453125 C 496.886962890625 128.8820343017578 492.5179138183594 133.1528625488281 492.4969787597656 138.5971374511719 C 492.4767150878906 143.9879150390625 496.76708984375 148.4062347412109 502.0638732910156 148.4488830566406 C 502.0912170410156 148.4490966796875 502.1181030273438 148.4492034912109 502.1453857421875 148.4492034912109 M 502.1453857421875 151.4492034912109 C 502.1100158691406 151.4492034912109 502.0751647949219 151.4490814208984 502.0397338867188 151.4487915039062 C 495.0971984863281 151.3928833007812 489.4705505371094 145.6226043701172 489.4970092773438 138.5858612060547 C 489.5101623535156 135.1647338867188 490.8428649902344 131.9737091064453 493.2496643066406 129.6003723144531 C 495.6470642089844 127.2362976074219 498.8570556640625 125.9343490600586 502.288330078125 125.9343490600586 C 502.330810546875 125.9343490600586 502.3731689453125 125.9345474243164 502.4157409667969 125.934944152832 C 505.8117980957031 125.9674987792969 508.9797058105469 127.3167953491211 511.3367004394531 129.7342987060547 C 513.684814453125 132.1426544189453 514.9696655273438 135.3483123779297 514.95458984375 138.7607574462891 C 514.9395751953125 142.1728057861328 513.6004638671875 145.3673553466797 511.1838684082031 147.7558746337891 C 508.7742004394531 150.1375579833984 505.5642700195312 151.4492034912109 502.1453857421875 151.4492034912109 Z" stroke="none" fill="#171715"/>
      </g>
    </g>
    <text id="_Importante_" data-name="¡Importante!" transform="translate(300 3428)" fill="#12263f" font-size="20" font-family="Roboto-Black, Roboto" font-weight="800"><tspan x="31.572" y="19">¡Importante!</tspan></text>
  </g>
</svg>
