<svg xmlns="http://www.w3.org/2000/svg" width="181" height="181" viewBox="0 0 181 181">
  <g id="Grupo_992571" data-name="Grupo 992571" transform="translate(-1020 -1453)">
    <circle id="Elipse_5684" data-name="Elipse 5684" cx="90.5" cy="90.5" r="90.5" transform="translate(1020 1453)" fill="#abffff"/>
    <g id="Grupo_992570" data-name="Grupo 992570" transform="translate(823.224 1441.626)">
      <path id="Trazado_706396" data-name="Trazado 706396" d="M325.514,56.621A30.406,30.406,0,0,0,316.7,71.11a90.168,90.168,0,0,0-2.678,15.722c-.625,7.632-.51,15.321-.99,22.968-.349,5.57-1.956,10.773-5.881,15.041a2.767,2.767,0,0,0-.452,2.3,163.031,163.031,0,0,1,6.231,29.376c.229,1.79.429,3.59.507,5.391.151,3.512-3.423,6.112-6.507,4.485a8.061,8.061,0,0,0-8.188.13,9.094,9.094,0,0,1-8.94-.287,6.676,6.676,0,0,0-6.975-.039,9.815,9.815,0,0,1-9.94-.072,6.16,6.16,0,0,0-6.379-.082,10.167,10.167,0,0,1-10.341.065,6.361,6.361,0,0,0-6.58.046,10.071,10.071,0,0,1-10.148-.055,6.087,6.087,0,0,0-6.379-.022,4.569,4.569,0,0,1-5.286-.032c-1.74-1.2-2.141-2.97-1.96-4.973,1.339-14.817,4.3-29.292,10.092-43.019,2.876-6.822,6.663-13.261,10.022-19.88a4.032,4.032,0,0,0,.636-1.769c-.229-5.912.07-11.932-1.01-17.692-.813-4.328-3.112-8.5-5.327-12.406-1.935-3.418-2.2-6.276-.544-9.94a29.1,29.1,0,0,0,2.024-9.863,9.448,9.448,0,0,1,3.19-7.035,5.448,5.448,0,0,0,2.243-4.361c.04-3.245,7.532-7.593,10.494-6.218a6.685,6.685,0,0,1,2.575,2.454c1.43,2.253,2.589,4.676,3.966,6.964,1.174,1.95,1.575,3.866.287,5.873,3,2.216,6.732,2.269,10.251.115-1.25-2.137-.871-4.162.415-6.221,1.376-2.2,2.516-4.548,3.818-6.8,1.707-2.947,4.255-3.6,7.124-1.858a21.1,21.1,0,0,1,3.955,2.641,6.6,6.6,0,0,1,2.055,3.556,4.418,4.418,0,0,0,1.647,3.3,10.048,10.048,0,0,1,3.787,8.547,19.443,19.443,0,0,0,2.463,10.2c1.457,2.5.926,4.886-.3,7.411-2.1,4.321-4.764,8.627-5.63,13.233-1.136,6.035-.765,12.355-1.016,18.553a2.2,2.2,0,0,0,.348,1c3.878,7.4,7.764,14.792,11.8,22.482.85-2.355,2.322-4.86,2.592-7.489.738-7.176,1.109-14.4,1.36-21.613.26-7.458.615-14.881,3.129-21.991,2.5-7.069,6.176-13.358,12.317-17.967a5.025,5.025,0,0,0,1.1-1.953c1.164-2.53,1.864-5.414,3.53-7.546,4.4-5.633,11.549-5.393,15.847.322a14.918,14.918,0,0,1,2.6,5.172,5.55,5.55,0,0,0,3.031,3.815,38.628,38.628,0,0,1,13.161,12.361c.121.18.255.353.366.538.819,1.367.837,2.658-.61,3.582-1.419.9-2.488.184-3.288-1.022a36.133,36.133,0,0,0-10.11-10.306c-.36-.24-.721-.482-1.1-.692-.1-.058-.269-.009-.6-.009-.224,2.484-.495,4.973-.666,7.469q-1.5,21.856-2.962,43.715c-.792,11.976-1.528,23.956-2.309,35.933q-.36,5.52-.835,11.032a5.006,5.006,0,0,1-4.711,4.561,4.871,4.871,0,0,1-4.848-4.625c-.752-10.457-1.449-20.917-2.176-31.375q-1.233-17.744-2.477-35.486c-.642-9.377-1.244-18.757-1.864-28.136C325.636,58.136,325.593,57.648,325.514,56.621Zm-94.219,95.034.644.386a11.551,11.551,0,0,1,10.213.887c1.842,1.062,3.763.677,5.587-.318a10.155,10.155,0,0,1,10.328-.02,6.175,6.175,0,0,0,6.385.012,10.1,10.1,0,0,1,10.327,0,5.982,5.982,0,0,0,6.181.063c3.651-2.013,7.229-1.8,10.956.058a5.921,5.921,0,0,0,4.51.352c3.578-1.684,7.086-2.533,11.08-.937a24.76,24.76,0,0,0-.289-2.469c-1.483-6.459-2.756-12.977-4.544-19.352a112.564,112.564,0,0,0-12.254-28.307,3.429,3.429,0,0,0-2.172-1.671c-7.523-.123-15.05-.1-22.574-.021a2.157,2.157,0,0,0-1.619,1.22c-1.365,5.461-2.792,10.93-1.5,16.645a2.1,2.1,0,0,1-1.709,2.779,2.219,2.219,0,0,1-2.822-1.726,11.581,11.581,0,0,1-.556-3.4c.089-3.489.33-6.975.519-10.588a17.319,17.319,0,0,0-4.425,10.113c-.2,2.47-1.1,3.578-2.742,3.4-1.579-.167-2.317-1.5-2-3.9a23.626,23.626,0,0,1,5.683-12.878c.4-.45.754-.931,1.2-1.483-5.208-.779-5.418-.7-7.8,3.406a118.1,118.1,0,0,0-11.58,27.213C234.4,137.9,232.951,144.809,231.295,151.656ZM278.77,47.13a14,14,0,0,1-18.541.015c-2.3,1.2-4.744,3.575-7.281,1.669-1.934-1.453-2.975-4.1-4.435-6.243a4.552,4.552,0,0,0-2.15,4.129c-.071,4.131-.456,8.282-2.484,11.959a4.112,4.112,0,0,0,.263,4.935,37.312,37.312,0,0,1,6.084,14.213c.39,2.029.706,4.071,1.059,6.122h37.048A45.261,45.261,0,0,1,295.772,62.2a3.036,3.036,0,0,0-.083-2.58c-2.222-4.137-2.81-8.623-2.935-13.184a4.5,4.5,0,0,0-2.512-4.111C287.637,49.979,285.694,51.173,278.77,47.13Zm52.054,18.594c1.971,28.938,3.91,57.419,5.85,85.9l.554-.02c1.941-28.509,3.882-57.017,5.851-85.95C338.872,68.593,335.009,68.475,330.824,65.724ZM230.769,161.9c3.363-1.7,6.8-2.115,10.169-.265a7.037,7.037,0,0,0,7.366-.021,9.12,9.12,0,0,1,9.14-.058,7.38,7.38,0,0,0,7.754-.054,8.975,8.975,0,0,1,8.95.057,7.169,7.169,0,0,0,7.552.03,9.279,9.279,0,0,1,9.337.085,6.785,6.785,0,0,0,7.16,0,9.8,9.8,0,0,1,8.773-.4c.5.2,1.023.352,2.081.712-.5-1.752-.467-3.655-1.346-4.288-2.373-1.71-5.074-2.6-8.059-.843a9.619,9.619,0,0,1-10.114-.009,6.063,6.063,0,0,0-6.362-.064,10.183,10.183,0,0,1-10.517-.037,5.782,5.782,0,0,0-5.984-.048c-3.654,2.054-7.194,1.858-10.948.03a6.329,6.329,0,0,0-4.907-.287,12.683,12.683,0,0,1-12.372-.009A5.223,5.223,0,0,0,230.769,161.9Zm57.374-66.368V88.966h-36.6v6.569ZM343.951,53a17.856,17.856,0,0,0-12.287-.178c-.625.222-1.5,1.117-1.451,1.628a10.784,10.784,0,0,0,3.167,7.163,4.8,4.8,0,0,0,7.152-.009C342.937,59.315,343.64,56.338,343.951,53Zm-89-8.225,5.622-3.284-4.653-8.353-4.36,2.881Zm29.281,0,3.348-8.834-4.335-2.815-4.665,8.387Zm58.3,2.736c-.673-2.947-3.105-5.13-5.629-5.1-2.591.029-5.042,2.377-5.605,5.1Z" transform="translate(0 0)"/>
      <path id="Trazado_706397" data-name="Trazado 706397" d="M232.193,163.323c1.656-6.846,3.1-13.754,5.021-20.526a118.1,118.1,0,0,1,11.58-27.213c2.383-4.1,2.593-4.185,7.8-3.406-.444.551-.8,1.033-1.2,1.483a23.626,23.626,0,0,0-5.683,12.878c-.314,2.4.424,3.731,2,3.9,1.64.174,2.546-.935,2.742-3.4a17.319,17.319,0,0,1,4.425-10.113c-.188,3.613-.43,7.1-.519,10.588a11.581,11.581,0,0,0,.556,3.4,2.219,2.219,0,0,0,2.822,1.726,2.1,2.1,0,0,0,1.709-2.779c-1.293-5.716.134-11.184,1.5-16.645a2.157,2.157,0,0,1,1.619-1.22c7.524-.081,15.051-.1,22.574.021a3.429,3.429,0,0,1,2.172,1.671,112.564,112.564,0,0,1,12.254,28.308c1.788,6.374,3.062,12.893,4.544,19.352a24.762,24.762,0,0,1,.289,2.469c-3.994-1.6-7.5-.747-11.08.937a5.921,5.921,0,0,1-4.51-.352c-3.727-1.859-7.306-2.071-10.956-.058a5.982,5.982,0,0,1-6.181-.063,10.1,10.1,0,0,0-10.327,0,6.175,6.175,0,0,1-6.385-.012,10.155,10.155,0,0,0-10.328.02c-1.823,1-3.744,1.38-5.587.318a11.551,11.551,0,0,0-10.213-.887Z" transform="translate(-0.898 -11.667)" fill="#a00011" opacity="0.35" style="isolation: isolate"/>
      <path id="Trazado_706398" data-name="Trazado 706398" d="M281.6,49.387c6.925,4.043,8.867,2.849,11.471-4.8a4.5,4.5,0,0,1,2.512,4.111c.126,4.561.713,9.047,2.935,13.184a3.036,3.036,0,0,1,.083,2.58,45.261,45.261,0,0,0-7.438,21.728H254.119c-.353-2.051-.669-4.094-1.059-6.122a37.313,37.313,0,0,0-6.084-14.213,4.112,4.112,0,0,1-.263-4.935c2.028-3.677,2.412-7.828,2.484-11.959a4.552,4.552,0,0,1,2.15-4.129c1.46,2.147,2.5,4.79,4.435,6.243,2.537,1.906,4.985-.464,7.281-1.669A14,14,0,0,0,281.6,49.387Z" transform="translate(-2.834 -2.258)" fill="#a00011" opacity="0.35" style="isolation: isolate"/>
      <path id="Trazado_706399" data-name="Trazado 706399" d="M347.926,71.779c4.185,2.751,8.048,2.869,12.255-.071-1.969,28.933-3.91,57.441-5.851,85.95l-.554.02C351.836,129.2,349.9,100.716,347.926,71.779Z" transform="translate(-17.102 -6.055)" fill="#afafaf" opacity="0.35" style="isolation: isolate"/>
      <path id="Trazado_706400" data-name="Trazado 706400" d="M231.573,182.634a5.223,5.223,0,0,1,7.673-5.469,12.683,12.683,0,0,0,12.372.009,6.329,6.329,0,0,1,4.907.287c3.754,1.828,7.294,2.024,10.948-.03a5.782,5.782,0,0,1,5.984.048,10.183,10.183,0,0,0,10.517.037,6.063,6.063,0,0,1,6.362.064,9.619,9.619,0,0,0,10.114.009c2.985-1.754,5.686-.867,8.059.843.879.633.842,2.536,1.346,4.288-1.059-.36-1.58-.513-2.081-.712a9.8,9.8,0,0,0-8.773.4,6.785,6.785,0,0,1-7.16,0,9.279,9.279,0,0,0-9.337-.085,7.169,7.169,0,0,1-7.552-.03,8.975,8.975,0,0,0-8.95-.057,7.38,7.38,0,0,1-7.754.054,9.12,9.12,0,0,0-9.14.058,7.037,7.037,0,0,1-7.366.021C238.377,180.519,234.937,180.93,231.573,182.634Z" transform="translate(-0.804 -20.731)" fill="#a00011"/>
      <path id="Trazado_706401" data-name="Trazado 706401" d="M292.338,105.385h-36.6V98.816h36.6Z" transform="translate(-4.195 -9.85)" fill="#a00011"/>
      <path id="Trazado_706402" data-name="Trazado 706402" d="M259.152,45.532l-3.392-8.756,4.36-2.881,4.653,8.353Z" transform="translate(-4.198 -0.761)" fill="#ffb400" opacity="0.35" style="isolation: isolate"/>
      <path id="Trazado_706403" data-name="Trazado 706403" d="M292.832,45.529l-5.652-3.262,4.665-8.387,4.335,2.815Z" transform="translate(-8.597 -0.759)" fill="#ffb400" opacity="0.35" style="isolation: isolate"/>
    </g>
  </g>
</svg>
