<svg id="Grupo_1017292" data-name="Grupo 1017292" xmlns="http://www.w3.org/2000/svg" xmlns:xlink="http://www.w3.org/1999/xlink" width="178.839" height="209.357" viewBox="0 0 178.839 209.357">
  <defs>
    <clipPath id="clip-path">
      <rect id="Rectángulo_353235" data-name="Rectángulo 353235" width="178.839" height="209.357" fill="none"/>
    </clipPath>
  </defs>
  <g id="Grupo_1017291" data-name="Grupo 1017291" clip-path="url(#clip-path)">
    <path id="Trazado_715016" data-name="Trazado 715016" d="M42.833,5.074h89.861a10.455,10.455,0,0,1,10.455,10.455V170.137a10.455,10.455,0,0,1-10.455,10.455H15.525A10.455,10.455,0,0,1,5.07,170.137V42.835a10.457,10.457,0,0,1,3.062-7.393L35.441,8.134a10.453,10.453,0,0,1,7.393-3.06" transform="translate(-2.422 -2.424)" fill="#abffff" opacity="0.36"/>
    <path id="Trazado_715017" data-name="Trazado 715017" d="M228.856,5.074H206.4A10.455,10.455,0,0,1,216.86,15.529V170.137A10.455,10.455,0,0,1,206.4,180.592h22.451a10.455,10.455,0,0,0,10.455-10.455V15.527A10.455,10.455,0,0,0,228.856,5.074" transform="translate(-98.589 -2.424)" fill="#ddf1fd"/>
    <path id="Trazado_715018" data-name="Trazado 715018" d="M8.991,36.3,36.3,8.991a10.456,10.456,0,0,1,3.063-2.123v26.01A6.482,6.482,0,0,1,32.88,39.36H6.868A10.454,10.454,0,0,1,8.991,36.3" transform="translate(-3.28 -3.28)" fill="#d96973"/>
    <path id="Trazado_715019" data-name="Trazado 715019" d="M167.408,55.208H113.032a3.281,3.281,0,0,1-3.281-3.281v-8.6a3.281,3.281,0,0,1,3.281-3.281h54.376a3.281,3.281,0,0,1,3.281,3.281V51.92a3.281,3.281,0,0,1-3.281,3.281Z" transform="translate(-52.422 -19.127)" fill="#ffe8ce"/>
    <path id="Trazado_715020" data-name="Trazado 715020" d="M266.227,265.318l-9.712-5.988a2.974,2.974,0,0,0-3.117,0l-9.713,5.979a2.973,2.973,0,0,1-4.531-2.532v-38.46h31.6v38.46a2.973,2.973,0,0,1-4.531,2.541" transform="translate(-114.232 -107.145)" fill="#ffc403"/>
    <path id="Trazado_715021" data-name="Trazado 715021" d="M243.255,119.385a7.942,7.942,0,0,0,8.5,2.763,7.943,7.943,0,0,1,10.162,7.384,7.941,7.941,0,0,0,5.256,7.235,7.943,7.943,0,0,1,3.883,11.946,7.941,7.941,0,0,0,0,8.942,7.943,7.943,0,0,1-3.883,11.946,7.941,7.941,0,0,0-5.256,7.235,7.94,7.94,0,0,1-10.162,7.383,7.942,7.942,0,0,0-8.5,2.763,7.94,7.94,0,0,1-12.56,0,7.942,7.942,0,0,0-8.5-2.763,7.943,7.943,0,0,1-10.162-7.383,7.941,7.941,0,0,0-5.256-7.235,7.942,7.942,0,0,1-3.883-11.946,7.941,7.941,0,0,0,0-8.942,7.941,7.941,0,0,1,3.883-11.946,7.941,7.941,0,0,0,5.256-7.235,7.942,7.942,0,0,1,10.162-7.384,7.942,7.942,0,0,0,8.5-2.763,7.942,7.942,0,0,1,12.56,0" transform="translate(-96.25 -55.552)" fill="#ffdbdb"/>
    <path id="Trazado_715022" data-name="Trazado 715022" d="M296.348,157.648a7.941,7.941,0,0,1,0-8.942,7.941,7.941,0,0,0-3.883-11.946,7.941,7.941,0,0,1-5.256-7.235,7.942,7.942,0,0,0-10.162-7.384,7.942,7.942,0,0,1-8.5-2.763,7.942,7.942,0,0,0-12.56,0,7.925,7.925,0,0,1-1.533,1.505,35.482,35.482,0,0,1,0,64.587,7.928,7.928,0,0,1,1.533,1.506,7.942,7.942,0,0,0,12.56,0,7.941,7.941,0,0,1,8.5-2.763,7.942,7.942,0,0,0,10.162-7.384,7.941,7.941,0,0,1,5.253-7.235,7.942,7.942,0,0,0,3.886-11.946" transform="translate(-121.537 -55.549)" fill="#ffe8ce"/>
    <path id="Trazado_715023" data-name="Trazado 715023" d="M251.529,149.475a19.549,19.549,0,1,1-19.549,19.549,19.549,19.549,0,0,1,19.549-19.549" transform="translate(-110.805 -71.396)" fill="#ffc403"/>
    <path id="Trazado_715024" data-name="Trazado 715024" d="M296.471,170.676a19.551,19.551,0,0,0-11.332-17.742,35.511,35.511,0,0,1,0,35.486,19.55,19.55,0,0,0,11.332-17.744" transform="translate(-136.196 -73.049)" fill="#e3901a"/>
    <path id="Trazado_715025" data-name="Trazado 715025" d="M8.991,36.3,36.3,8.991a10.456,10.456,0,0,1,3.063-2.123v26.01A6.482,6.482,0,0,1,32.88,39.36H6.868A10.454,10.454,0,0,1,8.991,36.3" transform="translate(-3.28 -3.28)" fill="#ffe8ce"/>
    <path id="Trazado_715026" data-name="Trazado 715026" d="M108.64,122.715H40.834a2.648,2.648,0,0,0,0,5.3H108.64a2.648,2.648,0,0,0,0-5.3" transform="translate(-18.239 -58.615)" fill="#040405"/>
    <path id="Trazado_715027" data-name="Trazado 715027" d="M108.64,158.335H40.834a2.648,2.648,0,1,0,0,5.3H108.64a2.648,2.648,0,1,0,0-5.3" transform="translate(-18.239 -75.628)" fill="#040405"/>
    <path id="Trazado_715028" data-name="Trazado 715028" d="M108.64,193.98H40.834a2.648,2.648,0,1,0,0,5.3H108.64a2.648,2.648,0,1,0,0-5.3" transform="translate(-18.239 -92.654)" fill="#040405"/>
    <path id="Trazado_715029" data-name="Trazado 715029" d="M111.288,232.245a2.648,2.648,0,0,0-2.648-2.648H40.834a2.648,2.648,0,1,0,0,5.3h67.805a2.648,2.648,0,0,0,2.648-2.648" transform="translate(-18.239 -109.667)" fill="#040405"/>
    <path id="Trazado_715030" data-name="Trazado 715030" d="M40.844,281.81a2.648,2.648,0,0,0,0,5.3H74.831a2.648,2.648,0,0,0,0-5.3Z" transform="translate(-18.244 -134.606)" fill="#040405"/>
    <path id="Trazado_715031" data-name="Trazado 715031" d="M170.916,49.489V40.895a5.944,5.944,0,0,0-5.937-5.937H110.6a5.943,5.943,0,0,0-5.937,5.937v8.594a5.943,5.943,0,0,0,5.937,5.937h4.591a2.648,2.648,0,0,0,0-5.3H110.6a.642.642,0,0,1-.64-.64V40.895a.642.642,0,0,1,.64-.64h54.374a.642.642,0,0,1,.64.64v8.594a.642.642,0,0,1-.64.64h-37.4a2.648,2.648,0,1,0-.006,5.3h37.406a5.942,5.942,0,0,0,5.939-5.937" transform="translate(-49.994 -16.698)" fill="#040405"/>
    <path id="Trazado_715032" data-name="Trazado 715032" d="M140.726,161.495a2.648,2.648,0,0,0-2.648,2.648v3.567a7.816,7.816,0,0,1-7.807,7.807H13.1a7.815,7.815,0,0,1-7.807-7.8V40.413a7.888,7.888,0,0,1,.182-1.682H29.594a9.141,9.141,0,0,0,9.13-9.13V5.486A7.855,7.855,0,0,1,40.406,5.3h89.861a7.816,7.816,0,0,1,7.807,7.807V48.365a2.648,2.648,0,0,0,5.3,0V13.1A13.123,13.123,0,0,0,130.269,0H40.408A13.018,13.018,0,0,0,31.142,3.84L3.839,31.146A13.019,13.019,0,0,0,0,40.413v127.3a13.124,13.124,0,0,0,13.1,13.1H130.269a13.124,13.124,0,0,0,13.1-13.1v-3.565a2.648,2.648,0,0,0-2.645-2.652ZM33.433,9.043V29.6A3.839,3.839,0,0,1,29.6,33.426H9.042Z" transform="translate(0 0)" fill="#040405"/>
    <path id="Trazado_715033" data-name="Trazado 715033" d="M270.826,147.775a10.59,10.59,0,0,0-5.177-15.931,5.262,5.262,0,0,1-3.5-4.823,10.591,10.591,0,0,0-13.552-9.843,5.263,5.263,0,0,1-5.669-1.841,10.59,10.59,0,0,0-16.751,0,5.265,5.265,0,0,1-5.669,1.841,10.589,10.589,0,0,0-13.552,9.843,5.262,5.262,0,0,1-3.5,4.821,10.591,10.591,0,0,0-5.176,15.931,5.263,5.263,0,0,1,0,5.96,10.59,10.59,0,0,0,5.176,15.931,5.262,5.262,0,0,1,3.5,4.821,10.588,10.588,0,0,0,9.145,10.171v24.113a5.621,5.621,0,0,0,8.567,4.787l9.714-5.98a.277.277,0,0,1,.339,0l9.713,5.98A5.622,5.622,0,0,0,253,208.769V184.658a10.588,10.588,0,0,0,9.144-10.171,5.262,5.262,0,0,1,3.5-4.821,10.59,10.59,0,0,0,5.177-15.931,5.258,5.258,0,0,1,0-5.961M247.21,209.048l-9.713-5.98a5.622,5.622,0,0,0-5.893,0l-9.713,5.979a.323.323,0,0,1-.445-.1.327.327,0,0,1-.049-.175V184.162a5.256,5.256,0,0,1,4.78,2.02,10.59,10.59,0,0,0,16.751,0,5.255,5.255,0,0,1,4.779-2.02v24.607a.322.322,0,0,1-.5.279m19.237-52.329a5.286,5.286,0,0,1-2.587,7.962,10.528,10.528,0,0,0-7.008,9.648,5.219,5.219,0,0,1-1.907,3.91,5.272,5.272,0,0,1-4.866,1.011,10.532,10.532,0,0,0-11.343,3.686,5.286,5.286,0,0,1-8.372,0,10.522,10.522,0,0,0-8.342-4.116,10.687,10.687,0,0,0-3,.432,5.271,5.271,0,0,1-4.868-1.012,5.217,5.217,0,0,1-1.9-3.91,10.531,10.531,0,0,0-7.01-9.648,5.285,5.285,0,0,1-2.587-7.961,10.53,10.53,0,0,0,0-11.925,5.286,5.286,0,0,1,2.587-7.962,10.53,10.53,0,0,0,7.01-9.647,5.286,5.286,0,0,1,6.773-4.922,10.529,10.529,0,0,0,11.341-3.686,5.286,5.286,0,0,1,8.372,0,10.528,10.528,0,0,0,11.341,3.686,5.286,5.286,0,0,1,6.773,4.922,10.53,10.53,0,0,0,7.011,9.647,5.286,5.286,0,0,1,2.586,7.962,10.254,10.254,0,0,0,0,11.921Z" transform="translate(-93.826 -53.128)" fill="#040405"/>
    <path id="Trazado_715034" data-name="Trazado 715034" d="M249.107,144.4a22.2,22.2,0,1,0,22.2,22.2,22.2,22.2,0,0,0-22.2-22.2m0,39.1a16.9,16.9,0,1,1,16.9-16.9A16.9,16.9,0,0,1,249.107,183.5Z" transform="translate(-108.383 -68.973)" fill="#040405"/>
    <path id="Trazado_715035" data-name="Trazado 715035" d="M231.229,352.363a11.1,11.1,0,0,1,.372,11.277,11.29,11.29,0,0,1-17.91,2.639q-.328-.328-.622-.675l-9.573-11,14.456-14.456,10.987,9.584a11.947,11.947,0,0,1,2.289,2.629" transform="translate(-97.2 -162.472)" fill="#8a3d02"/>
    <path id="Trazado_715036" data-name="Trazado 715036" d="M212.53,334.719l-14.456,14.456-5.928-6.815.04-.036,13.53-13.53.006-.006Z" transform="translate(-91.778 -157.045)" fill="#8d0a0a"/>
    <path id="Trazado_715037" data-name="Trazado 715037" d="M151.6,205.469a6.755,6.755,0,1,1-9.551,9.554l-19.109-19.108a6.755,6.755,0,0,1,9.554-9.552Z" transform="translate(-57.78 -88.071)" fill="#8a3d02"/>
    <path id="Trazado_715038" data-name="Trazado 715038" d="M117.785,225.7l-7.92,7.92c-.016.013-.029.028-.043.041L97.083,246.4c-.013.013-.027.027-.04.043l-7.92,7.92-1.593-1.592-19.1-19.111-1.593-1.592L95.5,203.41,97.09,205,116.2,224.111Z" transform="translate(-31.924 -97.158)" fill="#ffc403"/>
    <path id="Trazado_715039" data-name="Trazado 715039" d="M141.039,268.063l1.592-1.592a4.5,4.5,0,0,0-6.328-6.411l-12.822,12.822a4.5,4.5,0,1,0,6.411,6.328l1.592-1.592,27.247,31.3.04-.037,13.53-13.529.006-.007Z" transform="translate(-58.361 -123.597)" fill="#8a3d02"/>
    <path id="Trazado_715040" data-name="Trazado 715040" d="M106.351,383.928v2.252H47.809v-2.252a9.007,9.007,0,0,1,9.007-9.007H97.349a9.007,9.007,0,0,1,9,9.007" transform="translate(-22.836 -179.08)" fill="#8a3d02"/>
    <path id="Trazado_715041" data-name="Trazado 715041" d="M100.333,353.367a5.629,5.629,0,0,1,.016,11.258h-38.3a5.629,5.629,0,0,1-.017-11.258h38.3Z" transform="translate(-26.947 -168.785)" fill="#8a3d02"/>
    <path id="Trazado_715042" data-name="Trazado 715042" d="M78.45,278.627a6.755,6.755,0,0,1-9.554,9.552L49.79,269.073a6.755,6.755,0,0,1,9.551-9.554Z" transform="translate(-22.837 -123.014)" fill="#8a3d02"/>
    <path id="Trazado_715043" data-name="Trazado 715043" d="M87.571,254.626a2.252,2.252,0,1,0,3.185,0l0,0a2.249,2.249,0,0,0-3.181,0l0,0" transform="translate(-41.513 -121.307)" fill="#040405"/>
    <path id="Trazado_715044" data-name="Trazado 715044" d="M100.515,361.607a7.884,7.884,0,0,0-6.351-12.551H55.883A7.876,7.876,0,0,0,49.535,361.6a11.266,11.266,0,0,0-6.037,9.975v2.252a2.252,2.252,0,0,0,2.252,2.252h58.542a2.252,2.252,0,0,0,2.252-2.252v-2.252a11.267,11.267,0,0,0-6.028-9.973m-47.021-7.058a3.354,3.354,0,0,1,2.389-.988h38.28a3.382,3.382,0,0,1,.351,6.756,3.285,3.285,0,0,1-.351,0H55.883a3.383,3.383,0,0,1-2.389-5.767ZM48,371.579a6.765,6.765,0,0,1,6.755-6.765H95.289a6.765,6.765,0,0,1,6.751,6.765Z" transform="translate(-20.777 -166.726)" fill="#040405"/>
    <path id="Trazado_715045" data-name="Trazado 715045" d="M156.688,274.676a14.177,14.177,0,0,0-2.713-3.114l-10.522-9.177a2.236,2.236,0,0,0-.9-.78l-6.363-5.55-29.452-25.692a6.742,6.742,0,0,0-1.978-10.755l2.724-2.721a9.007,9.007,0,0,0,8.7-15.068l0,0L97.08,182.711a9,9,0,0,0-15.066,8.7L54.824,218.6a9.008,9.008,0,0,0-8.706,15.07l19.116,19.1A9,9,0,0,0,80.3,244.075l2.719-2.719a6.756,6.756,0,0,0,10.758,1.974l31.37,36.036a2.242,2.242,0,0,0,.306.381,1.38,1.38,0,0,0,.13.113l9.338,10.742c.233.275.482.544.739.8a13.4,13.4,0,0,0,9.519,3.959,13.867,13.867,0,0,0,1.9-.13,13.624,13.624,0,0,0,10.053-6.96,13.323,13.323,0,0,0-.441-13.6m-32.474-3.24,10.607-10.607,3.4,2.967-4.113,4.114-6.931,6.932Zm-27.241-31.3,6.581-6.581,27.865,24.309-10.168,10.168Zm-9.448-54.249a4.5,4.5,0,0,1,6.367-.007l.007.007L113,205a4.505,4.505,0,1,1-6.368,6.375L87.527,192.263a4.508,4.508,0,0,1,0-6.37ZM74.789,249.577a4.51,4.51,0,0,1-6.375,0l-19.1-19.1A4.5,4.5,0,1,1,55.68,224.1l19.108,19.113a4.507,4.507,0,0,1,0,6.366ZM58.864,220.919l25.477-25.472,19.108,19.108-6.308,6.308-.063.06L84.347,233.655l-.078.08-6.3,6.3Zm30.254,19.774a2.251,2.251,0,0,1-1.62-3.816l12.791-12.791a2.252,2.252,0,0,1,3.16,3.209l-1.57,1.573-.032.032-9.531,9.531-.013.013-1.586,1.586a2.238,2.238,0,0,1-1.6.662m64.085,45.38a9.161,9.161,0,0,1-6.74,4.705,8.948,8.948,0,0,1-7.613-2.552c-.173-.173-.34-.354-.493-.536l-.022-.026-8.2-9.414,11.482-11.482,9.4,8.2.022.018a9.7,9.7,0,0,1,1.861,2.136,8.892,8.892,0,0,1,.3,8.954" transform="translate(-20.768 -86.01)" fill="#040405"/>
    <path id="Trazado_715046" data-name="Trazado 715046" d="M112.5,224.146a2.252,2.252,0,0,0-3.185,0L99.764,233.7a2.252,2.252,0,0,0,3.185,3.185l9.554-9.554a2.252,2.252,0,0,0,0-3.185" transform="translate(-47.339 -106.748)" fill="#040405"/>
  </g>
</svg>
