<svg id="Grupo_991987" data-name="Grupo 991987" xmlns="http://www.w3.org/2000/svg" xmlns:xlink="http://www.w3.org/1999/xlink" width="92.833" height="104.796" viewBox="0 0 92.833 104.796">
  <defs>
    <clipPath id="clip-path">
      <rect id="Rect치ngulo_340257" data-name="Rect치ngulo 340257" width="92.833" height="94.333" fill="none"/>
    </clipPath>
    <clipPath id="clip-path-2">
      <rect id="Rect치ngulo_353419" data-name="Rect치ngulo 353419" width="77.193" height="104.796" transform="translate(0 0)" fill="none"/>
    </clipPath>
  </defs>
  <g id="Grupo_974383" data-name="Grupo 974383">
    <g id="Grupo_974382" data-name="Grupo 974382" clip-path="url(#clip-path)">
      <path id="Trazado_700763" data-name="Trazado 700763" d="M94.69,62.19c0,24.165-20.518,43.755-45.829,43.755S3.032,86.355,3.032,62.19,23.55,18.435,48.861,18.435,94.69,38.025,94.69,62.19" transform="translate(-1.857 -11.612)" fill="#ffdeb8"/>
    </g>
  </g>
  <g id="Grupo_1017838" data-name="Grupo 1017838" transform="translate(3.417)">
    <g id="Grupo_1017837" data-name="Grupo 1017837" clip-path="url(#clip-path-2)">
      <path id="Trazado_715740" data-name="Trazado 715740" d="M33.362,13.507a5.961,5.961,0,0,1-3.267-.972V17.9H36.63v-5.36a5.962,5.962,0,0,1-3.268.972" fill="#e8a700"/>
      <path id="Trazado_715741" data-name="Trazado 715741" d="M63.055,71.228a.614.614,0,0,0-.755,0l-4.9,3.816a.614.614,0,0,1-.991-.484v-17a13.3,13.3,0,0,1,8.78-24.794V21.337a1.023,1.023,0,0,0-1.023-1.023H49.206V27.8a.819.819,0,0,1-.819.819H18.337a.819.819,0,0,1-.819-.819V20.314H2.558a1.023,1.023,0,0,0-1.023,1.023v80.9a1.023,1.023,0,0,0,1.023,1.023H64.165a1.023,1.023,0,0,0,1.023-1.023V72.89Z" fill="#a03d3d"/>
      <path id="Trazado_715742" data-name="Trazado 715742" d="M10.305,102.234V97.942H7.464a.614.614,0,0,1-.614-.614V26.243a.614.614,0,0,1,.614-.614h2.841V21.337a1.023,1.023,0,0,1,1.023-1.023H2.558a1.023,1.023,0,0,0-1.023,1.023v80.9a1.023,1.023,0,0,0,1.023,1.023h8.77a1.023,1.023,0,0,1-1.023-1.023Z" fill="#a03d3d"/>
      <path id="Trazado_715743" data-name="Trazado 715743" d="M57.4,75.045a.614.614,0,0,1-.991-.484V57.554a13.3,13.3,0,0,1,3.465-24.727V26.248a.614.614,0,0,0-.614-.614H49.206v2.174a.819.819,0,0,1-.819.819H18.337a.819.819,0,0,1-.819-.819V25.627H7.464a.614.614,0,0,0-.614.614V97.327a.614.614,0,0,0,.614.614h51.8a.614.614,0,0,0,.614-.614V73.117Z" fill="#abffff"/>
      <path id="Trazado_715744" data-name="Trazado 715744" d="M12.99,97.327V26.243a.614.614,0,0,1,.614-.614H7.464a.614.614,0,0,0-.614.614V97.327a.614.614,0,0,0,.614.614H13.6a.614.614,0,0,1-.614-.614" fill="#bde4f8"/>
      <path id="Trazado_715745" data-name="Trazado 715745" d="M48.387,28.826H18.337a1.023,1.023,0,0,1-1.026-1.02V18.919A1.023,1.023,0,0,1,18.334,17.9h30.05a1.023,1.023,0,0,1,1.023,1.023V27.8a1.023,1.023,0,0,1-1.02,1.023" fill="#ffc403"/>
      <path id="Trazado_715746" data-name="Trazado 715746" d="M22.588,27.8V18.919A1.023,1.023,0,0,1,23.611,17.9H18.336a1.023,1.023,0,0,0-1.025,1.021V27.8a1.023,1.023,0,0,0,1.023,1.023h5.277A1.023,1.023,0,0,1,22.588,27.8Z" fill="#e8a700"/>
      <path id="Trazado_715747" data-name="Trazado 715747" d="M62.678,59.127a13.236,13.236,0,0,1-6.269-1.569v17a.614.614,0,0,0,.991.484l4.9-3.816a.614.614,0,0,1,.755,0l4.9,3.816a.614.614,0,0,0,.991-.484v-17a13.232,13.232,0,0,1-6.268,1.569" fill="#b20d0d"/>
      <path id="Trazado_715748" data-name="Trazado 715748" d="M56.409,57.558v17a.614.614,0,0,0,.991.484l4.226-3.291V59.081a13.214,13.214,0,0,1-5.217-1.523" fill="#b20d0d"/>
      <path id="Trazado_715749" data-name="Trazado 715749" d="M62.677,32.524a13.3,13.3,0,1,1-13.3,13.3,13.3,13.3,0,0,1,13.3-13.3" fill="#abffff"/>
      <path id="Trazado_715750" data-name="Trazado 715750" d="M56.156,45.825a13.305,13.305,0,0,1,9.911-12.864,13.3,13.3,0,1,0,0,25.728,13.305,13.305,0,0,1-9.911-12.864" fill="#06d1d1"/>
      <path id="Trazado_715751" data-name="Trazado 715751" d="M33.362,1.54a5.984,5.984,0,1,1-5.984,5.984A5.984,5.984,0,0,1,33.362,1.54" fill="#ffc403"/>
      <path id="Trazado_715752" data-name="Trazado 715752" d="M32.52,7.524a5.983,5.983,0,0,1,3.413-5.4,5.984,5.984,0,1,0,0,10.809A5.983,5.983,0,0,1,32.52,7.524" fill="#e8a700"/>
      <path id="Trazado_715753" data-name="Trazado 715753" d="M22.036,38.344l-3.478,3.478L16.7,39.963a1.535,1.535,0,0,0-2.171,2.171l2.944,2.944a1.534,1.534,0,0,0,2.171,0l4.564-4.564a1.535,1.535,0,0,0-2.171-2.171Z" fill="#040405"/>
      <path id="Trazado_715754" data-name="Trazado 715754" d="M22.036,52.562,18.558,56.04,16.7,54.181a1.535,1.535,0,1,0-2.171,2.171L17.472,59.3a1.534,1.534,0,0,0,2.171,0l4.564-4.564a1.535,1.535,0,1,0-2.171-2.171Z" fill="#040405"/>
      <path id="Trazado_715755" data-name="Trazado 715755" d="M29.132,60H51.111a1.535,1.535,0,0,0,0-3.07H29.132a1.535,1.535,0,0,0,0,3.07" fill="#040405"/>
      <path id="Trazado_715756" data-name="Trazado 715756" d="M22.036,66.774l-3.478,3.478L16.7,68.393a1.535,1.535,0,0,0-2.171,2.171l2.944,2.945a1.534,1.534,0,0,0,2.171,0l4.564-4.564a1.535,1.535,0,0,0-2.171-2.171" fill="#040405"/>
      <path id="Trazado_715757" data-name="Trazado 715757" d="M51.111,66.07H29.132a1.535,1.535,0,1,0,0,3.07H51.111a1.535,1.535,0,1,0,0-3.07" fill="#040405"/>
      <path id="Trazado_715758" data-name="Trazado 715758" d="M51.111,71.142H29.132a1.535,1.535,0,1,0,0,3.07H51.111a1.535,1.535,0,1,0,0-3.07" fill="#040405"/>
      <path id="Trazado_715759" data-name="Trazado 715759" d="M22.036,80.986l-3.478,3.479L16.7,82.606a1.535,1.535,0,0,0-2.171,2.171l2.944,2.944a1.534,1.534,0,0,0,2.171,0l4.564-4.564a1.535,1.535,0,0,0-2.171-2.171" fill="#040405"/>
      <path id="Trazado_715760" data-name="Trazado 715760" d="M51.111,80.283H29.132a1.535,1.535,0,1,0,0,3.07H51.111a1.535,1.535,0,1,0,0-3.07" fill="#040405"/>
      <path id="Trazado_715761" data-name="Trazado 715761" d="M52.647,86.89a1.535,1.535,0,0,0-1.535-1.535H29.132a1.535,1.535,0,1,0,0,3.07H51.111a1.535,1.535,0,0,0,1.536-1.534Z" fill="#040405"/>
      <path id="Trazado_715762" data-name="Trazado 715762" d="M75.993,47.216a1.534,1.534,0,0,0-1.831,1.164v0a11.766,11.766,0,1,1-.342-6.338,1.535,1.535,0,0,0,2.922-.943l-.015-.043a14.829,14.829,0,0,0-10-9.509V21.338a2.562,2.562,0,0,0-2.558-2.558H50.938a2.559,2.559,0,0,0-2.551-2.418H38.164V13.305a7.519,7.519,0,1,0-10.588-.983,7.608,7.608,0,0,0,.983.983v3.057H18.337a2.559,2.559,0,0,0-2.551,2.418H2.558A2.562,2.562,0,0,0,0,21.338v80.9A2.562,2.562,0,0,0,2.558,104.8H64.165a2.562,2.562,0,0,0,2.558-2.558v-26.2l.288.224a2.149,2.149,0,0,0,3.469-1.7V58.442a14.892,14.892,0,0,0,6.677-9.4,1.535,1.535,0,0,0-1.164-1.826M63.654,31.023c-.324-.021-.649-.035-.976-.035-.428,0-.85.022-1.268.058v-4.8A2.151,2.151,0,0,0,59.261,24.1H50.946V21.849H63.655ZM33.362,3.075a4.449,4.449,0,1,1-4.449,4.449,4.449,4.449,0,0,1,4.449-4.449M31.629,14.839a7.459,7.459,0,0,0,3.465,0v1.522H31.629Zm32.025,86.883H3.07V21.849H15.778v2.245H7.464a2.151,2.151,0,0,0-2.149,2.149V97.328a2.151,2.151,0,0,0,2.149,2.149H44.893a1.535,1.535,0,0,0,0-3.07H8.385V27.164h7.394v.641a2.562,2.562,0,0,0,2.558,2.558h5.48a1.535,1.535,0,1,0,0-3.07h-4.97V19.431H47.875v7.86h-16.9a1.535,1.535,0,1,0,0,3.07H48.382A2.562,2.562,0,0,0,50.94,27.8v-.639h7.394v4.473A14.894,14.894,0,0,0,50.3,37.645H29.132a1.535,1.535,0,0,0,0,3.07H48.748a14.786,14.786,0,0,0-.577,2H29.132a1.535,1.535,0,1,0,0,3.07H47.842v.038a14.742,14.742,0,0,0,1.287,6.033h-20a1.535,1.535,0,1,0,0,3.07H50.971a14.937,14.937,0,0,0,3.9,3.508V74.56a2.146,2.146,0,0,0,3.465,1.7V96.4H52.057a1.535,1.535,0,0,0,0,3.07h7.2a2.151,2.151,0,0,0,2.149-2.149V73.868l1.268-.988.976.761v28.082Zm3.758-29.047L64,70.017a2.148,2.148,0,0,0-2.641,0l-3.413,2.658V59.882a14.756,14.756,0,0,0,9.468,0Z" fill="#040405"/>
      <path id="Trazado_715763" data-name="Trazado 715763" d="M67.683,41.779,61.99,47.472,58.7,44.184a1.535,1.535,0,1,0-2.171,2.171L60.9,50.728a1.534,1.534,0,0,0,2.171,0l6.778-6.778a1.535,1.535,0,0,0-2.171-2.171Z" fill="#040405"/>
      <path id="Trazado_715764" data-name="Trazado 715764" d="M42.21,23.362a1.535,1.535,0,0,0-1.535-1.535H26.048a1.535,1.535,0,0,0,0,3.07H40.675a1.535,1.535,0,0,0,1.535-1.535" fill="#040405"/>
    </g>
  </g>
</svg>
