<svg id="Grupo_974256" data-name="Grupo 974256" xmlns="http://www.w3.org/2000/svg" xmlns:xlink="http://www.w3.org/1999/xlink" width="173" height="173" viewBox="0 0 173 173">
  <defs>
    <clipPath id="clip-path">
      <rect id="Rectángulo_340225" data-name="Rectángulo 340225" width="173" height="173" fill="none"/>
    </clipPath>
  </defs>
  <g id="Grupo_974255" data-name="Grupo 974255" transform="translate(0 0)" clip-path="url(#clip-path)">
    <path id="Trazado_700357" data-name="Trazado 700357" d="M177.443,57.572A51.134,51.134,0,1,1,126.31,6.439a51.134,51.134,0,0,1,51.133,51.133" transform="translate(-27.116 -2.322)" fill="#ffdeb8"/>
    <path id="Trazado_700358" data-name="Trazado 700358" d="M167.928,48.758V61.886h13.124Z" transform="translate(-60.571 -17.587)" fill="#fff"/>
    <path id="Trazado_700359" data-name="Trazado 700359" d="M139.036,62.059v-15.2H92.575v86.37h62.508V62.916H139.892a.856.856,0,0,1-.857-.857" transform="translate(-33.392 -16.903)" fill="#b0fffd"/>
    <path id="Trazado_700360" data-name="Trazado 700360" d="M155,61.95a.085.085,0,0,1-.026,0h-.857v70.317H91.608V45.9h46.461v-.856a.857.857,0,0,1,.529-.791.845.845,0,0,1,.387-.054c-.02,0-.039-.012-.059-.012H90.752a.856.856,0,0,0-.857.857v88.082a.857.857,0,0,0,.857.857h64.221a.856.856,0,0,0,.856-.857V61.22a.845.845,0,0,1-.83.729" transform="translate(-32.425 -15.937)" fill="#303030"/>
    <path id="Trazado_700361" data-name="Trazado 700361" d="M167.013,44.269a.831.831,0,0,1,.084.03.778.778,0,0,0-.084-.03" transform="translate(-60.241 -15.968)" fill="#303030"/>
    <path id="Trazado_700362" data-name="Trazado 700362" d="M183.478,60.523,167.536,44.576,183.47,60.517l.008.006" transform="translate(-60.43 -16.078)" fill="#303030"/>
    <rect id="Rectángulo_340217" data-name="Rectángulo 340217" width="0.001" height="18.564" transform="translate(107.356 31.171) rotate(-44.989)" fill="#303030"/>
    <path id="Trazado_700363" data-name="Trazado 700363" d="M165.778,44.254a.858.858,0,0,0-.529.791V61.1a.856.856,0,0,0,.856.857h16.048a.085.085,0,0,0,.026,0,.855.855,0,0,0,.475-1.568l-.008-.006L166.711,44.44a.86.86,0,0,0-.25-.167c-.027-.012-.056-.02-.084-.029a.823.823,0,0,0-.212-.043.859.859,0,0,0-.387.054m1.184,2.859v0l13.125,13.13H166.962Z" transform="translate(-59.605 -15.942)" fill="#303030"/>
    <path id="Trazado_700364" data-name="Trazado 700364" d="M213.032,87.667V100.8h13.124Z" transform="translate(-76.84 -31.621)" fill="#fff"/>
    <path id="Trazado_700365" data-name="Trazado 700365" d="M184.14,100.968v-15.2H137.679v86.37h62.508V101.825H185a.856.856,0,0,1-.857-.857" transform="translate(-49.661 -30.938)" fill="#d4fffd"/>
    <path id="Trazado_700366" data-name="Trazado 700366" d="M200.1,100.859a.085.085,0,0,1-.026,0h-.857v70.317H136.713V84.806h46.461V83.95a.834.834,0,0,1,.916-.845c-.02,0-.039-.012-.059-.012H135.857a.857.857,0,0,0-.857.857v88.083a.856.856,0,0,0,.857.856h64.221a.856.856,0,0,0,.856-.856v-71.9a.845.845,0,0,1-.83.729" transform="translate(-48.694 -29.971)" fill="#303030"/>
    <path id="Trazado_700367" data-name="Trazado 700367" d="M212.117,83.178a.832.832,0,0,1,.084.03.781.781,0,0,0-.084-.03" transform="translate(-76.51 -30.002)" fill="#303030"/>
    <path id="Trazado_700368" data-name="Trazado 700368" d="M228.583,99.433,212.641,83.485l15.934,15.941.008.007" transform="translate(-76.699 -30.113)" fill="#303030"/>
    <rect id="Rectángulo_340218" data-name="Rectángulo 340218" width="0.001" height="18.564" transform="translate(136.192 56.046) rotate(-44.989)" fill="#303030"/>
    <path id="Trazado_700369" data-name="Trazado 700369" d="M210.882,83.163a.858.858,0,0,0-.529.791v16.053a.856.856,0,0,0,.857.856h16.047a.06.06,0,0,0,.026,0,.855.855,0,0,0,.474-1.567l-.008-.006L211.815,83.349a.851.851,0,0,0-.25-.167.874.874,0,0,0-.084-.029.825.825,0,0,0-.212-.043.86.86,0,0,0-.387.054m1.184,2.859v0l13.125,13.13H212.066Z" transform="translate(-75.874 -29.976)" fill="#303030"/>
    <path id="Trazado_700370" data-name="Trazado 700370" d="M46.851,243.926h.214a.856.856,0,0,1-.214-.043Z" transform="translate(-16.899 -87.968)" fill="#fff"/>
    <path id="Trazado_700371" data-name="Trazado 700371" d="M68.276,104.134v10.139h8.193v-4.792l-3.283,2.8-2.516-3.206a1.057,1.057,0,1,1,1.662-1.3l1.158,1.474,2.979-2.541v-2.569Z" transform="translate(-24.627 -37.561)" fill="#ffc403"/>
    <path id="Trazado_700372" data-name="Trazado 700372" d="M68.276,134.41v10.139h8.193v-4.792l-3.283,2.8-2.516-3.205a1.056,1.056,0,0,1,1.662-1.3l1.156,1.473,2.98-2.541V134.41Z" transform="translate(-24.627 -48.481)" fill="#ffc403"/>
    <path id="Trazado_700373" data-name="Trazado 700373" d="M68.276,198.047v10.139h8.193v-4.792l-3.283,2.8-2.516-3.205a1.056,1.056,0,0,1,1.662-1.3l1.156,1.473,2.98-2.542v-2.568Z" transform="translate(-24.627 -71.435)" fill="#ffc403"/>
    <path id="Trazado_700374" data-name="Trazado 700374" d="M164.1,243.753h.7v-.35a.9.9,0,0,1-.7.35" transform="translate(-59.19 -87.795)" fill="#fff"/>
    <path id="Trazado_700375" data-name="Trazado 700375" d="M115.694,86.318a.9.9,0,0,1-.9-.9V81.789h-7.867v3.626a.9.9,0,1,1-1.8,0V81.789H97.267v3.626a.9.9,0,1,1-1.8,0V81.789H87.605v3.626a.9.9,0,1,1-1.8,0V81.789H77.944v3.626a.9.9,0,1,1-1.8,0V81.789H68.283v3.626a.9.9,0,1,1-1.8,0V81.789H58.618v3.626a.9.9,0,1,1-1.8,0V81.789H51.027V183.625H122.4V81.789h-5.8v3.626a.9.9,0,0,1-.9.9m-37.978,70.02-4.57,3.92v7.164a.9.9,0,0,1-.9.9H62.428a.9.9,0,0,1-.9-.9v-11.79a.9.9,0,0,1,.9-.9h9.818a.9.9,0,0,1,.9.9v1.89l3.228-2.769a1.033,1.033,0,0,1,1.458.116,1.046,1.046,0,0,1-.116,1.468m0-20.619-4.57,3.921V146.8a.9.9,0,0,1-.9.9H62.428a.9.9,0,0,1-.9-.9v-11.79a.9.9,0,0,1,.9-.9h9.818a.9.9,0,0,1,.9.9v1.89l3.228-2.768a1.031,1.031,0,0,1,1.458.116,1.045,1.045,0,0,1-.116,1.467m0-19.439-4.57,3.921v7.163a.9.9,0,0,1-.9.9H62.428a.9.9,0,0,1-.9-.9v-11.79a.9.9,0,0,1,.9-.9h9.818a.9.9,0,0,1,.9.9v1.89l3.228-2.768a1.032,1.032,0,0,1,1.458.116,1.045,1.045,0,0,1-.116,1.467m0-19.057-4.57,3.92v7.163a.9.9,0,0,1-.9.9H62.428a.9.9,0,0,1-.9-.9V96.518a.9.9,0,0,1,.9-.9h9.818a.9.9,0,0,1,.9.9v1.89l3.228-2.769a1.032,1.032,0,0,1,1.458.117,1.045,1.045,0,0,1-.116,1.467m32.7,69.3H80.349c-.32,0-.578-.4-.578-.9s.258-.9.578-.9h30.068c.32,0,.578.4.578.9s-.258.9-.578.9m.138-5.407H87.683c-.243,0-.44-.4-.44-.9s.2-.9.44-.9h22.872c.243,0,.44.4.44.9s-.2.9-.44.9m-.138-4.661H80.349c-.32,0-.578-.4-.578-.9s.258-.9.578-.9h30.068c.32,0,.578.4.578.9s-.258.9-.578.9m0-10.55H80.349c-.32,0-.578-.4-.578-.9s.258-.9.578-.9h30.068c.32,0,.578.4.578.9s-.258.9-.578.9m.138-5.408H87.683c-.243,0-.44-.4-.44-.9s.2-.9.44-.9h22.872c.243,0,.44.4.44.9s-.2.9-.44.9m-.138-4.661H80.349c-.32,0-.578-.4-.578-.9s.258-.9.578-.9h30.068c.32,0,.578.4.578.9s-.258.9-.578.9m0-9.371H80.349c-.32,0-.578-.4-.578-.9s.258-.9.578-.9h30.068c.32,0,.578.4.578.9s-.258.9-.578.9m.138-5.407H87.683c-.243,0-.44-.4-.44-.9s.2-.9.44-.9h22.872c.243,0,.44.4.44.9s-.2.9-.44.9m-.138-4.662H80.349c-.32,0-.578-.4-.578-.9s.258-.9.578-.9h30.068c.32,0,.578.4.578.9s-.258.9-.578.9m0-8.988H80.349c-.32,0-.578-.4-.578-.9s.258-.9.578-.9h30.068c.32,0,.578.4.578.9s-.258.9-.578.9m.138-5.407H87.683c-.243,0-.44-.4-.44-.9s.2-.9.44-.9h22.872c.243,0,.44.4.44.9s-.2.9-.44.9m-.138-4.662H80.349c-.32,0-.578-.4-.578-.9s.258-.9.578-.9h30.068c.32,0,.578.4.578.9s-.258.9-.578.9" transform="translate(-18.405 -29.501)" fill="#d4fffd"/>
    <path id="Trazado_700376" data-name="Trazado 700376" d="M68.276,165.291V175.43h8.193v-4.792l-3.283,2.8-2.516-3.205a1.056,1.056,0,1,1,1.662-1.3l1.156,1.473,2.98-2.541v-2.569Z" transform="translate(-24.627 -59.62)" fill="#ffc403"/>
    <path id="Trazado_700377" data-name="Trazado 700377" d="M122.328,77.347a.918.918,0,0,0-.918-.917h-6.846v1.835h5.928V181.691H47.585V78.265H53.5V76.43H46.667a.918.918,0,0,0-.919.917V182.608a.9.9,0,0,0,.7.875.89.89,0,0,0,.214.043H121.41a.953.953,0,0,0,.918-.918Z" transform="translate(-16.501 -27.568)" fill="#303030"/>
    <rect id="Rectángulo_340219" data-name="Rectángulo 340219" width="8.033" height="1.835" transform="translate(68.451 48.861)" fill="#303030"/>
    <rect id="Rectángulo_340220" data-name="Rectángulo 340220" width="8.033" height="1.835" transform="translate(48.711 48.861)" fill="#303030"/>
    <rect id="Rectángulo_340221" data-name="Rectángulo 340221" width="8.032" height="1.835" transform="translate(78.32 48.861)" fill="#303030"/>
    <rect id="Rectángulo_340222" data-name="Rectángulo 340222" width="8.033" height="1.835" transform="translate(58.581 48.861)" fill="#303030"/>
    <rect id="Rectángulo_340223" data-name="Rectángulo 340223" width="8.036" height="1.835" transform="translate(38.839 48.861)" fill="#303030"/>
    <rect id="Rectángulo_340224" data-name="Rectángulo 340224" width="8.037" height="1.835" transform="translate(88.189 48.861)" fill="#303030"/>
    <path id="Trazado_700378" data-name="Trazado 700378" d="M75.433,113.237H67.24V103.1h8.193v2.569L77.27,104.1v-1.92a.918.918,0,0,0-.919-.918H66.321a.918.918,0,0,0-.918.918v11.973a.918.918,0,0,0,.918.918h10.03a.918.918,0,0,0,.919-.918v-7.275l-1.837,1.566Z" transform="translate(-23.591 -36.525)" fill="#303030"/>
    <path id="Trazado_700379" data-name="Trazado 700379" d="M125.86,101.127H95.143c-.326,0-.59.411-.59.917s.264.918.59.918H125.86c.326,0,.591-.411.591-.918s-.265-.917-.591-.917" transform="translate(-34.105 -36.476)" fill="#303030"/>
    <path id="Trazado_700380" data-name="Trazado 700380" d="M125.86,117.122H95.143c-.326,0-.59.411-.59.917s.264.918.59.918H125.86c.326,0,.591-.411.591-.918s-.265-.917-.591-.917" transform="translate(-34.105 -42.246)" fill="#303030"/>
    <path id="Trazado_700381" data-name="Trazado 700381" d="M130.308,108.532H106.942c-.248,0-.449.411-.449.917s.2.918.449.918h23.365c.248,0,.449-.411.449-.918s-.2-.917-.449-.917" transform="translate(-38.412 -39.147)" fill="#303030"/>
    <path id="Trazado_700382" data-name="Trazado 700382" d="M104.2,75.669v3.682a.918.918,0,0,0,1.837,0v-9.2a.918.918,0,0,0-1.837,0v5.519Z" transform="translate(-37.584 -24.972)" fill="#303030"/>
    <path id="Trazado_700383" data-name="Trazado 700383" d="M150.518,75.669v3.682a.918.918,0,0,0,1.837,0v-9.2a.918.918,0,0,0-1.837,0v5.519Z" transform="translate(-54.292 -24.972)" fill="#303030"/>
    <path id="Trazado_700384" data-name="Trazado 700384" d="M135.073,75.669v3.682a.918.918,0,0,0,1.837,0v-9.2a.918.918,0,0,0-1.837,0v5.519Z" transform="translate(-48.721 -24.972)" fill="#303030"/>
    <path id="Trazado_700385" data-name="Trazado 700385" d="M119.636,75.669v3.682a.918.918,0,0,0,1.837,0v-9.2a.918.918,0,0,0-1.837,0v5.519Z" transform="translate(-43.152 -24.972)" fill="#303030"/>
    <path id="Trazado_700386" data-name="Trazado 700386" d="M57.879,75.669v3.682a.918.918,0,0,0,1.837,0v-9.2a.918.918,0,0,0-1.837,0v5.519Z" transform="translate(-20.877 -24.972)" fill="#303030"/>
    <path id="Trazado_700387" data-name="Trazado 700387" d="M88.76,75.669v3.682a.918.918,0,0,0,1.837,0v-9.2a.918.918,0,0,0-1.837,0v5.519Z" transform="translate(-32.016 -24.972)" fill="#303030"/>
    <path id="Trazado_700388" data-name="Trazado 700388" d="M73.321,75.669v3.682a.918.918,0,0,0,1.837,0v-9.2a.918.918,0,0,0-1.837,0v5.519Z" transform="translate(-26.447 -24.972)" fill="#303030"/>
    <path id="Trazado_700389" data-name="Trazado 700389" d="M82.827,101.162l-3.3,2.812-1.837,1.567-2.98,2.541-1.157-1.474a1.057,1.057,0,1,0-1.662,1.3l2.516,3.206,3.283-2.8,1.837-1.566L84.2,102.77a1.057,1.057,0,1,0-1.372-1.608" transform="translate(-25.851 -36.398)" fill="#303030"/>
    <path id="Trazado_700390" data-name="Trazado 700390" d="M75.433,143.512H67.24V133.373h8.193v2.569l1.837-1.566v-1.92a.918.918,0,0,0-.919-.918H66.321a.918.918,0,0,0-.918.918V144.43a.918.918,0,0,0,.918.918h10.03a.918.918,0,0,0,.919-.918v-7.275l-1.837,1.566Z" transform="translate(-23.591 -47.445)" fill="#303030"/>
    <path id="Trazado_700391" data-name="Trazado 700391" d="M125.86,131.4H95.143c-.326,0-.59.411-.59.917s.264.918.59.918H125.86c.326,0,.591-.411.591-.918s-.265-.917-.591-.917" transform="translate(-34.105 -47.396)" fill="#303030"/>
    <path id="Trazado_700392" data-name="Trazado 700392" d="M125.86,147.4H95.143c-.326,0-.59.412-.59.918s.264.918.59.918H125.86c.326,0,.591-.411.591-.918s-.265-.918-.591-.918" transform="translate(-34.105 -53.166)" fill="#303030"/>
    <path id="Trazado_700393" data-name="Trazado 700393" d="M130.308,138.807H106.942c-.248,0-.449.412-.449.918s.2.917.449.917h23.365c.248,0,.449-.41.449-.917s-.2-.918-.449-.918" transform="translate(-38.412 -50.067)" fill="#303030"/>
    <path id="Trazado_700394" data-name="Trazado 700394" d="M82.827,131.437l-3.3,2.812-1.837,1.566-2.98,2.541-1.156-1.473a1.057,1.057,0,1,0-1.662,1.3l2.516,3.205,3.283-2.8,1.837-1.566,4.669-3.982a1.057,1.057,0,0,0-1.372-1.608" transform="translate(-25.851 -47.318)" fill="#303030"/>
    <path id="Trazado_700395" data-name="Trazado 700395" d="M75.433,174.394H67.24V164.256h8.193v2.569l1.837-1.567v-1.92a.918.918,0,0,0-.919-.917H66.321a.918.918,0,0,0-.918.917v11.974a.918.918,0,0,0,.918.917h10.03a.918.918,0,0,0,.919-.917v-7.276L75.433,169.6Z" transform="translate(-23.591 -58.585)" fill="#303030"/>
    <path id="Trazado_700396" data-name="Trazado 700396" d="M125.86,162.284H95.143c-.326,0-.59.411-.59.917s.264.918.59.918H125.86c.326,0,.591-.411.591-.918s-.265-.917-.591-.917" transform="translate(-34.105 -58.535)" fill="#303030"/>
    <path id="Trazado_700397" data-name="Trazado 700397" d="M125.86,178.28H95.143c-.326,0-.59.411-.59.917s.264.918.59.918H125.86c.326,0,.591-.411.591-.918s-.265-.917-.591-.917" transform="translate(-34.105 -64.305)" fill="#303030"/>
    <path id="Trazado_700398" data-name="Trazado 700398" d="M130.308,169.689H106.942c-.248,0-.449.411-.449.917s.2.918.449.918h23.365c.248,0,.449-.411.449-.918s-.2-.917-.449-.917" transform="translate(-38.412 -61.206)" fill="#303030"/>
    <path id="Trazado_700399" data-name="Trazado 700399" d="M82.827,162.319l-3.3,2.812L77.694,166.7l-2.98,2.541-1.156-1.473a1.057,1.057,0,1,0-1.662,1.3l2.516,3.205,3.283-2.8,1.837-1.566,4.669-3.982a1.057,1.057,0,0,0-1.372-1.609" transform="translate(-25.851 -58.457)" fill="#303030"/>
    <path id="Trazado_700400" data-name="Trazado 700400" d="M75.433,207.15H67.24V197.011h8.193v2.569l1.837-1.566v-1.92a.918.918,0,0,0-.919-.918H66.321a.918.918,0,0,0-.918.918v11.973a.918.918,0,0,0,.918.918h10.03a.918.918,0,0,0,.919-.918v-7.275l-1.837,1.566Z" transform="translate(-23.591 -70.4)" fill="#303030"/>
    <path id="Trazado_700401" data-name="Trazado 700401" d="M125.86,195.039H95.143c-.326,0-.59.412-.59.918s.264.917.59.917H125.86c.326,0,.591-.41.591-.917s-.265-.918-.591-.918" transform="translate(-34.105 -70.35)" fill="#303030"/>
    <path id="Trazado_700402" data-name="Trazado 700402" d="M125.86,211.035H95.143c-.326,0-.59.411-.59.917s.264.918.59.918H125.86c.326,0,.591-.411.591-.918s-.265-.917-.591-.917" transform="translate(-34.105 -76.12)" fill="#303030"/>
    <path id="Trazado_700403" data-name="Trazado 700403" d="M130.308,202.445H106.942c-.248,0-.449.411-.449.917s.2.918.449.918h23.365c.248,0,.449-.411.449-.918s-.2-.917-.449-.917" transform="translate(-38.412 -73.021)" fill="#303030"/>
    <path id="Trazado_700404" data-name="Trazado 700404" d="M82.827,195.075l-3.3,2.812-1.837,1.566-2.98,2.541-1.156-1.473a1.057,1.057,0,1,0-1.662,1.3l2.516,3.205,3.283-2.8,1.837-1.566,4.669-3.982a1.057,1.057,0,0,0-1.372-1.608" transform="translate(-25.851 -70.272)" fill="#303030"/>
    <path id="Trazado_700405" data-name="Trazado 700405" d="M200.729,239.265a2.2,2.2,0,0,0-1.9,3.3,2.26,2.26,0,0,0,3,.8,2.2,2.2,0,0,0-1.1-4.1" transform="translate(-71.612 -86.302)" fill="#fff"/>
    <path id="Trazado_700406" data-name="Trazado 700406" d="M188.528,210.315l-11.451,6.649,14.44,24.563,11.354-6.587Zm6.282,23.85a3.63,3.63,0,1,1,1.33-4.955,3.63,3.63,0,0,1-1.33,4.955" transform="translate(-63.871 -75.86)" fill="#b20d0d"/>
    <path id="Trazado_700407" data-name="Trazado 700407" d="M203.074,238.845a3.633,3.633,0,1,0-1.33,4.955,3.647,3.647,0,0,0,1.33-4.955m-2.046,3.716a2.259,2.259,0,0,1-3-.8,2.2,2.2,0,1,1,3,.8" transform="translate(-70.806 -85.495)" fill="#303030"/>
    <path id="Trazado_700408" data-name="Trazado 700408" d="M179.414,210.962a.718.718,0,0,1-.62-.358l-5.343-9.253a.715.715,0,0,1,.332-1.014,21.933,21.933,0,0,0,2.137-1.074,21.333,21.333,0,0,0,1.995-1.318.727.727,0,0,1,.573-.128.709.709,0,0,1,.476.343l5.344,9.263a.715.715,0,0,1-.262.978l-4.274,2.464a.719.719,0,0,1-.357.1m-4.331-9.645,4.593,7.952,3.035-1.749-4.591-7.959c-.457.315-.947.625-1.48.939q-.759.435-1.556.817" transform="translate(-62.529 -71.348)" fill="#303030"/>
    <path id="Trazado_700409" data-name="Trazado 700409" d="M191.01,241.986a.726.726,0,0,1-.185-.024.717.717,0,0,1-.435-.333l-14.357-24.871a.716.716,0,0,1,.262-.978l11.656-6.721a.717.717,0,0,1,.977.262l14.356,24.86a.716.716,0,0,1-.262.977l-11.654,6.732a.718.718,0,0,1-.358.1m-13.38-25.325,13.641,23.632,10.416-6.017-13.641-23.622Z" transform="translate(-63.46 -75.372)" fill="#303030"/>
    <path id="Trazado_700410" data-name="Trazado 700410" d="M144.024,176.547a24.933,24.933,0,0,0,2.791-49.709c-.168-.018-.336-.035-.5-.05-.275-.025-.552-.047-.829-.063q-.538-.03-1.079-.036c-.109,0-.217-.008-.326-.008A25.069,25.069,0,0,0,119.1,151.143c0,.1-.007.2-.008.3,0,.165,0,.329,0,.494a24.93,24.93,0,0,0,24.926,24.612m-15.83-25.189a18.54,18.54,0,0,1,31.886,0,.715.715,0,0,1,0,.731,18.551,18.551,0,0,1-31.886,0,.715.715,0,0,1,0-.731" transform="translate(-42.957 -45.693)" fill="#ffdeb8"/>
    <path id="Trazado_700411" data-name="Trazado 700411" d="M164.046,154.363q.361.215.7.464l.162.121a8.587,8.587,0,0,1,.664.573c.024.024.051.045.076.07a8.229,8.229,0,0,1,.628.7c.068.084.128.172.193.258.12.161.236.326.344.5.074.116.146.233.215.352.092.162.176.329.257.5.045.095.1.182.143.277.007.016.008.033.014.05a8.242,8.242,0,0,1-4.8,11.008,17.217,17.217,0,0,0,11.69-7.759,17.214,17.214,0,0,0-11.7-7.769,8.1,8.1,0,0,1,1.284.588c.042.024.083.051.125.076" transform="translate(-58.663 -55.439)" fill="#fff"/>
    <path id="Trazado_700412" data-name="Trazado 700412" d="M156.093,160.484a2.3,2.3,0,1,1-.667-.508,4.346,4.346,0,0,1-1.129-4.8,6.863,6.863,0,1,0,6.724,5.114,4.376,4.376,0,0,1-4.927.2" transform="translate(-53.232 -55.97)" fill="#b0fffd"/>
    <path id="Trazado_700413" data-name="Trazado 700413" d="M163.042,156.7c-.057-.045-.116-.088-.175-.13q-.209-.153-.43-.291c-.059-.036-.118-.074-.178-.109-.149-.087-.3-.166-.459-.242-.066-.031-.13-.065-.2-.094-.15-.067-.3-.125-.459-.181-.078-.028-.155-.061-.234-.086-.129-.042-.263-.072-.394-.105-.1-.026-.2-.056-.3-.077a2.981,2.981,0,0,0,4.691,3.571c-.018-.035-.033-.072-.051-.106-.036-.068-.079-.133-.118-.2a6.879,6.879,0,0,0-.385-.588c-.085-.116-.167-.233-.26-.343-.056-.067-.118-.129-.176-.194-.105-.116-.211-.233-.323-.342-.056-.055-.116-.106-.175-.159-.124-.112-.25-.221-.381-.324" transform="translate(-57.659 -56.046)" fill="#d9eaef"/>
    <path id="Trazado_700414" data-name="Trazado 700414" d="M147.3,169.228A8.245,8.245,0,0,1,147.3,153.7a17.215,17.215,0,0,0-11.7,7.77,17.216,17.216,0,0,0,11.7,7.759" transform="translate(-48.912 -55.439)" fill="#fff"/>
    <path id="Trazado_700415" data-name="Trazado 700415" d="M156.964,165.379a.837.837,0,1,0,.837-.841.836.836,0,0,0-.837.841" transform="translate(-56.617 -59.348)" fill="#d9eaef"/>
    <path id="Trazado_700416" data-name="Trazado 700416" d="M166.254,137.674a26.46,26.46,0,0,0-36.157-9.683,26.464,26.464,0,0,0-9.69,36.154,26.47,26.47,0,1,0,45.847-26.471m-10.4,34.926a25.049,25.049,0,0,1-37.562-21.473c0-.165-.006-.329,0-.494,0-.1.005-.2.008-.3a25.225,25.225,0,0,1,.853-5.9,25.054,25.054,0,0,1,24.122-18.558h.04c.1,0,.191.008.286.01.36,0,.72.016,1.078.036.277.015.554.039.829.063.168.015.336.032.5.05a25.029,25.029,0,0,1,9.846,46.57" transform="translate(-42.147 -44.885)" fill="#303030"/>
    <path id="Trazado_700417" data-name="Trazado 700417" d="M149.219,169.957a18.639,18.639,0,0,0,15.939-9.067.713.713,0,0,0,0-.731,18.541,18.541,0,0,0-31.886,0,.715.715,0,0,0,0,.731,18.643,18.643,0,0,0,15.947,9.067m-2.791-17.2a7.919,7.919,0,0,1,3.839-.421.768.768,0,0,1,.086,0c.082.012.159.036.24.05q.3.051.6.124c.107.027.215.052.321.083.169.049.333.105.5.164a17.216,17.216,0,0,1,11.7,7.77,17.222,17.222,0,0,1-11.69,7.759,8.123,8.123,0,0,1-5.594,0,17.216,17.216,0,0,1-11.7-7.759,17.213,17.213,0,0,1,11.7-7.77" transform="translate(-48.035 -54.496)" fill="#303030"/>
    <path id="Trazado_700418" data-name="Trazado 700418" d="M166.9,159.568a6.882,6.882,0,0,1,.385.588,6.932,6.932,0,0,0-.385-.588" transform="translate(-60.199 -57.556)" fill="#303030"/>
    <path id="Trazado_700419" data-name="Trazado 700419" d="M167.742,160.9c-.018-.035-.04-.066-.059-.1.019.035.033.072.051.106l.008-.006" transform="translate(-60.483 -58)" fill="#303030"/>
    <path id="Trazado_700420" data-name="Trazado 700420" d="M165.611,158.1c-.057-.055-.116-.106-.175-.159.058.052.118.1.175.159" transform="translate(-59.672 -56.97)" fill="#303030"/>
    <path id="Trazado_700421" data-name="Trazado 700421" d="M169.758,159.977c-.081-.169-.165-.336-.257-.5.092.162.175.329.257.5" transform="translate(-61.139 -57.524)" fill="#303030"/>
    <path id="Trazado_700422" data-name="Trazado 700422" d="M166.215,158.728c.058.065.12.127.176.194-.056-.067-.118-.128-.176-.194" transform="translate(-59.953 -57.253)" fill="#303030"/>
    <path id="Trazado_700423" data-name="Trazado 700423" d="M164.567,157.234c.059.043.118.086.175.13-.058-.045-.116-.088-.175-.13" transform="translate(-59.359 -56.714)" fill="#303030"/>
    <path id="Trazado_700424" data-name="Trazado 700424" d="M162.591,156.083c.066.029.13.063.2.095-.065-.032-.129-.065-.2-.095" transform="translate(-58.646 -56.299)" fill="#303030"/>
    <path id="Trazado_700425" data-name="Trazado 700425" d="M161.507,155.666c.079.026.156.058.234.086-.078-.029-.155-.061-.234-.086" transform="translate(-58.255 -56.148)" fill="#303030"/>
    <path id="Trazado_700426" data-name="Trazado 700426" d="M163.639,154.194a8.238,8.238,0,0,0-1.283-.588c-.164-.059-.329-.116-.5-.165a8.3,8.3,0,0,1,1.78.753" transform="translate(-58.382 -55.346)" fill="#303030"/>
    <path id="Trazado_700427" data-name="Trazado 700427" d="M163.616,156.61c.06.035.12.072.178.109-.059-.037-.118-.074-.178-.109" transform="translate(-59.016 -56.489)" fill="#303030"/>
    <path id="Trazado_700428" data-name="Trazado 700428" d="M160.425,155.376v0c.1.02.2.051.3.077-.1-.026-.2-.059-.3-.08" transform="translate(-57.865 -56.044)" fill="#303030"/>
    <path id="Trazado_700429" data-name="Trazado 700429" d="M167.342,156.657a8.466,8.466,0,0,1,.629.7,8.241,8.241,0,0,0-.629-.7" transform="translate(-60.36 -56.506)" fill="#303030"/>
    <path id="Trazado_700430" data-name="Trazado 700430" d="M166.847,156.226a8.335,8.335,0,0,0-.664-.573,8.206,8.206,0,0,1,.664.573" transform="translate(-59.942 -56.144)" fill="#303030"/>
    <path id="Trazado_700431" data-name="Trazado 700431" d="M168.971,158.648c-.108-.17-.224-.334-.344-.5q.18.242.344.5" transform="translate(-60.823 -57.045)" fill="#303030"/>
    <path id="Trazado_700432" data-name="Trazado 700432" d="M165.538,155.2a8.344,8.344,0,0,0-.7-.464c.24.143.472.3.7.464" transform="translate(-59.458 -55.814)" fill="#303030"/>
    <path id="Trazado_700433" data-name="Trazado 700433" d="M145.344,161.19a8.262,8.262,0,1,0,15.858-3.25.713.713,0,0,1-.1.671,4.427,4.427,0,0,1-.888.866,6.828,6.828,0,1,1-6.724-5.114,4.37,4.37,0,0,1,.584-1.086.71.71,0,0,1,.585-.278,8.271,8.271,0,0,0-9.313,8.191" transform="translate(-52.425 -55.159)" fill="#303030"/>
    <path id="Trazado_700434" data-name="Trazado 700434" d="M160.423,153.118c.2.035.4.075.6.124-.2-.049-.4-.09-.6-.124" transform="translate(-57.864 -55.229)" fill="#303030"/>
    <path id="Trazado_700435" data-name="Trazado 700435" d="M154.726,164.571a2.267,2.267,0,1,0,3.944-1.516,4.424,4.424,0,0,1-.668-.508,2.234,2.234,0,0,0-1.008-.248,2.273,2.273,0,0,0-2.268,2.272m3.1,0a.837.837,0,1,1-.837-.841.835.835,0,0,1,.837.841" transform="translate(-55.809 -58.541)" fill="#303030"/>
    <path id="Trazado_700436" data-name="Trazado 700436" d="M158.5,153.317a4.359,4.359,0,0,0-.584,1.086,4.411,4.411,0,0,0,4.115,5.976,4.443,4.443,0,0,0,3.5-1.728.708.708,0,0,0,.1-.671c-.006-.016-.007-.033-.014-.049-.042-.1-.1-.183-.143-.277-.082-.169-.165-.336-.257-.5-.068-.12-.141-.237-.214-.353q-.164-.255-.345-.5c-.064-.086-.125-.175-.192-.258a8.455,8.455,0,0,0-.629-.7c-.025-.024-.052-.046-.076-.07a8.431,8.431,0,0,0-.664-.573c-.054-.042-.107-.081-.162-.121a8.192,8.192,0,0,0-.7-.464c-.042-.026-.083-.052-.125-.077a8.294,8.294,0,0,0-1.78-.752c-.106-.031-.214-.056-.321-.083-.2-.049-.4-.09-.6-.124-.081-.013-.159-.038-.241-.05a.76.76,0,0,0-.086,0,.71.71,0,0,0-.585.278m4.29,3.016c.113.109.218.226.324.342.059.065.12.127.176.194.091.111.174.228.259.343a6.925,6.925,0,0,1,.385.588c.04.067.082.132.118.2.019.034.042.065.059.1l-.008.006a2.944,2.944,0,0,1-2.073.842,2.984,2.984,0,0,1-2.619-4.412v0c.1.02.2.054.3.079.132.034.265.064.394.106.079.026.156.058.234.086.155.056.309.114.459.181.066.029.131.063.2.095.156.075.31.155.46.242.06.035.119.072.178.109q.22.137.429.291c.059.043.118.086.174.13.132.1.257.212.381.323.058.052.118.1.175.159" transform="translate(-56.852 -55.2)" fill="#303030"/>
    <path id="Trazado_700437" data-name="Trazado 700437" d="M70.451,55.038a4.785,4.785,0,1,1,4.785-4.785,4.791,4.791,0,0,1-4.785,4.785m0-7.1a2.316,2.316,0,1,0,2.316,2.316,2.318,2.318,0,0,0-2.316-2.316" transform="translate(-23.686 -16.4)" fill="#303030"/>
    <path id="Trazado_700438" data-name="Trazado 700438" d="M32.681,248.447a4.265,4.265,0,1,1,4.265-4.265,4.27,4.27,0,0,1-4.265,4.265m0-6.061a1.8,1.8,0,1,0,1.8,1.8,1.8,1.8,0,0,0-1.8-1.8" transform="translate(-10.25 -86.538)" fill="#303030"/>
    <path id="Trazado_700439" data-name="Trazado 700439" d="M222.7,237.4a4.265,4.265,0,1,1,4.265-4.265A4.27,4.27,0,0,1,222.7,237.4m0-6.061a1.8,1.8,0,1,0,1.8,1.8,1.8,1.8,0,0,0-1.8-1.8" transform="translate(-78.79 -82.551)" fill="#303030"/>
    <path id="Trazado_700440" data-name="Trazado 700440" d="M24.7,131.709a2,2,0,1,1-2-2,2,2,0,0,1,2,2" transform="translate(-7.465 -46.786)" fill="#303030"/>
    <path id="Trazado_700441" data-name="Trazado 700441" d="M206.285,75.3a2,2,0,1,1-2-2,2,2,0,0,1,2,2" transform="translate(-72.964 -26.44)" fill="#303030"/>
  </g>
</svg>
