<svg xmlns="http://www.w3.org/2000/svg" width="181" height="181" viewBox="0 0 181 181">
  <g id="Grupo_992569" data-name="Grupo 992569" transform="translate(-404 -1453)">
    <circle id="Elipse_5684" data-name="Elipse 5684" cx="90.5" cy="90.5" r="90.5" transform="translate(404 1453)" fill="#abffff"/>
    <g id="Grupo_992568" data-name="Grupo 992568" transform="translate(388.641 1449.719)">
      <rect id="Rectángulo_349526" data-name="Rectángulo 349526" width="32.953" height="50.341" transform="translate(99.833 101.565)" fill="#ffb400"/>
      <rect id="Rectángulo_349527" data-name="Rectángulo 349527" width="11.586" height="26.705" transform="translate(157.155 123.947)" fill="#a00011" opacity="0.6" style="isolation: isolate"/>
      <path id="Trazado_706372" data-name="Trazado 706372" d="M118.274,85.512h17.255V76.594s15.582-4.284,17.62,8.918a85,85,0,0,1,0,24.787h26.216l-1.58-42.64L174.1,64.745h-51.86S116.168,65.465,118.274,85.512Z" transform="translate(-17.997 -10.051)" fill="#ffb400" opacity="0.35" style="isolation: isolate"/>
      <rect id="Rectángulo_349528" data-name="Rectángulo 349528" width="54.452" height="13.608" transform="translate(41.03 110.34)" fill="#a00011" opacity="0.6" style="isolation: isolate"/>
      <rect id="Rectángulo_349529" data-name="Rectángulo 349529" width="10.525" height="30.788" transform="translate(41.03 121.122)" fill="#a00011" opacity="0.6" style="isolation: isolate"/>
      <path id="Trazado_706373" data-name="Trazado 706373" d="M78.159,80.064h24.134L97.44,86.931H81.377Z" transform="translate(-9.011 -13.521)" fill="#772d0e"/>
      <path id="Trazado_706374" data-name="Trazado 706374" d="M53.787,138.436c0,5.84,0,11.453,0,17.067,0,2.194-.009,4.389,0,6.583.009,1.532-.6,2.655-2.235,2.631s-2.167-1.185-2.165-2.7q.021-11.191,0-22.382c0-.288-.039-.575-.072-1.029h-6.5v4.728c0,6.071-.016,12.143.01,18.213.007,1.593-.193,3.13-2.141,3.163-2.1.036-2.273-1.579-2.271-3.247.017-15.8.114-31.6-.039-47.4-.063-6.5,2.219-11.338,8.323-14.263-.588-2.1-1.084-4.215-1.8-6.249a2.907,2.907,0,0,0-1.614-1.456c-3.132-1.168-4.93-3.5-4.852-6.531a6.6,6.6,0,0,1,12.065-3.478c1.687,2.531,1.4,5.53-.584,8.133a4.162,4.162,0,0,0-.575,2.454,21.982,21.982,0,0,0,.609,2.54c.415,2.82,1.75,4.472,5.231,3.876.952-2.329,2.039-4.926,3.051-7.55a1.373,1.373,0,0,0-.33-1.109c-2.16-2.486-2.651-5.208-.948-8.068s4.423-3.574,7.681-2.959c.311-2.059,1.663-2.5,3.494-2.44,3,.09,6,.05,9,.014,1.56-.019,2.914.349,2.942,2.143.03,1.941-1.4,2.3-3.038,2.267-2.038-.039-4.077-.009-6.149-.009,1.042,4.107,1.38,4.387,5.165,4.387h7.9c4.183,0,4.183,0,5.482-4.4-.988,0-2.053.282-2.818-.076-.837-.393-1.927-1.376-1.928-2.1A2.869,2.869,0,0,1,86.582,77.1a37.587,37.587,0,0,1,6.788-.07c1.741.1,2.468,1.459,1.859,3.142a6.4,6.4,0,0,1-.661,1.378c-3.041,4.559-3.854,9.562-3.538,14.983.3,5.236.066,10.5.066,15.6h41.557c.053-.786.132-1.416.132-2.045q.014-10.643,0-21.285c-.011-4.816-2.636-7.407-7.484-7.427-2.488-.011-4.974,0-7.461,0-1.548,0-2.618-.671-2.555-2.307.057-1.507,1.118-2.092,2.559-2.085,3,.014,6-.092,9,.036A10.849,10.849,0,0,1,137.168,88c.05,7.168.012,14.336.013,21.5v2.476h21.944v-4.037c0-4.827.019-9.655-.01-14.482-.01-1.666.164-3.283,2.271-3.246,1.952.033,2.147,1.569,2.14,3.161-.026,6.139-.01,12.279-.01,17.812,2.035,1.4,4.192,2.235,5.244,3.806,1.031,1.539,1.271,3.828,1.286,5.793.1,13.311.053,26.624.053,39.936,0,.512,0,1.024,0,1.536-.015,1.454-.678,2.455-2.184,2.461s-2.194-.985-2.2-2.444q-.014-6.144-.006-12.288c0-3.782,0-7.565,0-11.449h-6.581v2.331q0,10.643,0,21.285c0,1.548-.67,2.62-2.3,2.561-1.506-.054-2.107-1.116-2.088-2.556.005-.439,0-.878,0-1.316V138.578H134.987v14.7c0,2.853-.023,5.705.009,8.557.018,1.578-.419,2.882-2.209,2.881s-2.2-1.31-2.2-2.887q.023-21.613.008-43.228V116.67H114.478c1.179,2.427,1.179,2.427-3.852,6.443,1.107.769,2.163,1.475,3.19,2.22,1.887,1.368,1.918,2.847.067,4.2-.995.73-2.044,1.388-3.37,2.282,1.224.847,2.283,1.549,3.31,2.3,1.885,1.375,1.908,2.843.053,4.2-.994.729-2.04,1.388-3.369,2.286,1.232.847,2.3,1.543,3.326,2.292,1.876,1.367,1.884,2.839.038,4.209-.527.391-1.092.73-1.634,1.1-.474.326-.939.667-1.691,1.2,1.2.822,2.266,1.518,3.294,2.269,1.872,1.365,1.881,2.847.022,4.206-.994.726-2.034,1.388-3.338,2.274,1.293.891,2.41,1.644,3.509,2.423,1.173.83,1.651,1.907.787,3.188s-2.073,1.245-3.259.473c-2.082-1.354-4.167-2.71-6.171-4.173-1.562-1.14-1.518-2.582,0-3.8.569-.455,1.208-.819,1.805-1.24.517-.364,1.019-.748,1.732-1.274-1.3-.9-2.461-1.626-3.536-2.459-1.532-1.186-1.533-2.609,0-3.8,1.074-.834,2.235-1.557,3.585-2.486-1.35-.932-2.507-1.659-3.583-2.491-1.533-1.187-1.537-2.611-.005-3.8,1.075-.835,2.236-1.558,3.6-2.494-1.352-.93-2.512-1.651-3.587-2.484-1.538-1.19-1.543-2.609-.012-3.8,1.075-.835,2.238-1.557,3.609-2.5-1.3-.884-2.388-1.576-3.424-2.341-1.757-1.3-1.764-2.771-.017-4.072,1.035-.77,2.126-1.463,3.221-2.211-2.375-3.093-5.564-2.266-8.9-2.306v2.33q0,21.066,0,42.131c0,.657.217,1.488-.1,1.933-.526.742-1.409,1.71-2.127,1.7s-1.568-1.008-2.075-1.763c-.308-.459-.087-1.279-.087-1.938,0-11.771,0-23.542,0-35.482H42.955v8.608H45.37q20.957,0,41.912,0c.658,0,1.486-.223,1.935.09.748.518,1.728,1.388,1.726,2.106s-.985,1.586-1.735,2.1c-.452.311-1.278.09-1.936.09C76.23,138.437,65.187,138.436,53.787,138.436Zm111.821-13.167c-7.856,0-15.524-.013-23.191.01-1.545.005-2.925-.308-2.985-2.1-.066-1.937,1.337-2.317,2.99-2.31,6.947.025,13.895.011,20.842.01h2.327c.261-3.824-.253-4.386-3.772-4.387q-12.177,0-24.353,0h-2.314V133.93h30.456ZM59.121,101.184c2.978,2.331,5.127,5.222,5.437,8.951.3,3.542.063,7.127.063,10.693a14.941,14.941,0,0,0,4.525-9.847q0-10.413-.005-20.827a8.742,8.742,0,0,0-.082-1.125c-1.891,1.1-3.775,2.172-5.636,3.284a2.483,2.483,0,0,0-1.039.934C61.266,95.85,60.221,98.484,59.121,101.184ZM60.255,112a8.651,8.651,0,0,0-9.059-8.662A8.4,8.4,0,0,0,43.056,112Zm.018,4.6H42.951v4.127H60.272Zm26.6-.112H75.97c-3.626,0-4.252.534-5.007,4.235h15.65C86.7,119.276,86.784,117.978,86.877,116.49Zm-13.24-22.1H86.526V90.269H73.637Zm12.979,4.723H73.666v4.065H86.617Zm-.015,8.716H73.682v4.113H86.6Zm8.8,8.754c-3.913-.224-4.655.569-4.067,4.154H95.4ZM44.55,88.269l.924-.032c.567-.8,1.484-1.549,1.62-2.417A1.78,1.78,0,0,0,44.987,83.7a2.978,2.978,0,0,0-2,2C42.941,86.528,43.981,87.41,44.55,88.269Zm18.15.538c.937-1.395,1.834-2.163,1.95-3.034a2.09,2.09,0,1,0-4.166.176C60.674,86.808,61.638,87.5,62.7,88.807Z" transform="translate(0 -12.808)"/>
      <path id="Trazado_706375" data-name="Trazado 706375" d="M125.915,42.154c.241-1.758-.424-4.221,2.276-4.229,2.717-.008,2.038,2.461,2.3,4.206H154.53V32.355c0-1.609.034-3.219-.008-4.827-.053-2.053.941-2.939,2.949-2.86,1.153.045,2.31.009,3.536.009.265-1.858-.406-4.317,2.315-4.308,2.6.008,2.09,2.291,2.261,4.311,1.334,0,2.683-.013,4.032,0a2.209,2.209,0,0,1,2.461,2.438q.028,8.558,0,17.115a2.211,2.211,0,0,1-2.517,2.385c-1.239.007-2.479,0-3.884,0v4.391c1.4,0,2.841-.022,4.278,0a10.925,10.925,0,0,1,10.907,10.87c.049,2.778,0,5.558.014,8.338.011,1.521-.544,2.672-2.187,2.681s-2.221-1.123-2.211-2.653c.016-2.632.036-5.266,0-7.9-.064-4.152-2.747-6.924-6.862-6.935q-21.612-.056-43.226,0a6.559,6.559,0,0,0-6.948,6.845c-.052,3.491-.01,6.983-.01,10.7,5.005,0,9.811.019,14.616-.012,1.373-.009,2.568.282,2.853,1.777a2.058,2.058,0,0,1-1.982,2.6c-.7.105-1.421.077-2.323.117V81.45c0,4.391,0,4.391-4.39,4.849,0,1.854-.028,3.738.009,5.62.031,1.563-.368,2.9-2.161,2.928s-2.273-1.247-2.246-2.838c.032-1.888.008-3.777.008-5.8-.736-.032-1.3-.069-1.861-.08a2.29,2.29,0,0,1-2.528-2.609c0-1.965,0-3.93,0-6.063-.76-.043-1.387-.08-2.015-.111a2.168,2.168,0,0,1-2.356-2.318c-.024-4.754-.178-9.518.085-14.257a9.47,9.47,0,0,1,4.876-7.891,2.924,2.924,0,0,0,1.624-3.171c-.1-1.384-.028-2.778-.019-4.168.016-2.654.542-3.2,3.143-3.309C125.107,42.215,125.457,42.184,125.915,42.154Zm35.1,4.623H134.883v4.117h26.135Zm6.561-13.421V29.2h-8.5v4.154Zm-8.571,8.695h8.565V37.986h-8.565Zm-28.756,8.918V46.781h-4.071v4.188Zm-2.215,30.675V77.526h-4.109v4.117Z" transform="translate(-17.351 0)"/>
      <path id="Trazado_706376" data-name="Trazado 706376" d="M178.457,77.01a6.581,6.581,0,1,1-6.668,6.441A6.577,6.577,0,0,1,178.457,77.01Zm2.4,7.1-.007-.917c-.785-.59-1.506-1.53-2.371-1.689a1.782,1.782,0,0,0-2.177,2.051,2.98,2.98,0,0,0,1.947,2.062C179.078,85.679,179.986,84.659,180.859,84.11Z" transform="translate(-30.218 -12.829)"/>
      <path id="Trazado_706377" data-name="Trazado 706377" d="M178.373,112.868a6.581,6.581,0,1,1,6.579-6.531A6.609,6.609,0,0,1,178.373,112.868Zm2.5-6.125-.032-.924c-.8-.567-1.549-1.484-2.417-1.619a1.781,1.781,0,0,0-2.122,2.107,2.98,2.98,0,0,0,2,2.006C179.134,108.354,180.016,107.314,180.875,106.744Z" transform="translate(-30.218 -17.97)"/>
      <path id="Trazado_706378" data-name="Trazado 706378" d="M193.947,136.856v8.661H163.491V128.078H165.8q12.177,0,24.353,0c3.519,0,4.033.562,3.772,4.387H191.6c-6.948,0-13.9.015-20.842-.01-1.652-.006-3.055.374-2.99,2.31.06,1.794,1.44,2.107,2.985,2.1C178.424,136.843,186.091,136.856,193.947,136.856Z" transform="translate(-28.338 -24.395)" fill="#a00011" opacity="0.6" style="isolation: isolate"/>
      <path id="Trazado_706379" data-name="Trazado 706379" d="M65.2,104.731c1.1-2.7,2.145-5.334,3.263-7.936a2.483,2.483,0,0,1,1.039-.934c1.861-1.112,3.745-2.187,5.636-3.284a8.736,8.736,0,0,1,.082,1.125q.013,10.413.005,20.827a14.941,14.941,0,0,1-4.525,9.847c0-3.566.232-7.151-.063-10.693C70.324,109.953,68.175,107.061,65.2,104.731Z" transform="translate(-6.076 -16.355)" fill="#fff"/>
      <path id="Trazado_706380" data-name="Trazado 706380" d="M61.621,119.733h-17.2a8.4,8.4,0,0,1,8.14-8.662A8.651,8.651,0,0,1,61.621,119.733Z" transform="translate(-1.366 -20.541)" fill="#3aafb7"/>
      <path id="Trazado_706381" data-name="Trazado 706381" d="M61.613,128.223v4.127H44.292v-4.127Z" transform="translate(-1.341 -24.428)" fill="#a00011"/>
      <path id="Trazado_706382" data-name="Trazado 706382" d="M96.42,128.078c-.093,1.488-.174,2.786-.265,4.235H80.506c.755-3.7,1.381-4.235,5.007-4.235Z" transform="translate(-9.543 -24.395)" fill="#772d0e" style="isolation: isolate"/>
      <path id="Trazado_706383" data-name="Trazado 706383" d="M83.963,98.3V94.179H96.852V98.3Z" transform="translate(-10.326 -16.718)" fill="#a00011"/>
      <path id="Trazado_706384" data-name="Trazado 706384" d="M96.951,105.615v4.065H84v-4.065Z" transform="translate(-10.334 -19.308)" fill="#a00011" style="isolation: isolate"/>
      <path id="Trazado_706385" data-name="Trazado 706385" d="M96.94,116.883V121H84.021v-4.113Z" transform="translate(-10.339 -21.86)" fill="#a00011"/>
      <path id="Trazado_706386" data-name="Trazado 706386" d="M110.861,128.19v4.154h-4.067C106.206,128.759,106.948,127.966,110.861,128.19Z" transform="translate(-15.456 -24.413)" fill="#3aafb7"/>
      <path id="Trazado_706387" data-name="Trazado 706387" d="M45.9,90.243c-.569-.859-1.609-1.74-1.567-2.569a2.978,2.978,0,0,1,2-2,1.78,1.78,0,0,1,2.106,2.123c-.135.869-1.053,1.616-1.62,2.417Z" transform="translate(-1.35 -14.782)" fill="#a00011"/>
      <path id="Trazado_706388" data-name="Trazado 706388" d="M69.158,90.773c-1.061-1.312-2.026-2-2.216-2.859a2.09,2.09,0,1,1,4.166-.176C70.992,88.61,70.1,89.378,69.158,90.773Z" transform="translate(-6.459 -14.773)" fill="#a00011"/>
      <path id="Trazado_706389" data-name="Trazado 706389" d="M166.845,54.51v4.117H140.711V54.51Z" transform="translate(-23.179 -7.733)" fill="#a00011" opacity="0.6" style="isolation: isolate"/>
      <path id="Trazado_706390" data-name="Trazado 706390" d="M180.492,35.943h-8.5V31.789h8.5Z" transform="translate(-30.264 -2.587)" fill="#a00011"/>
      <path id="Trazado_706391" data-name="Trazado 706391" d="M171.9,47.21V43.145h8.565V47.21Z" transform="translate(-30.243 -5.159)" fill="#a00011"/>
      <path id="Trazado_706392" data-name="Trazado 706392" d="M133.531,58.7H129.46V54.515h4.071Z" transform="translate(-20.631 -7.734)" fill="#a00011"/>
      <path id="Trazado_706393" data-name="Trazado 706393" d="M130.657,98.38h-4.109V94.263h4.109Z" transform="translate(-19.971 -16.737)" fill="#3aafb7" style="isolation: isolate"/>
      <path id="Trazado_706394" data-name="Trazado 706394" d="M182.173,85.415c-.873.549-1.781,1.569-2.608,1.507a2.98,2.98,0,0,1-1.947-2.062,1.782,1.782,0,0,1,2.177-2.051c.865.159,1.586,1.1,2.371,1.689Z" transform="translate(-31.532 -14.134)" fill="#3aafb7" opacity="0.35" style="isolation: isolate"/>
      <path id="Trazado_706395" data-name="Trazado 706395" d="M182.185,108.052c-.859.57-1.74,1.61-2.569,1.57a2.98,2.98,0,0,1-2-2.006,1.781,1.781,0,0,1,2.122-2.107c.869.135,1.616,1.052,2.417,1.619Z" transform="translate(-31.529 -19.278)" fill="#3aafb7" opacity="0.35" style="isolation: isolate"/>
    </g>
  </g>
</svg>
