<svg xmlns="http://www.w3.org/2000/svg" xmlns:xlink="http://www.w3.org/1999/xlink" width="111.988" height="116.627" viewBox="0 0 111.988 116.627">
  <defs>
    <clipPath id="clip-path">
      <rect id="Rectángulo_352938" data-name="Rectángulo 352938" width="103.391" height="103.123" fill="none"/>
    </clipPath>
  </defs>
  <g id="Grupo_992319" data-name="Grupo 992319" transform="translate(-517.001 -1295.525)">
    <path id="Trazado_705850" data-name="Trazado 705850" d="M493.308,55.543A55.543,55.543,0,1,1,437.765,0a55.543,55.543,0,0,1,55.543,55.543" transform="translate(135.681 1295.525)" fill="#ffc403"/>
    <g id="Grupo_1003011" data-name="Grupo 1003011" transform="translate(620.392 1412.153) rotate(180)">
      <g id="Grupo_1002995" data-name="Grupo 1002995" transform="translate(0 0)" clip-path="url(#clip-path)">
        <path id="Trazado_714796" data-name="Trazado 714796" d="M25.894,13.458h-.066c0-3.815.009-7.63,0-11.445A1.93,1.93,0,0,0,23.772,0Q13.14,0,2.5,0A2.269,2.269,0,0,0,.043,2.27C-.015,5.653,0,9.035.037,12.417a1.338,1.338,0,0,0,1.4,1.453c1.318.061,1.779-.349,1.788-1.75.02-2.745.032-5.493-.012-8.238-.009-.7.167-.882.874-.879q8.928.048,17.858,0c.724,0,.946.136.94.914-.04,5.459-.017,10.917-.023,16.376,0,1.471.355,3.106-.167,4.369s-1.958,2.134-2.964,3.2a1.638,1.638,0,0,1-1.312.551c-4.749-.017-9.5-.032-14.245.017-.851.009-.969-.3-.957-1.029.037-2.543.029-5.09.009-7.636-.012-1.226-.441-1.69-1.448-1.69C.51,18.084.028,18.519.02,19.8,0,22.813-.018,25.826.028,28.839.054,30.624.8,31.368,2.661,31.4c5.551.1,11.1.035,16.656.035a3.065,3.065,0,0,0,2.275-1c1.006-1.029,1.993-2.082,3.057-3.045a3.782,3.782,0,0,0,1.26-3.077c-.043-3.616-.014-7.235-.014-10.851M13.261,21.873c-1.569,0-3.137-.009-4.706,0-1.027.009-1.6.516-1.632,1.4a1.44,1.44,0,0,0,1.566,1.618q4.658.035,9.314,0a1.47,1.47,0,0,0,1.574-1.523,1.554,1.554,0,0,0-1.609-1.488c-1.5-.014-3,0-4.507-.006m-.037-10.214c-1.54,0-3.077-.014-4.614,0-1.055.012-1.684.591-1.684,1.5A1.51,1.51,0,0,0,8.6,14.678q4.563.017,9.124,0a1.514,1.514,0,1,0,.009-3.016c-1.5-.014-3.008-.006-4.51,0m-.118,5.127c-1.5,0-3-.017-4.507.006-1.139.017-1.664.508-1.675,1.482-.012.995.559,1.531,1.721,1.537q4.4.022,8.812,0c1.277,0,1.949-.539,1.92-1.482-.029-1.041-.637-1.531-1.967-1.543-1.433-.012-2.869,0-4.305,0m2.7-10.2v0c-.7,0-1.4-.02-2.108,0a1.434,1.434,0,0,0-1.56,1.4,1.42,1.42,0,0,0,1.476,1.612c1.4.046,2.811.037,4.216,0a1.435,1.435,0,0,0,1.543-1.445,1.559,1.559,0,0,0-1.56-1.56c-.669-.029-1.338-.006-2.007-.006" transform="translate(63.33 63.32)" fill="#fff"/>
        <path id="Trazado_714797" data-name="Trazado 714797" d="M1.435,52.518a1.548,1.548,0,0,1-1.419-1.71c-.032-1.742-.009-3.483-.009-5.225V16.75c0-2.192.975-3.158,3.192-3.158,12.61,0,25.217-.02,37.824.029a2.118,2.118,0,0,0,2.1-1.179A25.313,25.313,0,0,1,54.2,2.482,23.721,23.721,0,0,1,62.276.2a28.7,28.7,0,0,1,5.467-.11A25.111,25.111,0,0,1,78.606,3.661,26.348,26.348,0,0,1,83.935,7.82,26.986,26.986,0,0,1,90.9,20.954a25.186,25.186,0,0,1,.4,7.327,20.574,20.574,0,0,1-.868,4.692,1,1,0,0,0,.493,1.358A14.185,14.185,0,0,1,97.309,44.34,13.922,13.922,0,0,1,94.1,55.647a13.6,13.6,0,0,1-10.8,5.225,14.238,14.238,0,0,1-9.536-3.316,15,15,0,0,1-3.948-5.179c-.231-.484-.4-.649-1.07-.542a22.385,22.385,0,0,1-6.975-.112,25.826,25.826,0,0,1-3.348-.626c-.715-.208-.952.1-.949.877.035,7.737.026,15.473.02,23.207q-.013,12.258-.04,24.513a3.143,3.143,0,0,1-2.252,3.025c-.144.055-.343-.023-.4.2H2.635a4.156,4.156,0,0,1-2.52-2.843A5.926,5.926,0,0,1,.011,99q0-20.156,0-40.315c0-1.228.392-1.773,1.427-2.007,1.225.055,1.546.381,1.58,1.629.009.268,0,.536,0,.8,0,9.98.017,19.96-.026,29.937-.006,1.009.288,1.2,1.22,1.174,2.673-.063,5.352-.02,8.025-.023l41.235-.012c.519,0,1.024.141,1.021-.761q-.043-19.49-.009-38.98a.958.958,0,0,0-.623-.972,21.8,21.8,0,0,1-4.149-2.558c-.888-.753-1.776-1.667-3.126-.845-.176.107-.461.037-.695.037-1.84,0-3.679.009-5.516,0A2.264,2.264,0,0,1,37.8,43.573q-.039-2.764,0-5.528a2.435,2.435,0,0,1,1.773-2.535,6.068,6.068,0,0,1,1.289-.164,22.4,22.4,0,0,1-1.488-6.981c-.006-.623-.231-.83-.83-.8a22.006,22.006,0,0,1-2.506-.006,1.181,1.181,0,0,0-1.191.632q-1.341,2.05-2.719,4.072A2.256,2.256,0,0,1,30.2,33.3c-3.948.006-7.892.043-11.837-.017a2.014,2.014,0,0,1-1.71-3.169A12.221,12.221,0,0,1,18,28.192c.352-.409.3-.58-.147-.767a1.357,1.357,0,0,1-.983-1.321,1.385,1.385,0,0,1,1-1.416c.36-.15.557-.288.185-.692A17.445,17.445,0,0,1,16.8,22.359c-1.076-1.5-.306-3.469,1.476-3.5,4.043-.078,8.091-.017,12.137-.017a2.023,2.023,0,0,1,1.742,1.107c.92,1.39,1.871,2.76,2.817,4.132.179.26.323.513.753.49.966-.052,1.938-.029,2.907-.012.493.012.744-.147.735-.686a18.9,18.9,0,0,1,1.211-6.22c.329-.986.063-1.067-.819-1.064q-17.808.039-35.615,0c-.9,0-1.148.2-1.145,1.13q.052,16.428.02,32.853c0,1.543-.248,1.84-1.58,1.949m50.734-36.6a1.816,1.816,0,0,1,.046,2.532,9.543,9.543,0,0,0-.626,1.3,13.635,13.635,0,0,0-1.367,4.8c1.5,0,3-.035,4.5.02.594.02.557-.447.62-.7a9.846,9.846,0,0,1,7.016-7.422A9.489,9.489,0,0,1,72.565,19a9.537,9.537,0,0,1,2.682,9.19A10.335,10.335,0,0,1,57.054,32.05a8.3,8.3,0,0,1-1.681-3.691c-.046-.262.009-.822-.631-.8-1.5.04-3,.012-4.55.012a5.767,5.767,0,0,1,.2.8,12.923,12.923,0,0,0,3.377,7.454c4.124,4.605,9.311,6,15.289,4.81a1.56,1.56,0,0,0,1.162-.917,14.1,14.1,0,0,1,7.2-6.609c.675-.28,1.543-.343,1.86-1.249a15.73,15.73,0,0,0,.842-8.6,15.112,15.112,0,0,0-6.471-9.738,13.749,13.749,0,0,0-8.671-2.451,14.893,14.893,0,0,0-7.319,2.024c-.92.568-1.874.986-2.817.012-.424-1.28-.314-1.687.836-2.373A18,18,0,0,1,78.159,13.3a18.8,18.8,0,0,1,4.069,6.315,17,17,0,0,1,1.234,6.75,15.553,15.553,0,0,1-.836,4.937c-.228.637.014.689.507.675a9.64,9.64,0,0,1,3.8.5c.45.176.479-.075.591-.4a13.537,13.537,0,0,0,.738-3.847,25.5,25.5,0,0,0-.554-7.59A23.476,23.476,0,0,0,80.05,8.39,22.832,22.832,0,0,0,69.1,3.287a22.1,22.1,0,0,0-7.731.043A23.4,23.4,0,0,0,45.127,14.838,21.719,21.719,0,0,0,42.3,24.553c1.445,0,2.912-.014,4.38.009.5.009.473-.3.533-.643a20.293,20.293,0,0,1,2.376-6.947,1.888,1.888,0,0,1,2.584-1.058M94.353,46.4c.28-6.041-5.355-11.681-11.514-11.431-6.572.268-11.425,5.188-11.3,11.6.13,6.56,4.729,11.125,11.448,11.286A11.213,11.213,0,0,0,94.353,46.4M22.7,93.217c-6.252,0-12.506.014-18.761-.017-.758,0-.969.2-.94.952.058,1.505.069,3.016,0,4.519-.046.96.254,1.263,1.237,1.26,8.426-.037,16.855-.02,25.28-.02,4.014,0,8.028-.017,12.039.014.7.006.92-.179.894-.888-.052-1.572-.066-3.149.006-4.72.037-.871-.19-1.127-1.093-1.122-6.22.043-12.443.023-18.663.023M44.666,27.569a5.616,5.616,0,0,1-1.1-.012c-1.1-.222-1.419.236-1.211,1.263.13.643.185,1.3.326,1.944a22.66,22.66,0,0,0,8.279,13.345A21.945,21.945,0,0,0,60.41,48.5a26.94,26.94,0,0,0,7.667.4c.5-.043.6-.239.585-.681a14.346,14.346,0,0,1-.035-3.636c.185-.836-.358-.828-.859-.721a14.627,14.627,0,0,1-6.782-.288c-7.12-1.871-11.673-6.41-13.394-13.642-.559-2.35-.51-2.362-2.927-2.362m13.668,0c.43,3.062,3.455,5.946,8.241,5.407a6.9,6.9,0,0,0,5.854-6.981A7.063,7.063,0,0,0,66.1,18.976c-3.754-.415-7.319,2.272-7.76,5.58q3.318,0,6.624,0c1.145,0,1.82.562,1.895,1.459.066.779-.877,1.623-1.9,1.583-2.2-.092-4.412-.029-6.624-.029M50.006,93.275v-.032c-1.234,0-2.468.029-3.7-.009-.6-.02-.819.164-.807.787q.056,2.556,0,5.113c-.014.64.222.779.81.77,2.4-.035,4.8-.046,7.206-.017.715.006.929-.271.914-.949-.029-1.635-.037-3.276.006-4.911.017-.655-.248-.779-.822-.764-1.2.035-2.4.012-3.6.012M20.239,21.839c.349.548.626.952.874,1.37a2.477,2.477,0,0,0,2.546,1.384c2.365-.138,4.744-.037,7.117-.052.239,0,.531.133.753-.17-.487-.724-.966-1.453-1.462-2.174a.857.857,0,0,0-.773-.363c-2.967.009-5.934.006-9.054.006m11.416,5.73c-3.158,0-6.1,0-9.04,0-.236,0-.464-.006-.623.211a14.855,14.855,0,0,0-1.684,2.506c3.045,0,5.983,0,8.922,0a.84.84,0,0,0,.793-.317c.508-.744,1.012-1.488,1.632-2.4M45.488,43.1a39.182,39.182,0,0,1-3.074-4.409c-.317-.539-.842-.251-1.257-.236-.369.012-.366.412-.366.718,0,1.1.02,2.209-.009,3.313-.012.5.2.626.66.62,1.266-.017,2.532-.006,4.046-.006" transform="translate(3.008 0.185)" fill="#010000"/>
        <path id="Trazado_714798" data-name="Trazado 714798" d="M0,35.932c1.332-.107,1.58-.407,1.58-1.949q0-16.428-.02-32.853C1.56.2,1.811,0,2.708,0Q20.515.048,38.323,0c.882,0,1.145.078.819,1.064a18.917,18.917,0,0,0-1.211,6.22c.009.539-.242.7-.735.689-.969-.02-1.941-.043-2.91.009-.427.023-.574-.231-.753-.49-.943-1.373-1.895-2.742-2.817-4.132a2.016,2.016,0,0,0-1.742-1.107c-4.046,0-8.091-.061-12.137.017-1.779.035-2.549,2-1.474,3.5a16.969,16.969,0,0,0,1.254,1.638c.372.4.176.542-.185.692a1.381,1.381,0,0,0-1,1.416,1.354,1.354,0,0,0,.98,1.321c.45.187.5.358.15.767a12.221,12.221,0,0,0-1.344,1.923A2.013,2.013,0,0,0,16.93,16.7c3.948.061,7.892.023,11.84.017a2.251,2.251,0,0,0,1.92-1.044q1.38-2.024,2.722-4.072a1.181,1.181,0,0,1,1.191-.632,22.008,22.008,0,0,0,2.506.006c.6-.026.822.185.828.8a22.484,22.484,0,0,0,1.491,6.981,6.069,6.069,0,0,0-1.289.164,2.436,2.436,0,0,0-1.773,2.538q-.035,2.76,0,5.525a2.264,2.264,0,0,0,2.575,2.532c1.84.009,3.679,0,5.519,0,.234,0,.519.069.692-.037,1.352-.822,2.241.092,3.129.848a22,22,0,0,0,4.147,2.555.956.956,0,0,1,.626.972q-.022,19.49.009,38.98c0,.905-.5.761-1.021.761q-20.619.009-41.235.012c-2.676,0-5.352-.04-8.025.026-.931.023-1.226-.167-1.223-1.177.046-9.977.029-19.957.029-29.937,0-.268.006-.536,0-.8C1.546,40.468,1.228,40.142,0,40.088q0-2.076,0-4.155M46.971,64.7h.006c0-1.038-.061-2.079.014-3.111A2.062,2.062,0,0,0,44.8,59.37c-2.036.063-4.08.069-6.116,0a2.3,2.3,0,0,0-2.315,2.186c-.02,2.007-.046,4.017,0,6.024a2.29,2.29,0,0,0,2.22,2.416c2.137.049,4.279.043,6.416-.014a1.946,1.946,0,0,0,1.958-2.065c.026-1.07.006-2.143.006-3.212M41.679,45.91V45.9c-1.035,0-2.07-.017-3.106,0a1.862,1.862,0,0,0-2.042,1.722,28.152,28.152,0,0,0-.012,7.154,1.844,1.844,0,0,0,1.883,1.69c2.267.078,4.539.049,6.808-.029a1.793,1.793,0,0,0,1.745-1.9q.048-3.309.006-6.621a1.855,1.855,0,0,0-1.978-2c-1.1-.04-2.2-.009-3.3-.009M46.968,37.7h-.006c0-1.136.029-2.275-.009-3.411a2.132,2.132,0,0,0-1.782-1.955c-2.232-.009-4.467.012-6.7.1a1.856,1.856,0,0,0-1.967,1.82,30.078,30.078,0,0,0,0,6.964,1.838,1.838,0,0,0,1.923,1.75c2.238.066,4.475.061,6.71-.006a1.834,1.834,0,0,0,1.822-1.946c.032-1.1.006-2.209.006-3.313M20.955,65.826q-5.666,0-11.327,0a2.727,2.727,0,0,0-.975.107,1.382,1.382,0,0,0-.842,1.71c.167.992.917,1.185,1.736,1.188q11.376.017,22.754,0c1.179,0,1.8-.522,1.8-1.468.006-1.018-.594-1.54-1.822-1.54-3.778-.009-7.552,0-11.327,0M21,52.351q-5.761,0-11.523,0c-1.295,0-1.693.415-1.658,1.649.026.862.666,1.358,1.811,1.361q6.562.009,13.126,0,4.71,0,9.418,0A1.777,1.777,0,0,0,33.8,54.8a1.61,1.61,0,0,0,.176-1.67c-.28-.681-.836-.773-1.445-.773Q26.765,52.349,21,52.351m-.026-13.487c-3.838,0-7.679-.009-11.517,0-1.24.006-1.681.484-1.635,1.681.032.859.657,1.326,1.837,1.326q7.911.009,15.825,0c2.3,0,4.608-.009,6.912,0a1.539,1.539,0,0,0,1.684-1.09c.334-1.1-.366-1.915-1.684-1.92-3.806-.014-7.613-.006-11.422-.006m-.012-13.5c-3.809,0-7.616-.006-11.425.006-1.174,0-1.7.461-1.716,1.413-.017,1.142.456,1.592,1.753,1.592q11.324.009,22.648,0c.2,0,.4-.014.6-.032a1.309,1.309,0,0,0,1.283-1.453c.029-1.084-.456-1.514-1.82-1.523-3.775-.017-7.549-.006-11.324-.006M25.69,36.552c2.269,0,4.542.014,6.811-.006,1.113-.012,1.6-.47,1.612-1.422A1.425,1.425,0,0,0,32.5,33.551q-6.761-.03-13.518,0c-1.078.006-1.739.637-1.727,1.494a1.636,1.636,0,0,0,1.825,1.508q3.3.009,6.609,0m.066-13.487c2.238,0,4.475.009,6.713-.006,1.127-.006,1.612-.433,1.635-1.373a1.427,1.427,0,0,0-1.572-1.621c-4.507-.026-9.017-.017-13.527-.009a1.752,1.752,0,0,0-1.525.73c-.681,1.027.107,2.258,1.459,2.272,2.272.023,4.545.006,6.817.006m.035,23.983V47.04c-2.272,0-4.545.006-6.82,0A1.69,1.69,0,0,0,17.29,48.2c-.236.666.222,1.191.732,1.6a1.977,1.977,0,0,0,1.341.242q4.862.009,9.726,0c1.205,0,2.408,0,3.61-.026a1.265,1.265,0,0,0,1.188-.577,1.541,1.541,0,0,0-1.277-2.408c-2.272.023-4.545.006-6.82.006m-.107,13.507v-.026c-2.2,0-4.406-.009-6.609.006a1.676,1.676,0,0,0-1.82,1.537c-.012.894.689,1.456,1.851,1.471.969.009,1.938,0,2.907,0q5.1,0,10.214-.006c.557,0,1.153.052,1.546-.476A1.636,1.636,0,0,0,34,61.389a1.24,1.24,0,0,0-1.3-.833q-3.508,0-7.01,0" transform="translate(4.441 16.771)" fill="#c8effe"/>
        <path id="Trazado_714799" data-name="Trazado 714799" d="M25.894,13.46c0,3.616-.029,7.235.014,10.851a3.773,3.773,0,0,1-1.26,3.074c-1.064.966-2.05,2.018-3.057,3.048a3.071,3.071,0,0,1-2.275,1c-5.551,0-11.1.063-16.656-.035C.8,31.37.054,30.623.028,28.841-.018,25.827,0,22.811.022,19.8c.006-1.277.487-1.716,1.756-1.716,1.006,0,1.436.464,1.448,1.69.02,2.546.032,5.09-.009,7.636-.009.73.107,1.038.957,1.029,4.746-.049,9.5-.035,14.245-.017a1.634,1.634,0,0,0,1.312-.551c1.009-1.07,2.439-1.946,2.964-3.207s.164-2.9.167-4.366c.006-5.459-.017-10.917.023-16.376.006-.779-.216-.917-.94-.914Q13.014,3.05,4.088,3c-.7,0-.882.179-.871.879.04,2.745.029,5.49.012,8.238-.012,1.4-.473,1.811-1.791,1.75a1.336,1.336,0,0,1-1.4-1.453C0,9.036-.015,5.654.042,2.271A2.269,2.269,0,0,1,2.5,0Q13.138,0,23.774,0a1.928,1.928,0,0,1,2.05,2.013c.012,3.815.006,7.63.006,11.445h.063" transform="translate(63.33 63.319)" fill="#010000"/>
        <path id="Trazado_714800" data-name="Trazado 714800" d="M6.339,0c1.5,0,3-.009,4.507,0a1.556,1.556,0,0,1,1.609,1.488,1.472,1.472,0,0,1-1.574,1.525q-4.658.03-9.314,0A1.437,1.437,0,0,1,0,1.4C.03.519.607.015,1.63.006,3.2-.006,4.771,0,6.339,0" transform="translate(70.251 85.192)" fill="#010000"/>
        <path id="Trazado_714801" data-name="Trazado 714801" d="M6.3,0c1.505,0,3.008-.012,4.513,0a1.526,1.526,0,0,1,1.644,1.462A1.53,1.53,0,0,1,10.8,3.024q-4.559.022-9.124,0A1.508,1.508,0,0,1,0,1.512,1.494,1.494,0,0,1,1.687.01C3.224-.007,4.761,0,6.3,0" transform="translate(70.256 74.972)" fill="#010000"/>
        <path id="Trazado_714802" data-name="Trazado 714802" d="M6.182.007c1.436,0,2.872-.012,4.308,0,1.326.009,1.935.5,1.964,1.543.029.94-.64,1.474-1.92,1.482q-4.4.013-8.812,0C.56,3.023-.009,2.493,0,1.492.012.517.536.03,1.675.01c1.5-.02,3,0,4.507,0" transform="translate(70.253 80.099)" fill="#010000"/>
        <path id="Trazado_714803" data-name="Trazado 714803" d="M3.67.011c.669,0,1.338-.023,2.007.006a1.559,1.559,0,0,1,1.56,1.56A1.435,1.435,0,0,1,5.694,3.022c-1.4.035-2.811.043-4.216,0A1.42,1.42,0,0,1,0,1.407a1.434,1.434,0,0,1,1.56-1.4c.7-.023,1.4,0,2.108,0Z" transform="translate(75.47 69.89)" fill="#010000"/>
        <path id="Trazado_714804" data-name="Trazado 714804" d="M4.648,2.053c.946.972,1.9.554,2.82-.012A14.856,14.856,0,0,1,14.79.017a13.743,13.743,0,0,1,8.665,2.451,15.094,15.094,0,0,1,6.474,9.738,15.81,15.81,0,0,1-.839,8.6c-.317.905-1.188.966-1.863,1.249a14.1,14.1,0,0,0-7.2,6.609,1.547,1.547,0,0,1-1.156.914c-5.981,1.191-11.165-.2-15.292-4.807A12.953,12.953,0,0,1,.2,17.322a5.3,5.3,0,0,0-.2-.8c1.548,0,3.054.026,4.55-.014.643-.017.591.539.637.8A8.278,8.278,0,0,0,6.869,21a9.869,9.869,0,0,0,7.543,3.974,9.914,9.914,0,0,0,10.646-7.84,9.536,9.536,0,0,0-2.682-9.187A9.483,9.483,0,0,0,12.172,5.4a9.855,9.855,0,0,0-7.016,7.425c-.063.257-.029.724-.62.7-1.5-.052-3-.017-4.5-.017A13.757,13.757,0,0,1,1.4,8.7a9.733,9.733,0,0,1,.629-1.3,1.814,1.814,0,0,0-.046-2.532A12.352,12.352,0,0,1,4.648,2.053" transform="translate(53.196 11.234)" fill="#fff"/>
        <path id="Trazado_714805" data-name="Trazado 714805" d="M12.541,10.136a12.352,12.352,0,0,0-2.667,2.811A1.89,1.89,0,0,0,7.287,14a20.33,20.33,0,0,0-2.373,6.947c-.063.343-.032.652-.533.646-1.468-.023-2.935-.009-4.38-.009a21.708,21.708,0,0,1,2.832-9.715,22.761,22.761,0,0,1,7.768-8.2A22.869,22.869,0,0,1,19.078.361,22.171,22.171,0,0,1,26.809.32a22.854,22.854,0,0,1,10.946,5.1,23.5,23.5,0,0,1,7.656,12.264,25.6,25.6,0,0,1,.554,7.59,13.344,13.344,0,0,1-.741,3.847c-.107.317-.138.571-.588.4a9.588,9.588,0,0,0-3.795-.5c-.5.014-.735-.037-.51-.675a15.55,15.55,0,0,0,.833-4.937,16.951,16.951,0,0,0-1.234-6.75,18.754,18.754,0,0,0-4.063-6.315,18.222,18.222,0,0,0-9.132-4.994A18,18,0,0,0,13.38,7.763c-1.151.686-1.26,1.093-.839,2.373" transform="translate(45.304 3.152)" fill="#ff0606"/>
        <path id="Trazado_714806" data-name="Trazado 714806" d="M22.814,11.439A11.213,11.213,0,0,1,11.447,22.892C4.728,22.731.129,18.166,0,11.606-.122,5.2,4.728.276,11.3.008,17.46-.243,23.094,5.395,22.814,11.439M12.529,7.924V7.912c.8,0,1.606.029,2.408-.009,1.021-.046,1.43-.493,1.453-1.5a1.5,1.5,0,0,0-1.45-1.543,6.7,6.7,0,0,0-1.2,0c-.591.066-.807-.1-.787-.75a1.712,1.712,0,0,0-1.5-1.869A1.621,1.621,0,0,0,9.977,4.106c.012.611-.179.83-.8.972C6.47,5.706,5.438,8.186,6.5,10.758a3.684,3.684,0,0,0,3.561,2.194c.9.049,1.805-.009,2.708.032a.958.958,0,0,1,1,.911.868.868,0,0,1-.623,1.009,3.32,3.32,0,0,1-.989.112c-1.436.017-2.875-.023-4.311.029-.992.037-1.367.582-1.3,1.713.052.877.568,1.2,1.393,1.165a9.618,9.618,0,0,0,1-.012c.828-.133,1.1.161,1.038,1.015-.072,1.107.407,1.574,1.4,1.606a1.443,1.443,0,0,0,1.566-1.606c-.017-.672.234-.871.845-1.041a3.622,3.622,0,0,0,2.194-1.378,4.116,4.116,0,0,0,.378-4.383A3.933,3.933,0,0,0,12.56,9.951c-.77-.014-1.54-.02-2.307,0-.706.02-1.188-.332-1.2-.989s.458-1.047,1.171-1.041c.77.006,1.537,0,2.307,0" transform="translate(74.544 35.151)" fill="#ffe8ce"/>
        <path id="Trazado_714807" data-name="Trazado 714807" d="M19.705.023c6.22,0,12.44.02,18.66-.023.905-.006,1.133.251,1.1,1.122-.072,1.569-.058,3.149-.006,4.72.023.709-.2.894-.894.888-4.014-.032-8.025-.017-12.039-.017-8.429,0-16.855-.014-25.283.02-.98.006-1.28-.3-1.234-1.257C.074,3.971.062,2.46,0,.957-.024.208.186,0,.945.006,7.2.038,13.451.023,19.705.023" transform="translate(6.005 93.379)" fill="#ffe8ce"/>
        <path id="Trazado_714808" data-name="Trazado 714808" d="M2.372.066C4.789.066,4.74.078,5.3,2.428,7.021,9.66,11.574,14.2,18.693,16.07a14.627,14.627,0,0,0,6.782.288c.5-.107,1.044-.115.859.721a14.347,14.347,0,0,0,.035,3.636c.014.441-.081.637-.585.681A27.045,27.045,0,0,1,18.117,21a21.983,21.983,0,0,1-9.452-4.4A22.653,22.653,0,0,1,.386,3.264c-.141-.643-.2-1.3-.326-1.946C-.148.294.169-.167,1.271.055a5.613,5.613,0,0,0,1.1.012" transform="translate(45.302 27.688)" fill="#ff0606"/>
        <path id="Trazado_714809" data-name="Trazado 714809" d="M0,8.635c2.212,0,4.421-.063,6.624.029,1.027.043,1.969-.8,1.9-1.583-.075-.894-.75-1.456-1.895-1.459q-3.309,0-6.624,0C.45,2.314,4.014-.37,7.768.042a7.063,7.063,0,0,1,6.327,7.019,6.9,6.9,0,0,1-5.854,6.981C3.455,14.581.43,11.7,0,8.635" transform="translate(61.342 19.119)" fill="#ff0606"/>
        <path id="Trazado_714810" data-name="Trazado 714810" d="M4.511.042c1.2,0,2.4.023,3.6-.012.574-.014.839.11.822.764C8.894,2.429,8.9,4.07,8.931,5.705c.014.678-.2.954-.914.949-2.4-.029-4.8-.017-7.206.017C.223,6.68-.014,6.541,0,5.9Q.061,3.349,0,.789C-.011.166.205-.019.808,0,2.042.039,3.276.01,4.511.01V.042" transform="translate(48.504 93.418)" fill="#ffe8ce"/>
        <path id="Trazado_714811" data-name="Trazado 714811" d="M0,.006c3.12,0,6.087,0,9.054-.006a.863.863,0,0,1,.773.363c.493.721.975,1.45,1.462,2.174-.225.3-.513.17-.753.17-2.373.014-4.752-.087-7.12.052A2.482,2.482,0,0,1,.871,1.375C.623.954.349.551,0,.006" transform="translate(23.247 22.019)" fill="#ffe8ce"/>
        <path id="Trazado_714812" data-name="Trazado 714812" d="M11.347,0c-.617.911-1.122,1.655-1.629,2.4a.842.842,0,0,1-.793.317c-2.938,0-5.877,0-8.925,0A15.029,15.029,0,0,1,1.684.211C1.843-.006,2.073,0,2.31,0c2.941,0,5.88,0,9.037,0" transform="translate(23.317 27.752)" fill="#ffe8ce"/>
        <path id="Trazado_714813" data-name="Trazado 714813" d="M4.706,4.735c-1.514,0-2.78-.012-4.046.006-.456.006-.672-.115-.66-.62C.029,3.017.009,1.912.009.808.009.5.006.1.375.09c.415-.014.94-.3,1.257.236A39.183,39.183,0,0,0,4.706,4.735" transform="translate(43.79 38.547)" fill="#ffe8ce"/>
        <path id="Trazado_714814" data-name="Trazado 714814" d="M10.628,5.339c0,1.07.023,2.142,0,3.212a1.951,1.951,0,0,1-1.958,2.065q-3.209.087-6.419.014A2.288,2.288,0,0,1,.03,8.214C-.021,6.207,0,4.2.025,2.19A2.31,2.31,0,0,1,2.34,0C4.379.073,6.42.07,8.456,0a2.062,2.062,0,0,1,2.192,2.22c-.075,1.032-.014,2.076-.014,3.114ZM5.3,3.029C3.015,3.023,3.015,3.023,3.015,5.3c0,2.347,0,2.347,2.333,2.341,2.281-.006,2.281-.006,2.281-2.29,0-2.321,0-2.321-2.327-2.327" transform="translate(40.784 76.134)" fill="#010000"/>
        <path id="Trazado_714815" data-name="Trazado 714815" d="M5.381.018c1.1,0,2.2-.032,3.3.006a1.856,1.856,0,0,1,1.978,2q.043,3.309,0,6.618a1.8,1.8,0,0,1-1.747,1.906c-2.266.075-4.542.107-6.805.029A1.849,1.849,0,0,1,.223,8.885,28.13,28.13,0,0,1,.234,1.733,1.863,1.863,0,0,1,2.276.012C3.311-.011,4.346.006,5.381.006ZM3.06,5.275c0,2.356,0,2.356,2.318,2.35,2.292-.009,2.292-.009,2.292-2.269,0-2.336,0-2.336-2.31-2.341s-2.3-.009-2.3,2.261" transform="translate(40.739 62.663)" fill="#010000"/>
        <path id="Trazado_714816" data-name="Trazado 714816" d="M10.665,5.37c0,1.1.023,2.209-.009,3.31a1.826,1.826,0,0,1-1.82,1.946c-2.235.069-4.475.072-6.71.009A1.841,1.841,0,0,1,.2,8.885a29.92,29.92,0,0,1,0-6.964A1.856,1.856,0,0,1,2.17.1C4.4.013,6.637,0,8.868,0a2.127,2.127,0,0,1,1.779,1.955c.04,1.136.012,2.275.012,3.414Zm-5.294,2.3c2.3-.006,2.3-.006,2.3-2.278V5.3c0-2.212,0-2.212-2.252-2.22C3.055,3.069,3.055,3.069,3.055,5.4c0,2.275,0,2.275,2.316,2.269" transform="translate(40.744 49.104)" fill="#010000"/>
        <path id="Trazado_714817" data-name="Trazado 714817" d="M13.18,0q5.662,0,11.327,0c1.231,0,1.831.522,1.825,1.54-.006.946-.626,1.468-1.805,1.468q-11.376.009-22.754,0C.957,3.008.2,2.812.037,1.82A1.384,1.384,0,0,1,.879.11,2.872,2.872,0,0,1,1.853,0Q7.515-.005,13.18,0" transform="translate(12.216 82.597)" fill="#010000"/>
        <path id="Trazado_714818" data-name="Trazado 714818" d="M13.18,0Q18.942,0,24.7,0a1.33,1.33,0,0,1,1.445.773,1.615,1.615,0,0,1-.173,1.67,1.782,1.782,0,0,1-1.621.571q-4.706-.009-9.418,0-6.562,0-13.126,0C.666,3.012.025,2.516,0,1.654-.035.417.363.008,1.658,0,5.5,0,9.339,0,13.18,0" transform="translate(12.264 69.123)" fill="#010000"/>
        <path id="Trazado_714819" data-name="Trazado 714819" d="M13.158,0c3.806,0,7.613-.009,11.419.006,1.318.006,2.021.816,1.684,1.92a1.537,1.537,0,0,1-1.684,1.09c-2.3-.012-4.605,0-6.909,0q-7.915,0-15.828,0C.664,3.014.035,2.546,0,1.687-.043.49.4.012,1.638.006c3.841-.012,7.679,0,11.52,0" transform="translate(12.264 55.633)" fill="#010000"/>
        <path id="Trazado_714820" data-name="Trazado 714820" d="M13.141,0C16.916,0,20.69-.008,24.465.01c1.364.006,1.848.438,1.82,1.523A1.309,1.309,0,0,1,25,2.985c-.2.017-.4.032-.6.032q-11.324,0-22.645,0c-1.3,0-1.773-.45-1.756-1.592C.015.471.543.012,1.716.007,5.525,0,9.335,0,13.141,0" transform="translate(12.266 42.131)" fill="#010000"/>
        <path id="Trazado_714821" data-name="Trazado 714821" d="M8.435,3.021c-2.2,0-4.406.006-6.609,0A1.633,1.633,0,0,1,0,1.51C-.014.653.646.022,1.727.016q6.756-.035,13.515,0A1.426,1.426,0,0,1,16.858,1.59c-.017.954-.5,1.413-1.615,1.422-2.269.023-4.539.006-6.808.009" transform="translate(21.696 50.303)" fill="#010000"/>
        <path id="Trazado_714822" data-name="Trazado 714822" d="M8.522,3.016c-2.272,0-4.542.017-6.814-.006C.356,3-.431,1.765.249.738A1.746,1.746,0,0,1,1.772.009C6.282,0,10.792-.009,15.3.017a1.429,1.429,0,0,1,1.572,1.621c-.023.94-.51,1.367-1.638,1.375-2.238.012-4.475,0-6.713,0" transform="translate(21.675 36.82)" fill="#010000"/>
        <path id="Trazado_714823" data-name="Trazado 714823" d="M8.566.012c2.272,0,4.547.017,6.82-.006A1.539,1.539,0,0,1,16.66,2.414a1.267,1.267,0,0,1-1.185.574c-1.2.029-2.408.026-3.61.029q-4.862,0-9.726,0A1.962,1.962,0,0,1,.8,2.768c-.513-.409-.972-.937-.732-1.6A1.685,1.685,0,0,1,1.746,0c2.272.009,4.547,0,6.82,0Z" transform="translate(21.665 63.808)" fill="#010000"/>
        <path id="Trazado_714824" data-name="Trazado 714824" d="M8.429.029q3.5,0,7.01,0a1.24,1.24,0,0,1,1.3.833,1.636,1.636,0,0,1-.225,1.672c-.392.528-.989.476-1.546.476q-5.108.013-10.214.006c-.969,0-1.938.009-2.907,0C.689,3-.011,2.439,0,1.545A1.676,1.676,0,0,1,1.82.008C4.023-.006,6.226,0,8.429,0V.029" transform="translate(21.696 77.298)" fill="#010000"/>
        <path id="Trazado_714825" data-name="Trazado 714825" d="M6.438,5.675c-.77,0-1.537.006-2.307,0-.712-.006-1.188.372-1.171,1.041s.5,1.009,1.2.989c.767-.023,1.537-.017,2.307,0a3.933,3.933,0,0,1,3.809,2.174A4.116,4.116,0,0,1,9.9,14.26a3.622,3.622,0,0,1-2.194,1.378c-.611.17-.862.369-.845,1.041A1.443,1.443,0,0,1,5.3,18.285c-1-.032-1.476-.5-1.4-1.606.058-.854-.21-1.148-1.038-1.015a9.615,9.615,0,0,1-1,.012c-.825.037-1.341-.288-1.393-1.165C.4,13.38.771,12.835,1.763,12.8c1.436-.052,2.875-.012,4.311-.029a3.32,3.32,0,0,0,.989-.112.868.868,0,0,0,.623-1.009.958.958,0,0,0-1-.911c-.9-.04-1.808.017-2.708-.032A3.684,3.684,0,0,1,.414,8.51C-.653,5.938.379,3.458,3.087,2.829c.62-.141.81-.36.8-.972A1.621,1.621,0,0,1,5.362,0a1.712,1.712,0,0,1,1.5,1.869c-.02.652.2.816.787.75a6.7,6.7,0,0,1,1.2,0A1.5,1.5,0,0,1,10.3,4.158c-.023,1-.433,1.45-1.453,1.5-.8.037-1.606.009-2.408.009v.012" transform="translate(80.635 37.4)" fill="#010000"/>
        <path id="Trazado_714826" data-name="Trazado 714826" d="M2.287,0C4.614.006,4.614.006,4.614,2.328c0,2.284,0,2.284-2.281,2.29C0,4.623,0,4.623,0,2.276,0-.005,0-.005,2.287,0" transform="translate(43.799 79.162)" fill="#ffe8ce"/>
        <path id="Trazado_714827" data-name="Trazado 714827" d="M0,2.262C0-.008,0-.008,2.3,0s2.31.006,2.31,2.341c0,2.261,0,2.261-2.292,2.269C0,4.618,0,4.618,0,2.262" transform="translate(43.799 65.676)" fill="#ffe8ce"/>
        <path id="Trazado_714828" data-name="Trazado 714828" d="M2.316,4.6C0,4.606,0,4.606,0,2.33,0-.005,0-.005,2.359,0c2.252.009,2.252.009,2.252,2.22v.1c0,2.272,0,2.272-2.3,2.278" transform="translate(43.799 52.178)" fill="#ffe8ce"/>
      </g>
    </g>
  </g>
</svg>
