<svg xmlns="http://www.w3.org/2000/svg" xmlns:xlink="http://www.w3.org/1999/xlink" width="111.086" height="111.086" viewBox="0 0 111.086 111.086">
  <defs>
    <clipPath id="clip-path">
      <rect id="Rectángulo_353429" data-name="Rectángulo 353429" width="89.5" height="89.589" fill="none"/>
    </clipPath>
  </defs>
  <g id="Grupo_992320" data-name="Grupo 992320" transform="translate(-638.721 -1297.403)">
    <path id="Trazado_705811" data-name="Trazado 705811" d="M836.419,60.876A55.543,55.543,0,1,1,780.876,5.333a55.543,55.543,0,0,1,55.543,55.543" transform="translate(-86.612 1292.07)" fill="#ffc403"/>
    <g id="Grupo_1017844" data-name="Grupo 1017844" transform="translate(648.219 1314.883)">
      <g id="Grupo_1017843" data-name="Grupo 1017843" transform="translate(0.002 0.019)" clip-path="url(#clip-path)">
        <path id="Trazado_715809" data-name="Trazado 715809" d="M71.357,63.591l3.8,3.872a3.416,3.416,0,0,1,.382-.522,1.286,1.286,0,0,1,1.816-.113c.028.024.054.049.079.076.272.236.52.5.775.756,3.071,3.078,6.178,6.119,9.2,9.244A7.478,7.478,0,0,1,85.632,88.61a7.353,7.353,0,0,1-8.9-1.156q-4.82-4.849-9.661-9.677c-.79-.791-.994-1.48.19-2.586l-3.851-3.781a1.274,1.274,0,0,0-.165.088,23.859,23.859,0,0,1-13.55,3.623,35.023,35.023,0,0,1-4.585-.65.866.866,0,0,0-.874.26c-1.669,1.692-3.384,3.339-5.015,5.067a3.247,3.247,0,0,1-2.729,1.155c-1.556-.084-3.12-.02-4.734-.02v.559c-.026,1.459.016,2.922-.1,4.373a4.074,4.074,0,0,1-3.565,3.64,10.007,10.007,0,0,1-1.346.093q-8.186.009-16.374,0a4.191,4.191,0,0,1-4.159-2.534,5.268,5.268,0,0,1-.421-2.053q-.059-5.665-.011-11.331a4.267,4.267,0,0,1,4.409-4.3c.105,0,.211-.006.316-.006q8.3,0,16.6,0A4.474,4.474,0,0,1,30.939,71.2a4.623,4.623,0,0,1,.817,2.767c.015,1.337,0,2.675,0,4.04.14.013.254.032.368.032,1.5,0,3.007.011,4.511-.01a.994.994,0,0,0,.627-.248c1.344-1.314,2.67-2.648,4-3.978.1-.1.186-.218.319-.375-.658-.3-1.258-.557-1.849-.839a22.372,22.372,0,0,1-9.147-7.876,2.26,2.26,0,0,0-2.193-1.148c-7.923.049-15.847.026-23.771.028A4.2,4.2,0,0,1,.434,61.039a5.2,5.2,0,0,1-.413-2.055Q-.013,31.661.009,4.345A4.272,4.272,0,0,1,4.441.018c.15-.006.3-.006.451-.006H84.73A4.473,4.473,0,0,1,88.687,1.85,4.768,4.768,0,0,1,89.5,4.667q.009,4.922,0,9.843V58.8a4.705,4.705,0,0,1-.9,3.1,4.584,4.584,0,0,1-3.773,1.687c-4.3.011-8.6,0-12.9,0Zm1.476-2.918c.2.013.312.026.428.026q5.932,0,11.863,0a1.766,1.766,0,0,0,.488-.059c.7-.206,1-.7,1-1.613V4.707c0-.136,0-.272-.01-.406a1.382,1.382,0,0,0-1.354-1.41,1.356,1.356,0,0,0-.186.009H4.453A1.382,1.382,0,0,0,2.892,4.077a1.4,1.4,0,0,0,0,.371V59.083a1.415,1.415,0,0,0,1.628,1.624q11.615,0,23.23-.007h.461c-.066-.182-.113-.319-.166-.453-.259-.659-.551-1.3-.769-1.971a.571.571,0,0,0-.653-.476h0q-9.5.02-18.991.009a1.629,1.629,0,0,1-1.854-1.368,1.649,1.649,0,0,1,0-.489V15.932h2.9V54.887h17.7a.544.544,0,0,0,.022-.122c-.017-.15-.032-.3-.06-.447a21.731,21.731,0,0,1,.151-8.513,24.548,24.548,0,0,1,3.558-8.66c.066-.1.115-.319.059-.383-.395-.449-.814-.872-1.264-1.343L14.06,51.539,11.923,49.62c.768-.823,1.491-1.585,2.2-2.359q3.839-4.192,7.673-8.39,2.927-3.191,5.875-6.363c.847-.91,1.549-.906,2.409,0,.559.588,1.1,1.2,1.63,1.81.192.222.3.19.5,0,.938-.908,1.856-1.845,2.849-2.687a22.707,22.707,0,0,1,10.261-4.99c.875-.181,1.757-.329,2.674-.5-.06-.121-.1-.214-.149-.3-1.514-2.438-3.075-4.851-4.522-7.329a1.857,1.857,0,0,0-2.151-1.159,3.045,3.045,0,0,1-.585.005H37.533c0,1.033.016,2.022-.005,3.011a14.5,14.5,0,0,1-.132,2.247,4.246,4.246,0,0,1-4.387,3.406q-8.5.025-17.006,0a4.28,4.28,0,0,1-3.175-1.273,4.583,4.583,0,0,1-1.274-3.366q-.017-5.6,0-11.2A4.931,4.931,0,0,1,11.7,9.07a4.262,4.262,0,0,1,4.416-3.264q8.458-.035,16.912,0a4.185,4.185,0,0,1,4.429,3.925,41.088,41.088,0,0,1,.074,4.194v.542h5.43a1.75,1.75,0,0,1,1.652.9c.2.351.433.686.648,1.031q2.891,4.628,5.781,9.257a.776.776,0,0,0,.7.472A21.31,21.31,0,0,1,57.1,27a.74.74,0,0,0,.829-.222q3.756-3.776,7.53-7.533c.11-.11.208-.231.391-.436H62.1v-2.9h6.744c1.3,0,1.887.593,1.888,1.91v6.73H67.82V20.891l-7.306,7.27a24.187,24.187,0,0,1,12.9,13.667,23.86,23.86,0,0,1-.584,18.845M50,72.245A21.679,21.679,0,1,0,28.87,49.45,21.666,21.666,0,0,0,50,72.245M24.5,23.14h8.479c1.167,0,1.67-.5,1.671-1.675V10.495a3.813,3.813,0,0,0-.014-.451A1.374,1.374,0,0,0,33.1,8.686H15.96A1.377,1.377,0,0,0,14.437,9.9a1.358,1.358,0,0,0,0,.323V21.465c0,1.178.5,1.675,1.67,1.674H24.5M18.723,86.718H27.2c1.167,0,1.67-.5,1.671-1.675V74.072c0-.135,0-.271-.01-.406a1.382,1.382,0,0,0-1.353-1.412,1.345,1.345,0,0,0-.186.009H10.186a1.377,1.377,0,0,0-1.522,1.215,1.346,1.346,0,0,0,0,.325V85.046c0,1.177.5,1.675,1.67,1.674h8.389M69.863,76.63c.094.1.172.192.255.277q3.457,3.465,6.916,6.925c.638.636,1.267,1.289,1.958,1.866a4.7,4.7,0,0,0,6.326-6.929c-2.535-2.63-5.14-5.193-7.711-7.787-.357-.36-.692-.741-1-1.073l-6.745,6.72M69.7,66l-3.751,3.762L69.267,73.1l3.743-3.77L69.7,66" transform="translate(-0.001 -0.013)" fill="#121211"/>
        <path id="Trazado_715810" data-name="Trazado 715810" d="M74.328,62.17a23.86,23.86,0,0,0,.584-18.845,24.188,24.188,0,0,0-12.9-13.667l7.311-7.27v3.658h2.91V19.317c0-1.321-.584-1.91-1.888-1.91H63.6V20.3h3.751c-.183.2-.281.329-.391.436q-3.766,3.762-7.53,7.527a.739.739,0,0,1-.829.222,21.31,21.31,0,0,0-5.364-.876.776.776,0,0,1-.7-.472q-2.887-4.63-5.781-9.257c-.215-.345-.444-.681-.648-1.031a1.75,1.75,0,0,0-1.652-.9c-1.788,0-3.576,0-5.429,0v-.543a41.279,41.279,0,0,0-.074-4.194,4.185,4.185,0,0,0-4.429-3.925q-8.458-.037-16.912,0A4.26,4.26,0,0,0,13.2,10.556a4.889,4.889,0,0,0-.142,1.114q-.015,5.6,0,11.2a4.584,4.584,0,0,0,1.273,3.366,4.28,4.28,0,0,0,3.175,1.273q8.5.024,17.006,0A4.246,4.246,0,0,0,38.9,24.1a14.49,14.49,0,0,0,.132-2.246c.02-.988,0-1.976,0-3.011h3.053a3.045,3.045,0,0,0,.585-.005A1.857,1.857,0,0,1,44.825,20c1.448,2.478,3.008,4.89,4.522,7.329.052.084.09.177.149.3-.917.171-1.8.32-2.674.5a22.7,22.7,0,0,0-10.261,4.991c-.994.844-1.908,1.779-2.849,2.687-.2.191-.309.223-.5,0-.531-.614-1.071-1.222-1.63-1.81a1.407,1.407,0,0,0-2.409,0q-2.95,3.171-5.876,6.363-3.848,4.2-7.678,8.4c-.709.774-1.431,1.536-2.2,2.359l2.137,1.923L30.332,36.915c.45.471.873.894,1.264,1.343.056.066.009.281-.059.383A24.533,24.533,0,0,0,27.98,47.3a21.737,21.737,0,0,0-.153,8.512c.028.148.042.3.06.447a.544.544,0,0,1-.022.122H10.17V17.428h-2.9V57.451A1.63,1.63,0,0,0,9.13,59.308q9.5,0,18.991-.009a.571.571,0,0,1,.657.47v0c.218.669.509,1.318.769,1.971.053.132.1.27.166.453h-.461L6.022,62.2A1.415,1.415,0,0,1,4.394,61.04a1.433,1.433,0,0,1,0-.459V5.944A1.382,1.382,0,0,1,5.957,4.4h80.6a1.382,1.382,0,0,1,1.531,1.215A1.35,1.35,0,0,1,88.1,5.8c.013.132.01.271.01.406v54.32c0,.918-.3,1.408-1,1.613a1.77,1.77,0,0,1-.488.059H74.755c-.116,0-.232-.014-.428-.026" transform="translate(-1.497 -1.509)" fill="#ffdbdb"/>
        <path id="Trazado_715811" data-name="Trazado 715811" d="M64.987,87.191A21.7,21.7,0,1,1,87.145,66.609,21.705,21.705,0,0,1,64.987,87.191m19.29-21.633c-.132-9.684-7.429-18.675-18.679-18.776a18.75,18.75,0,1,0,18.679,18.8v-.025" transform="translate(-14.988 -14.96)" fill="#06d1d1"/>
        <path id="Trazado_715812" data-name="Trazado 715812" d="M31.992,27.632H23.6c-1.17,0-1.67-.5-1.67-1.675V14.716a1.379,1.379,0,0,1,1.2-1.539,1.406,1.406,0,0,1,.324,0H40.593a1.379,1.379,0,0,1,1.533,1.358,3.813,3.813,0,0,1,.014.451V25.955c0,1.179-.5,1.676-1.671,1.675q-4.24,0-8.479,0m-7.149-8.7H39.22V16.087H24.842Zm14.393,2.951H24.857v2.833H39.235Z" transform="translate(-7.497 -4.505)" fill="#8d0a0a"/>
        <path id="Trazado_715813" data-name="Trazado 715813" d="M23.218,124.14H14.829c-1.17,0-1.67-.5-1.67-1.674V111.224a1.378,1.378,0,0,1,1.194-1.539,1.347,1.347,0,0,1,.326,0H31.818a1.383,1.383,0,0,1,1.53,1.217,1.463,1.463,0,0,1,.009.186c.013.132.01.271.01.406v10.971c0,1.179-.5,1.676-1.67,1.675q-4.241,0-8.479,0M30.461,112.6H16.083v2.836H30.461Zm-14.393,8.608h14.38v-2.833H16.067Z" transform="translate(-4.497 -37.434)" fill="#8d0a0a"/>
        <path id="Trazado_715814" data-name="Trazado 715814" d="M106.163,112.841l6.745-6.72c.309.329.643.713,1,1.073,2.572,2.594,5.177,5.157,7.711,7.787a4.583,4.583,0,0,1,1.156,4.473,4.628,4.628,0,0,1-7.482,2.456c-.691-.576-1.319-1.229-1.958-1.865q-3.466-3.456-6.916-6.925c-.084-.084-.162-.175-.255-.277" transform="translate(-36.301 -36.222)" fill="#8d0a0a"/>
        <path id="Trazado_715815" data-name="Trazado 715815" d="M103.961,100.182l3.314,3.334-3.743,3.77-3.322-3.341,3.751-3.762" transform="translate(-34.266 -34.195)" fill="#fff"/>
        <path id="Trazado_715816" data-name="Trazado 715816" d="M85.811,67.1A18.749,18.749,0,1,1,67.069,48.323h.063c11.253.1,18.546,9.091,18.679,18.776M52.929,74.3a2.838,2.838,0,0,0,.127.347,15.868,15.868,0,0,0,20.356,6.967,15.112,15.112,0,0,0,7.862-7.429A15.951,15.951,0,0,0,71.4,51.759c-1.185-.374-1.192-.347-2.08.544L58.236,63.423c-.991.993-1.633,1-2.574-.024-.867-.939-1.7-1.907-2.556-2.858-.111-.125-.245-.229-.387-.36A15.92,15.92,0,0,0,51.575,70.75c.141.659.15.659.844.659H69.9V74.3ZM66.267,51.228c-3.363-.514-9.924,2.974-11.95,6.417l2.607,2.914,9.345-9.332" transform="translate(-16.521 -16.501)" fill="#121211"/>
        <rect id="Rectángulo_353425" data-name="Rectángulo 353425" width="14.378" height="2.838" transform="translate(17.345 11.582)" fill="#121211"/>
        <rect id="Rectángulo_353426" data-name="Rectángulo 353426" width="14.378" height="2.835" transform="translate(17.359 17.371)" fill="#121211"/>
        <rect id="Rectángulo_353427" data-name="Rectángulo 353427" width="14.378" height="2.836" transform="translate(11.585 75.169)" fill="#121211"/>
        <rect id="Rectángulo_353428" data-name="Rectángulo 353428" width="14.378" height="2.836" transform="translate(11.57 80.941)" fill="#121211"/>
        <path id="Trazado_715817" data-name="Trazado 715817" d="M54.4,75.963H71.37V73.073H53.891c-.694,0-.7,0-.845-.659A15.93,15.93,0,0,1,54.19,61.847c.141.132.275.236.387.36.855.952,1.689,1.919,2.556,2.858.942,1.02,1.583,1.018,2.574.024q5.544-5.559,11.085-11.12c.886-.889.9-.917,2.08-.544A15.95,15.95,0,0,1,82.746,75.85a15.116,15.116,0,0,1-7.863,7.427,15.868,15.868,0,0,1-20.356-6.968,2.694,2.694,0,0,1-.127-.347" transform="translate(-17.993 -18.164)" fill="#ffe1c3"/>
        <path id="Trazado_715818" data-name="Trazado 715818" d="M69.384,52.706,60.04,62.038l-2.607-2.914c2.026-3.444,8.587-6.931,11.95-6.417" transform="translate(-19.639 -17.979)" fill="#ffe1c3"/>
      </g>
    </g>
  </g>
</svg>
