<svg xmlns="http://www.w3.org/2000/svg" xmlns:xlink="http://www.w3.org/1999/xlink" width="167.536" height="166.935" viewBox="0 0 167.536 166.935">
  <defs>
    <clipPath id="clip-path">
      <rect id="Rectángulo_352952" data-name="Rectángulo 352952" width="167.536" height="166.935" fill="none"/>
    </clipPath>
  </defs>
  <g id="Grupo_1003012" data-name="Grupo 1003012" transform="translate(167.536 166.935) rotate(180)">
    <g id="Grupo_1002997" data-name="Grupo 1002997" transform="translate(0 0)" clip-path="url(#clip-path)">
      <path id="Trazado_714829" data-name="Trazado 714829" d="M103.957,15.687A52.113,52.113,0,0,1,105.3,8.619,11.714,11.714,0,0,1,115.188.357,24.521,24.521,0,0,1,118.84.034c10.2-.019,20.388.072,30.58-.034,5.534-.058,11,4.73,12.126,9.816a12.207,12.207,0,0,1,.322,2.671c.019,28.751.077,57.5-.038,86.253-.024,5.514-2.348,10.437-5.6,14.84a28.316,28.316,0,0,1-16.216,10.692,6.9,6.9,0,0,1-2.165.4c-1.838-.149-2.069.789-2.031,2.334a31.107,31.107,0,0,1-.346,6.063,6.12,6.12,0,0,1-1.694,2.95c-4.388,4.5-8.844,8.945-13.319,13.367-3.416,3.378-6.881,6.713-10.355,10.033a7.81,7.81,0,0,1-5.635,2.079q-34.321-.007-68.642,0c-3.9,0-7.8.029-11.707-.01-5.327-.048-8.633-3.311-8.652-8.6-.034-10.634-.01-21.264-.01-31.9V119.2c-6.53,1.944-13.589-1.684-15.037-8.089-.9-3.994-.481-7.766,2.541-10.836q6.611-6.727,13.348-13.339a1.557,1.557,0,0,0,.361-2.2A68.458,68.458,0,0,1,10.1,67.945,79.419,79.419,0,0,1,8.335,57.517C7.743,52.306,7.517,47.075,6.42,41.9,5.361,36.917,4.865,31.817,4.047,26.774,3.455,23.107,2.738,19.46,2.06,15.687Zm26.629,109.177c-.962-.183-1.742-.342-2.521-.481a28.194,28.194,0,0,1-18.574-11.727,28.493,28.493,0,0,1-5.178-17.02c-.058-24.3-.024-48.605-.024-72.91v-1.8H41.883v5.149H99.015V93.78H97.37c-11.5,0-22.991-.014-34.482.038a3.763,3.763,0,0,0-2.238.857A16.929,16.929,0,0,1,49.082,99c-3.416-.053-6.833-.039-10.249.019a2.661,2.661,0,0,0-1.679.63q-7.81,7.55-15.523,15.215a3.436,3.436,0,0,0-.924,2.194c-.058,11.881-.043,23.761-.043,35.642,0,2.555,1.039,3.585,3.619,3.585h80.008c0-5.952.014-11.7,0-17.443-.014-5.259,3.758-8.753,8.522-8.633,5.471.14,10.952.034,16.428.029.462,0,.924-.048,1.352-.072ZM133.6,72.949c-13.521.25-24.016,9.941-24,23.309.014,13.849,10.177,23.116,23.713,23.482,12.511.342,24.42-10.134,23.367-25.431-.741-10.7-10.408-21.485-23.078-21.36m23.044,6.612c.014-.289.034-.486.034-.679q-.007-33.282-.029-66.563c0-3.46-3.561-7.045-7-7.054q-16.349-.051-32.7-.014a5.527,5.527,0,0,0-1.386.25c-4,1.049-6.063,4.1-6.063,8.363q-.014,32.062,0,64.124V79.7c1.521-1.6,2.911-2.983,4.2-4.461a3.523,3.523,0,0,0,.967-1.978c.082-4.99.053-9.98.038-14.975-.01-3.907,2.223-6.241,6.1-6.2,8.406.082,16.808.024,25.214.029,3.33,0,5.442,2.064,5.457,5.37.019,5.154-.01,10.307.029,15.461a2.624,2.624,0,0,0,.476,1.6c1.472,1.684,3.041,3.287,4.672,5.019M49.621,83.324c0-8.228.034-16.36-.015-24.488A10.613,10.613,0,0,0,46.3,50.992c-2.165-2.064-4.48-3.97-6.8-5.866a2.315,2.315,0,0,0-1.776-.395Q25.9,47.879,14.109,51.18a1.577,1.577,0,0,0-.885,1.174,40.193,40.193,0,0,0,.313,6.1A72.328,72.328,0,0,0,17.7,74.638c.991,2.411,2.137,4.759,3.272,7.266,5.307-5.178,10.3-10.211,15.489-15.032,2.007-1.862,3.248-3.773,2.767-6.559-.01-.082.087-.183.149-.308h5.038c0,5.6.01,11.12,0,16.64-.01,3.878,1.213,6.154,5.207,6.679M39.189,71.515,37.716,72.92c-2.878,2.776-5.794,5.514-8.633,8.334-7.415,7.381-14.84,14.753-22.168,22.217a6.434,6.434,0,0,0,.553,9.523,6.721,6.721,0,0,0,8.965-.39c5.514-5.582,11.188-11.01,16.774-16.519,2.9-2.853,5.755-5.745,8.628-8.628.409-.409.794-.842,1.3-1.386-4.894-3.811-3.792-9.176-3.951-14.556M36.566,20.942H8.21c.154.828.289,1.549.414,2.276.645,3.758,1.3,7.516,1.934,11.279.563,3.339,1.213,6.674,1.588,10.038.164,1.506.837,1.564,1.915,1.275,3.017-.813,6.02-1.675,9.037-2.5q6.727-1.826,13.469-3.619Zm28.352,67.54H93.8V78.218H64.918Zm81.249-17.756V57.407H120.3V70.822a33.3,33.3,0,0,1,12.934-3.133,29.994,29.994,0,0,1,12.934,3.036m-52.344-8.2c-6.39,0-12.612,0-18.834.014a1.594,1.594,0,0,0-1.025.269c-3.325,3.291-6.616,6.612-10.014,10.018H93.823Zm-39,11.221a19.878,19.878,0,0,0,2.387-1.7c4.927-4.927,9.821-9.888,14.8-14.917l-9.248-9.441c-2.112,2.175-3.994,4.206-5.976,6.126a5.37,5.37,0,0,0-2.069,4.725c.342,4.85.106,9.744.106,15.21M93.833,31.369H67.959v8.074c1.583-.645,3.036-1.222,4.48-1.824,5.346-2.242,9.157-.847,10.88,3.97H93.833ZM52.32,31.316V50.761a14.331,14.331,0,0,0,1.54-1.121c1.934-1.9,3.821-3.845,5.76-5.741.9-.881,1.881-1.684,2.926-2.613v-9.97ZM109.5,152.49c5.9-5.741,11.563-11.255,17.5-17.034-5.216,0-9.975-.034-14.734.019a2.686,2.686,0,0,0-2.752,2.748c-.048,4.653-.014,9.306-.014,14.267M82.65,46.955c-1.367,3.436-2.719,6.823-4.085,10.259H93.77V46.955ZM42.966,93.77c2.613,0,4.889.087,7.151-.024a10.173,10.173,0,0,0,6.616-2.661c3.277-3.012,3.638-6.886,3.229-10.933-.192-1.891-2.416-2.56-3.96-1.4s-1.15,2.781-1.164,4.307a5.172,5.172,0,0,1-5.447,5.519,2.63,2.63,0,0,0-1.617.423c-1.578,1.453-3.06,3.012-4.807,4.764M74.874,52.378c1.078-2.695,2.237-5.433,3.238-8.224a2.157,2.157,0,0,0-.452-1.848,2.072,2.072,0,0,0-1.795-.322c-2.81.991-5.572,2.112-8.267,3.152,2.416,2.4,4.778,4.754,7.276,7.242M46.921,44.4V31.379H41.816c0,2.805-.01,5.51.01,8.214a1.256,1.256,0,0,0,.265.861c1.554,1.314,3.142,2.579,4.831,3.951" transform="translate(2.762 2.896)" fill="#010000"/>
      <path id="Trazado_714830" data-name="Trazado 714830" d="M109.925,103.937v5.3c-.428.024-.89.072-1.352.072-5.476.01-10.957.111-16.428-.024-4.764-.125-8.541,3.368-8.522,8.633.019,5.745,0,11.491,0,17.443H82.021q-39.2,0-78.4,0c-2.579,0-3.619-1.025-3.619-3.58C0,119.9-.013,108.018.04,96.137a3.467,3.467,0,0,1,.929-2.194q7.694-7.68,15.523-15.22a2.689,2.689,0,0,1,1.679-.63q5.125-.087,10.245-.019a16.909,16.909,0,0,0,11.573-4.326,3.758,3.758,0,0,1,2.238-.852c11.491-.058,22.987-.039,34.482-.039h1.646V5.149H21.222V0H83.628V1.8c0,24.3-.034,48.605.024,72.905A28.5,28.5,0,0,0,88.83,91.734,28.2,28.2,0,0,0,107.4,103.461c.78.14,1.559.294,2.521.476M5.247,130.061H78.325V114.62H5.247ZM78.383,104.2H5.3v5.024H78.383Zm0-10.418H5.309V98.8H78.383ZM36.813,88.39H78.325V83.371H36.813Z" transform="translate(23.423 23.819)" fill="#abffff"/>
      <path id="Trazado_714831" data-name="Trazado 714831" d="M24,0c12.67-.125,22.337,10.658,23.073,21.36,1.059,15.3-10.851,25.768-23.362,25.431C10.177,46.426.014,37.159,0,23.305-.014,9.942,10.48.251,24,0M21.086,10.635c-1.049.7-1.853,1.2-2.622,1.742-3.012,2.136-3.171,7.574-.866,10.091,1.819,1.987,4.34,2.69,6.53,4a5.028,5.028,0,0,1,2.021,2.079,2.018,2.018,0,0,1-1.564,2.68c-1.776.361-3.344-.568-3.508-2.165-.1-.953-.019-1.925-.019-2.945H15.976c-.621,5.717,1.424,8.435,5.168,9.975v5.5h5.11c0-1.516-.072-2.974.043-4.413a2.064,2.064,0,0,1,.9-1.362c2.353-1.429,4.042-3.262,4.254-6.154a7.057,7.057,0,0,0-4.085-7.3c-1.564-.813-3.128-1.622-4.716-2.387-1.155-.553-1.862-1.371-1.448-2.666.472-1.472,1.694-1.8,3.1-1.67a1.991,1.991,0,0,1,1.944,2.271c.014.953,0,1.91,0,2.81H31.46c0-.707-.034-1.3.01-1.891a7.4,7.4,0,0,0-4.591-7.839,1.755,1.755,0,0,1-.6-1.3c-.072-1.444-.029-2.9-.029-4.408H21.086Z" transform="translate(112.358 75.844)" fill="#fcd770"/>
      <path id="Trazado_714832" data-name="Trazado 714832" d="M47.152,74.319c-1.631-1.737-3.2-3.335-4.672-5.024A2.6,2.6,0,0,1,42,67.7c-.034-5.154,0-10.307-.029-15.461-.01-3.306-2.122-5.37-5.457-5.375-8.4,0-16.808.058-25.21-.024-3.874-.039-6.111,2.3-6.1,6.2.019,4.99.043,9.985-.038,14.975A3.523,3.523,0,0,1,4.2,70c-1.28,1.477-2.675,2.858-4.2,4.461V72.746Q0,40.684,0,8.622C0,4.359,2.064,1.3,6.068.259A5.567,5.567,0,0,1,7.454.009Q23.8-.005,40.151.023c3.44.01,7,3.595,7,7.054q.043,33.282.029,66.563c0,.192-.014.385-.029.679M41.974,23.467c0-4.393.024-8.787-.01-13.18A5.044,5.044,0,0,0,36.883,5.2q-12.934-.007-25.864,0c-3.729,0-5.741,2.233-5.779,5.649-.1,8.406-.067,16.813-.014,25.219.024,3.311,2.189,5.558,5.36,5.572q13.173.072,26.35,0a5.008,5.008,0,0,0,5.033-5.154c.024-4.336,0-8.676,0-13.016" transform="translate(112.257 8.137)" fill="#969faa"/>
      <path id="Trazado_714833" data-name="Trazado 714833" d="M36.4,38.638c-4-.52-5.216-2.8-5.207-6.679.01-5.519,0-11.039,0-16.64H26.158c-.063.13-.164.226-.149.308.481,2.786-.76,4.7-2.772,6.563C18.05,27.007,13.06,32.041,7.752,37.218c-1.136-2.507-2.281-4.855-3.272-7.266A71.711,71.711,0,0,1,.313,13.77,40.258,40.258,0,0,1,0,7.673,1.566,1.566,0,0,1,.885,6.494Q12.672,3.2,24.5.046a2.3,2.3,0,0,1,1.776.4c2.315,1.891,4.634,3.8,6.8,5.861a10.621,10.621,0,0,1,3.306,7.843c.048,8.127.015,16.259.015,24.488" transform="translate(15.985 47.577)" fill="#f0d0b4"/>
      <path id="Trazado_714834" data-name="Trazado 714834" d="M34.119,0c.159,5.385-.943,10.745,3.951,14.561-.51.539-.9.972-1.3,1.386-2.873,2.878-5.731,5.769-8.623,8.623-5.591,5.51-11.26,10.937-16.779,16.519a6.721,6.721,0,0,1-8.965.39,6.437,6.437,0,0,1-.553-9.523C9.174,24.493,16.6,17.121,24.014,9.744c2.839-2.825,5.755-5.563,8.637-8.334.414-.4.828-.8,1.468-1.41" transform="translate(7.832 74.407)" fill="#b20d0d"/>
      <path id="Trazado_714835" data-name="Trazado 714835" d="M28.357,0V18.752c-4.49,1.208-8.984,2.4-13.469,3.623-3.017.818-6.02,1.679-9.037,2.493-1.078.294-1.752.231-1.915-1.275C3.561,20.229,2.911,16.9,2.348,13.555,1.718,9.792,1.063,6.034.414,2.276.289,1.554.154.832,0,0Z" transform="translate(10.971 23.833)" fill="#b20d0d"/>
      <rect id="Rectángulo_352939" data-name="Rectángulo 352939" width="28.881" height="10.264" transform="translate(67.68 81.11)" fill="#ffeaa7"/>
      <path id="Trazado_714836" data-name="Trazado 714836" d="M25.869,13.319a30,30,0,0,0-12.934-3.036A33.212,33.212,0,0,0,0,13.416V0H25.869Z" transform="translate(123.06 60.303)" fill="#69d6f4"/>
      <path id="Trazado_714837" data-name="Trazado 714837" d="M29.868,0V10.3H0C3.392,6.891,6.689,3.571,10.014.285A1.6,1.6,0,0,1,11.034.01C17.256,0,23.477,0,29.868,0" transform="translate(66.717 65.422)" fill="#ffeaa7"/>
      <path id="Trazado_714838" data-name="Trazado 714838" d="M.125,26.061C.125,20.595.36,15.7.019,10.846-.14,8.633.726,7.439,2.088,6.121,4.07,4.206,5.952,2.17,8.069,0l9.244,9.436c-4.98,5.028-9.874,9.99-14.8,14.917A19.942,19.942,0,0,1,.125,26.061" transform="translate(57.464 50.583)" fill="#b20d0d"/>
      <path id="Trazado_714839" data-name="Trazado 714839" d="M25.874,0V10.22H15.36C13.637,5.4,9.826,4.008,4.48,6.251,3.036,6.852,1.588,7.43,0,8.074V0Z" transform="translate(70.721 34.266)" fill="#ffeaa7"/>
      <path id="Trazado_714840" data-name="Trazado 714840" d="M0,0H10.225V9.975C9.181,10.9,8.2,11.7,7.3,12.588c-1.939,1.891-3.825,3.835-5.76,5.736A14.268,14.268,0,0,1,0,19.45Z" transform="translate(55.082 34.208)" fill="#feeaa7"/>
      <path id="Trazado_714841" data-name="Trazado 714841" d="M.009,17.05c0-4.966-.029-9.619.019-14.272A2.683,2.683,0,0,1,2.78.03C7.534-.023,12.293.011,17.51.011,11.572,5.79,5.908,11.3.009,17.05" transform="translate(112.253 138.337)" fill="#06d1d1"/>
      <path id="Trazado_714842" data-name="Trazado 714842" d="M4.09,0H15.21V10.259H0C1.371,6.823,2.724,3.436,4.09,0" transform="translate(81.321 49.847)" fill="#ffeaa7"/>
      <path id="Trazado_714843" data-name="Trazado 714843" d="M0,15.589c1.747-1.752,3.224-3.311,4.807-4.764A2.621,2.621,0,0,1,6.424,10.4a5.163,5.163,0,0,0,5.442-5.519c.019-1.525-.361-3.147,1.169-4.307S16.8.08,17,1.976c.409,4.042.048,7.916-3.229,10.928a10.186,10.186,0,0,1-6.621,2.661c-2.262.111-4.533.024-7.146.024" transform="translate(45.728 81.073)" fill="#efcfb3"/>
      <path id="Trazado_714844" data-name="Trazado 714844" d="M7.271,10.469,0,3.227C2.69,2.188,5.452,1.067,8.267.08A2.058,2.058,0,0,1,10.057.4a2.154,2.154,0,0,1,.457,1.853C9.508,5.041,8.353,7.774,7.271,10.469" transform="translate(70.365 44.8)" fill="#a8b0bb"/>
      <path id="Trazado_714845" data-name="Trazado 714845" d="M5.108,13.026C3.419,11.654,1.831,10.389.277,9.075a1.256,1.256,0,0,1-.265-.861C-.007,5.51,0,2.805,0,0H5.108Z" transform="translate(44.575 34.275)" fill="#ffeaa7"/>
      <path id="Trazado_714846" data-name="Trazado 714846" d="M0,0H73.079V15.441H0ZM5.543,10.225H67.862V5.211H5.543Z" transform="translate(28.669 138.439)"/>
      <rect id="Rectángulo_352940" data-name="Rectángulo 352940" width="73.078" height="5.024" transform="translate(28.727 128.021)"/>
      <rect id="Rectángulo_352941" data-name="Rectángulo 352941" width="73.074" height="5.019" transform="translate(28.732 117.608)"/>
      <rect id="Rectángulo_352942" data-name="Rectángulo 352942" width="41.512" height="5.019" transform="translate(60.235 107.185)"/>
      <path id="Trazado_714847" data-name="Trazado 714847" d="M5.22,5.356V0h5.168c0,1.511-.043,2.964.029,4.408a1.755,1.755,0,0,0,.6,1.3A7.4,7.4,0,0,1,15.6,13.55c-.043.592-.01,1.184-.01,1.891H10.388c0-.9.01-1.857,0-2.81A1.991,1.991,0,0,0,8.439,10.36c-1.405-.13-2.627.2-3.1,1.67-.414,1.294.294,2.112,1.448,2.666,1.588.765,3.152,1.573,4.716,2.387a7.057,7.057,0,0,1,4.085,7.3c-.212,2.892-1.9,4.725-4.254,6.154a2.064,2.064,0,0,0-.9,1.362c-.116,1.439-.043,2.9-.043,4.413H5.278v-5.5C1.534,29.271-.511,26.552.11,20.836H5.191c0,1.02-.077,1.992.019,2.945.164,1.6,1.732,2.526,3.508,2.165a2.018,2.018,0,0,0,1.564-2.68,5.028,5.028,0,0,0-2.021-2.079c-2.189-1.309-4.711-2.011-6.53-4C-.573,14.672-.415,9.234,2.6,7.1c.77-.544,1.573-1.044,2.622-1.742" transform="translate(128.224 81.124)" fill="#010100"/>
      <path id="Trazado_714848" data-name="Trazado 714848" d="M36.8,18.276c0,4.34.019,8.676,0,13.016a5.008,5.008,0,0,1-5.033,5.154q-13.18.072-26.35,0a5.232,5.232,0,0,1-5.36-5.572c-.058-8.406-.082-16.818.01-25.224C.1,2.238,2.116,0,5.845,0Q18.772.014,31.7.01A5.041,5.041,0,0,1,36.79,5.091c.029,4.393.01,8.791.01,13.185M10.676,5.312H5.657V20.787h5.019ZM26.44,31.167H31.5V26.143H26.44Zm-10.4,0H21.1V26.133H16.036Zm-10.394.01H10.7V26.119H5.643Zm20.8-10.451h5.038V15.745H26.445Zm-10.394.034h5.057V15.7H16.051Zm10.4-10.418h5.062V5.293H26.454Zm-10.389-.014h5.028V5.269H16.065Z" transform="translate(117.432 13.329)"/>
      <rect id="Rectángulo_352943" data-name="Rectángulo 352943" width="62.319" height="5.014" transform="translate(34.213 143.655)" fill="#b20d0d"/>
      <rect id="Rectángulo_352944" data-name="Rectángulo 352944" width="5.019" height="15.475" transform="translate(123.089 18.646)" fill="#ff826e"/>
      <rect id="Rectángulo_352945" data-name="Rectángulo 352945" width="5.062" height="5.024" transform="translate(143.871 39.472)" fill="#ff826e"/>
      <rect id="Rectángulo_352946" data-name="Rectángulo 352946" width="5.062" height="5.038" transform="translate(133.468 39.462)" fill="#ff826e"/>
      <rect id="Rectángulo_352947" data-name="Rectángulo 352947" width="5.053" height="5.062" transform="translate(123.074 39.443)" fill="#ff826e"/>
      <rect id="Rectángulo_352948" data-name="Rectángulo 352948" width="5.038" height="4.985" transform="translate(143.876 29.074)" fill="#ff826e"/>
      <rect id="Rectángulo_352949" data-name="Rectángulo 352949" width="5.057" height="5.062" transform="translate(133.482 29.035)" fill="#ff826e"/>
      <rect id="Rectángulo_352950" data-name="Rectángulo 352950" width="5.062" height="5.053" transform="translate(143.886 18.617)" fill="#ff826e"/>
      <rect id="Rectángulo_352951" data-name="Rectángulo 352951" width="5.028" height="5.062" transform="translate(133.497 18.598)" fill="#ff826e"/>
    </g>
  </g>
</svg>
