<svg xmlns="http://www.w3.org/2000/svg" xmlns:xlink="http://www.w3.org/1999/xlink" width="111.086" height="111.087" viewBox="0 0 111.086 111.087">
  <defs>
    <clipPath id="clip-path">
      <rect id="Rectángulo_353423" data-name="Rectángulo 353423" width="102.553" height="96.046" fill="none"/>
    </clipPath>
  </defs>
  <g id="Grupo_992318" data-name="Grupo 992318" transform="translate(-383.313 -1304.289)">
    <path id="Trazado_705812" data-name="Trazado 705812" d="M111.086,80.432A55.543,55.543,0,1,1,55.543,24.889a55.543,55.543,0,0,1,55.543,55.543" transform="translate(383.313 1279.4)" fill="#ffc403"/>
    <g id="Grupo_1017840" data-name="Grupo 1017840" transform="translate(389.481 1317.768)">
      <g id="Grupo_1017839" data-name="Grupo 1017839" clip-path="url(#clip-path)">
        <path id="Trazado_715765" data-name="Trazado 715765" d="M82.032,49.713H85.45V48.453A1.913,1.913,0,0,1,87.588,46.3q6.435-.008,12.87,0a1.893,1.893,0,0,1,2.084,1.681,1.921,1.921,0,0,1,0,.421q0,15.056,0,30.112a1.874,1.874,0,0,1-1.651,2.073,1.843,1.843,0,0,1-.4,0q-6.515.013-13.03,0a1.873,1.873,0,0,1-2.008-1.727,1.79,1.79,0,0,1,0-.285c-.011-1.017,0-2.033,0-3.095-.175-.012-.327-.031-.48-.032-1.62,0-3.24.01-4.859-.011a.667.667,0,0,0-.728.459c-.216.507-.5.983-.726,1.489a1.377,1.377,0,0,0-.112.665,5.053,5.053,0,0,1-4.9,5.931,13.056,13.056,0,0,1-2.512-.366.612.612,0,0,0-.48.112,5.268,5.268,0,0,1-5.36,1.864c-.482-.081-.678-.022-.874.476A5.092,5.092,0,0,1,59.58,89.13c-.549-.022-1.193-.318-1.615-.117-.4.192-.53.9-.834,1.34a5.413,5.413,0,0,1-6.378,1.864.889.889,0,0,0-.955.164c-1.261.96-2.517,1.931-3.839,2.8-2.184,1.44-6.208,1.276-7.775-2.048a16.328,16.328,0,0,1-.711-2.358,16.888,16.888,0,0,1-2.316-.017,4.889,4.889,0,0,1-3.921-3.094c-.167-.372-.3-.42-.662-.358a5.409,5.409,0,0,1-5.2-1.462A5.859,5.859,0,0,1,23.9,82.325a5.346,5.346,0,0,1-4.136-2.194A4.966,4.966,0,0,1,19.15,75.5H17.093c0,.432,0,.888,0,1.345a1.857,1.857,0,0,1-1.671,2.026,1.883,1.883,0,0,1-.314,0q-6.569.022-13.137,0a1.853,1.853,0,0,1-1.964-2Q0,61.733.007,46.6a1.848,1.848,0,0,1,2.006-2.009q6.568-.019,13.137,0a1.849,1.849,0,0,1,1.942,1.751,1.921,1.921,0,0,1,0,.217c.011.461,0,.923,0,1.42H20.51V2.435c0-.2-.01-.394.006-.59a1.844,1.844,0,0,1,1.8-1.833c.2-.017.394-.011.59-.011h56.82c1.637,0,2.307.67,2.307,2.306Zm-58.076-1.7c1.071,0,2.117-.012,3.162,0a6.726,6.726,0,0,0,2.688-.57,9.576,9.576,0,0,1,2.764-.9c2.372-.178,4.758-.181,7.139-.205a12.441,12.441,0,0,1,2.118.233,15.018,15.018,0,0,1,7.5,3.6c.273.237.476.35.821.077q2-1.563,4.042-3.07a11.611,11.611,0,0,1,6.688-2.505c2.81-.065,5.624-.131,8.433-.051a12.516,12.516,0,0,1,7.919,2.894c.444.373.868.77,1.348,1.2V3.472H23.956ZM68.233,81.358c-.18-.166-.35-.325-.518-.478q-5.567-5-11.133-10.007-1.528-1.378-3-2.815a1.552,1.552,0,0,1-.524-1.545A1.711,1.711,0,0,1,56,65.755Q61.757,70.868,67.492,76c1.441,1.3,2.822,2.664,4.217,4.012a2.28,2.28,0,0,0,2.281.515,1.544,1.544,0,0,0,1.175-1.258,2.24,2.24,0,0,0-.939-2.279Q65.2,68.923,56.207,60.811a.627.627,0,0,0-.838-.1c-1.573.794-3.127,1.631-4.751,2.3a5.98,5.98,0,0,1-5.173-.212,5.018,5.018,0,0,1-.748-8.461c.71-.588,1.461-1.127,2.232-1.718a2.5,2.5,0,0,0-.291-.317A11.13,11.13,0,0,0,40.7,49.857c-1.965-.147-3.946-.083-5.919-.136a7.235,7.235,0,0,0-3.412.7A11.128,11.128,0,0,1,26.4,51.445c-2.9-.008-5.8,0-8.7,0h-.569V72.022H21.81a.81.81,0,0,0,.265-.007,2.114,2.114,0,0,0,.568-.253c.8-.6,1.588-1.209,2.362-1.837a6.039,6.039,0,0,1,3.161-1.3,5.17,5.17,0,0,1,5.273,2.587,19.674,19.674,0,0,1,.905,2.512c.127.025.368.079.611.117a4.369,4.369,0,0,1,3.527,2.473c.45,1.024.99,1.016,1.9.919a4.99,4.99,0,0,1,5.583,3.953c.083.416.161.832.252,1.3a7.212,7.212,0,0,1,3.729.218,3.767,3.767,0,0,0-.57-.562c-1.3-1.089-2.595-2.174-3.885-3.27a4.41,4.41,0,0,1-.671-.684,1.631,1.631,0,0,1,.256-2.293l.006-.005a1.491,1.491,0,0,1,2.048-.039c1.157.891,2.3,1.8,3.408,2.755,2.315,2,4.6,4.047,6.9,6.07a7.977,7.977,0,0,0,.956.768,2.356,2.356,0,0,0,2.248.112,1.758,1.758,0,0,0,.381-2.749c-2.688-2.258-5.3-4.6-7.933-6.926-1.028-.908-2.039-1.837-3.019-2.8a1.45,1.45,0,0,1-.364-1.674,1.635,1.635,0,0,1,1.415-1.069,1.971,1.971,0,0,1,1.492.588c1.221,1.041,2.458,2.061,3.656,3.126,2.662,2.367,5.3,4.757,7.957,7.133a8.28,8.28,0,0,0,1.035.84,2.147,2.147,0,0,0,2.963-.662l.008-.013m17.181-9.341V53.156c-1.8,0-3.563-.085-5.316.026a3.83,3.83,0,0,1-3.565-1.611,9.428,9.428,0,0,0-7.67-3.554c-2.278-.02-4.556.013-6.833-.009a9.717,9.717,0,0,0-6.113,2.016q-4.329,3.267-8.662,6.525a4.512,4.512,0,0,0-.721.633,1.714,1.714,0,0,0,.947,2.808,4.043,4.043,0,0,0,2.636-.394c1.7-.922,3.456-1.752,5.169-2.659a1.929,1.929,0,0,1,2.478.331c.128.124.266.237.4.358L75.9,73.947c.161.148.337.278.524.433a8.132,8.132,0,0,0,.359-.731A2.384,2.384,0,0,1,79.4,72c1.99.058,3.982.015,6.013.015M3.459,75.4H13.647V48.037H3.459ZM99.084,49.768H88.894V77.133h10.19ZM28.779,71.907a4.177,4.177,0,0,0-1.24.39c-1.617,1.162-3.228,2.337-4.769,3.6a1.681,1.681,0,0,0,.416,2.835,2.37,2.37,0,0,0,2.348-.163q2.247-1.626,4.432-3.338a1.785,1.785,0,0,0,.711-2.121c-.281-.75-.87-1.1-1.9-1.2M47.491,85.714a2.1,2.1,0,0,0-1.555.536c-1.318,1-2.643,1.987-3.959,2.988a3.439,3.439,0,0,0-.62.583,1.7,1.7,0,0,0,.856,2.711,2.563,2.563,0,0,0,2.33-.377c1.374-1.07,2.771-2.11,4.15-3.174a1.851,1.851,0,0,0,.764-2.2c-.233-.683-.87-1.052-1.967-1.067M29.383,84.058a3.157,3.157,0,0,0,2.376-1.253c.692-.658,1.405-1.305,2.136-1.923.543-.459,1.135-.859,1.693-1.3a.811.811,0,0,0,.291-.415,1.6,1.6,0,0,0-1.036-1.888,2.458,2.458,0,0,0-2.257.193c-1.568,1.142-3.12,2.309-4.636,3.519a1.813,1.813,0,0,0-.586,1.083c-.17,1.234.579,1.949,2.015,1.987m11.3-3.491a2.4,2.4,0,0,0-2.128,1.025,22.991,22.991,0,0,1-3.773,3.2,1.394,1.394,0,0,0,.066,2.342,2.559,2.559,0,0,0,2.58.036q2.288-1.659,4.523-3.391a1.748,1.748,0,0,0,.692-2.078c-.27-.761-.843-1.113-1.961-1.139m11.948,8.545a1.661,1.661,0,0,0,2.022-1.195,1.635,1.635,0,0,0,.047-.281,1.515,1.515,0,0,0-.606-1.441c-.632-.489-1.223-1.027-1.834-1.544a5.4,5.4,0,0,1,.371,4.46" transform="translate(0 0)" fill="#121211"/>
        <path id="Trazado_715766" data-name="Trazado 715766" d="M41.12,5.962V50.5h0c1.071,0,2.117-.012,3.162,0a6.749,6.749,0,0,0,2.688-.571,9.588,9.588,0,0,1,2.763-.9c2.372-.178,4.758-.182,7.139-.206a12.323,12.323,0,0,1,2.118.234,15.019,15.019,0,0,1,7.5,3.6c.273.237.476.347.821.077q2-1.564,4.042-3.07a11.6,11.6,0,0,1,6.688-2.505c2.81-.065,5.624-.131,8.433-.051A12.516,12.516,0,0,1,94.395,50c.444.373.868.77,1.348,1.2V5.962Z" transform="translate(-17.163 -2.489)" fill="#ffe8ce"/>
        <path id="Trazado_715767" data-name="Trazado 715767" d="M80.505,116.978a2.148,2.148,0,0,1-2.96.682l-.012-.008a8.279,8.279,0,0,1-1.035-.84c-2.653-2.376-5.294-4.767-7.957-7.133-1.2-1.065-2.436-2.086-3.656-3.126a1.969,1.969,0,0,0-1.5-.588,1.635,1.635,0,0,0-1.415,1.069,1.45,1.45,0,0,0,.364,1.674c.98.958,1.991,1.887,3.019,2.8,2.63,2.326,5.243,4.668,7.933,6.926a1.758,1.758,0,0,1-.381,2.749,2.356,2.356,0,0,1-2.248-.112,7.979,7.979,0,0,1-.956-.768c-2.3-2.023-4.582-4.065-6.9-6.07-1.1-.956-2.251-1.864-3.408-2.755a1.491,1.491,0,0,0-2.048.039,1.631,1.631,0,0,0-.267,2.291l.005.006a4.409,4.409,0,0,0,.671.684c1.29,1.1,2.59,2.18,3.885,3.27a3.768,3.768,0,0,1,.57.562,7.212,7.212,0,0,0-3.729-.218c-.091-.472-.169-.888-.252-1.3a4.99,4.99,0,0,0-5.583-3.953c-.909.1-1.45.106-1.9-.919a4.369,4.369,0,0,0-3.527-2.473c-.243-.04-.484-.093-.611-.117a19.675,19.675,0,0,0-.905-2.512,5.17,5.17,0,0,0-5.273-2.587,6.039,6.039,0,0,0-3.161,1.3c-.775.628-1.566,1.236-2.362,1.837a2.141,2.141,0,0,1-.568.253.81.81,0,0,1-.265.007H29.406V87.066h.568c2.9,0,5.8-.006,8.7,0a11.127,11.127,0,0,0,4.97-1.021,7.235,7.235,0,0,1,3.412-.7c1.973.054,3.954-.01,5.919.136a11.13,11.13,0,0,1,5.938,2.447,2.542,2.542,0,0,1,.291.317c-.771.591-1.522,1.13-2.232,1.718a5.018,5.018,0,0,0,.748,8.46,5.978,5.978,0,0,0,5.171.211c1.623-.669,3.18-1.5,4.751-2.3a.627.627,0,0,1,.838.1q9,8.105,18.017,16.185a2.241,2.241,0,0,1,.939,2.279,1.542,1.542,0,0,1-1.175,1.258,2.28,2.28,0,0,1-2.281-.515c-1.4-1.349-2.776-2.714-4.217-4.012q-5.721-5.152-11.491-10.249a1.71,1.71,0,0,0-2.945.757,1.552,1.552,0,0,0,.524,1.545q1.478,1.432,3,2.815,5.559,5.01,11.133,10.007c.171.154.338.312.518.478" transform="translate(-12.274 -35.621)" fill="#ffe1c3"/>
        <path id="Trazado_715768" data-name="Trazado 715768" d="M118.445,106.409c-2.03,0-4.023.043-6.013-.015a2.386,2.386,0,0,0-2.611,1.649c-.086.233-.218.447-.358.731-.189-.154-.365-.285-.524-.433q-8.873-8.16-17.744-16.322c-.131-.121-.269-.233-.4-.358a1.929,1.929,0,0,0-2.478-.331c-1.712.907-3.465,1.737-5.169,2.659a4.043,4.043,0,0,1-2.636.394,1.715,1.715,0,0,1-.947-2.808,4.513,4.513,0,0,1,.721-.633q4.328-3.267,8.662-6.525A9.72,9.72,0,0,1,95.061,82.4c2.278.022,4.556-.012,6.834.009a9.431,9.431,0,0,1,7.67,3.554,3.829,3.829,0,0,0,3.566,1.611c1.753-.111,3.518-.026,5.316-.026Z" transform="translate(-33.034 -34.394)" fill="#ffe1c3"/>
        <rect id="Rectángulo_353421" data-name="Rectángulo 353421" width="10.188" height="27.365" transform="translate(3.459 48.037)" fill="#b20d0d"/>
        <rect id="Rectángulo_353422" data-name="Rectángulo 353422" width="10.19" height="27.365" transform="translate(88.894 49.769)" fill="#b20d0d"/>
        <path id="Trazado_715769" data-name="Trazado 715769" d="M44.66,123.423a1.934,1.934,0,0,1,1.9,1.2,1.785,1.785,0,0,1-.71,2.122q-2.186,1.708-4.432,3.337a2.369,2.369,0,0,1-2.348.163,1.681,1.681,0,0,1-.416-2.835c1.54-1.26,3.152-2.434,4.769-3.6a4.182,4.182,0,0,1,1.24-.39" transform="translate(-15.881 -51.517)" fill="#ffe1c3"/>
        <path id="Trazado_715770" data-name="Trazado 715770" d="M76.848,147.117c1.1.015,1.735.384,1.967,1.067a1.85,1.85,0,0,1-.764,2.2c-1.38,1.064-2.777,2.1-4.151,3.174a2.563,2.563,0,0,1-2.33.377,1.7,1.7,0,0,1-.856-2.711,3.46,3.46,0,0,1,.62-.583c1.316-1,2.64-1.99,3.959-2.988a2.1,2.1,0,0,1,1.555-.536" transform="translate(-29.357 -61.405)" fill="#ffe1c3"/>
        <path id="Trazado_715771" data-name="Trazado 715771" d="M48.975,139.286c-1.437-.037-2.185-.752-2.016-1.987a1.819,1.819,0,0,1,.586-1.083c1.515-1.21,3.069-2.376,4.636-3.519a2.457,2.457,0,0,1,2.258-.193,1.6,1.6,0,0,1,1.035,1.888.817.817,0,0,1-.291.415c-.558.443-1.15.843-1.693,1.3-.731.619-1.443,1.264-2.137,1.923a3.157,3.157,0,0,1-2.376,1.253" transform="translate(-19.591 -55.229)" fill="#ffe1c3"/>
        <path id="Trazado_715772" data-name="Trazado 715772" d="M65.17,138.282c1.119.026,1.69.379,1.962,1.14a1.748,1.748,0,0,1-.692,2.078q-2.231,1.736-4.524,3.391a2.56,2.56,0,0,1-2.58-.036,1.394,1.394,0,0,1-.066-2.343,22.991,22.991,0,0,0,3.773-3.2,2.4,2.4,0,0,1,2.128-1.025" transform="translate(-24.486 -57.717)" fill="#ffe1c3"/>
        <path id="Trazado_715773" data-name="Trazado 715773" d="M90.075,149.757a5.393,5.393,0,0,0-.371-4.46c.609.517,1.2,1.055,1.834,1.544a1.515,1.515,0,0,1,.606,1.441,1.661,1.661,0,0,1-1.789,1.523,1.635,1.635,0,0,1-.281-.047" transform="translate(-37.443 -60.647)" fill="#ffe1c3"/>
        <path id="Trazado_715774" data-name="Trazado 715774" d="M89.116,19.57H66.629V48.811c0,3.464,5.034,5.289,11.244,5.289s11.243-1.823,11.243-5.289Z" transform="translate(-27.811 -8.169)" fill="#f8a92f" fill-rule="evenodd"/>
        <path id="Trazado_715775" data-name="Trazado 715775" d="M77.872,9.534c6.209,0,11.243,2.808,11.243,6.271s-5.034,6.271-11.243,6.271S66.629,19.267,66.629,15.8s5.034-6.271,11.243-6.271" transform="translate(-27.811 -3.979)" fill="#ffc141"/>
        <path id="Trazado_715776" data-name="Trazado 715776" d="M79.848,12.995a13.126,13.126,0,0,0-6.61,1.621c-.608.372-1.875,1.311-1.875,2.21s1.268,1.837,1.879,2.209a14.286,14.286,0,0,0,13.221,0c.611-.372,1.879-1.311,1.879-2.209s-1.268-1.837-1.879-2.209a13.118,13.118,0,0,0-6.614-1.623" transform="translate(-29.787 -5.423)" fill="#f8a92f" fill-rule="evenodd"/>
        <path id="Trazado_715777" data-name="Trazado 715777" d="M82.577,19.466a.688.688,0,0,1,.64-1.217,2.477,2.477,0,0,0,.475.2,2.076,2.076,0,0,0,.572.065,2.119,2.119,0,0,0,.754-.124,2.107,2.107,0,0,0-.754-.125,3.36,3.36,0,0,1-1.462-.311,1.256,1.256,0,0,1,0-2.385,2.95,2.95,0,0,1,.767-.246.687.687,0,0,1,1.353,0c.121.022.244.048.36.078a2.339,2.339,0,0,1,.876.389.688.688,0,0,1-.888,1.05,1.345,1.345,0,0,0-.332-.112,3,3,0,0,0-.673-.1,2.088,2.088,0,0,0-.756.127,2.113,2.113,0,0,0,.756.124,3.358,3.358,0,0,1,1.462.311,1.256,1.256,0,0,1,0,2.385,2.954,2.954,0,0,1-.773.249.687.687,0,0,1-1.336.01,2.863,2.863,0,0,1-.3-.068,3.683,3.683,0,0,1-.742-.306m2.613-1.072c.012.016.019.024.019,0s-.007-.016-.02,0Zm-1.867-1.627c0,.025.006.016.019,0-.016-.016-.023-.026-.023,0Z" transform="translate(-34.202 -6.163)" fill="#d69128" fill-rule="evenodd"/>
        <path id="Trazado_715778" data-name="Trazado 715778" d="M89.116,48.507c0,3.463-5.034,5.288-11.243,5.288S66.629,51.97,66.629,48.507v4.638c0,3.464,5.034,5.288,11.244,5.288s11.243-1.822,11.243-5.288Zm0-18.556c0,3.463-5.034,5.288-11.243,5.288s-11.244-1.825-11.244-5.288V34.59c0,3.464,5.034,5.289,11.244,5.289s11.243-1.823,11.243-5.289Zm0,9.278v4.639c0,3.463-5.034,5.288-11.243,5.288s-11.244-1.825-11.244-5.288V39.229c0,3.463,5.034,5.288,11.244,5.288s11.243-1.825,11.243-5.288" transform="translate(-27.811 -12.502)" fill="#d69128" fill-rule="evenodd"/>
      </g>
    </g>
  </g>
</svg>
