<svg id="Grupo_83396" data-name="Grupo 83396" xmlns="http://www.w3.org/2000/svg" xmlns:xlink="http://www.w3.org/1999/xlink" width="81.782" height="61.84" viewBox="0 0 81.782 61.84">
  <defs>
    <clipPath id="clip-path">
      <rect id="Rectángulo_32715" data-name="Rectángulo 32715" width="81.782" height="61.84" fill="none"/>
    </clipPath>
  </defs>
  <g id="Grupo_83393" data-name="Grupo 83393" clip-path="url(#clip-path)">
    <path id="Trazado_115158" data-name="Trazado 115158" d="M20.692,12H59.668A8.71,8.71,0,0,1,68.36,20.69v7.525L84.672,18.8a3.477,3.477,0,0,1,5.216,3.011V60.132a3.477,3.477,0,0,1-5.216,3.011L68.36,53.726v7.525a8.71,8.71,0,0,1-8.693,8.693H20.692A8.71,8.71,0,0,1,12,61.251V20.69A8.71,8.71,0,0,1,20.692,12" transform="translate(-10.052 -10.05)" fill="#06d1d1" fill-rule="evenodd"/>
    <path id="Trazado_115159" data-name="Trazado 115159" d="M67.745,67.638a8.715,8.715,0,0,1-8.077,5.484H20.692A8.71,8.71,0,0,1,12,64.429V23.868a8.715,8.715,0,0,1,5.484-8.077A8.633,8.633,0,0,0,16.867,19V59.561a8.71,8.71,0,0,0,8.693,8.693H64.536a8.633,8.633,0,0,0,3.209-.616" transform="translate(-10.052 -13.229)" fill="#ffe8ce" fill-rule="evenodd"/>
    <path id="Trazado_115160" data-name="Trazado 115160" d="M359.336,60.852l16.311-9.417a3.477,3.477,0,0,1,5.216,3.011V92.769a3.477,3.477,0,0,1-5.216,3.011l-16.311-9.417Z" transform="translate(-301.028 -42.687)" fill="#8c9ba6" fill-rule="evenodd"/>
    <path id="Trazado_115161" data-name="Trazado 115161" d="M363.524,127.387V97.039l-4.188,2.418v25.511Z" transform="translate(-301.028 -81.293)" fill="#7c8b96" fill-rule="evenodd"/>
    <path id="Trazado_115162" data-name="Trazado 115162" d="M149.887,117.212l-21.932,12.663a1.846,1.846,0,0,1-2.769-1.6V102.951a1.846,1.846,0,0,1,2.768-1.6l21.932,12.663a1.846,1.846,0,0,1,0,3.2" transform="translate(-104.872 -84.694)" fill="#ffc403" fill-rule="evenodd"/>
    <path id="Trazado_115163" data-name="Trazado 115163" d="M149.887,176.909l-21.932,12.663a1.846,1.846,0,0,1-2.769-1.6v-1.922l21.455-12.387a1.8,1.8,0,0,0,.9-1.3l2.344,1.353a1.846,1.846,0,0,1,0,3.2" transform="translate(-104.872 -144.391)" fill="#e5ecf1" fill-rule="evenodd"/>
    <path id="Trazado_115164" data-name="Trazado 115164" d="M22.261,43.407V18.434L43.888,30.92ZM45.988,27.635,24.056,14.973a3.793,3.793,0,0,0-5.689,3.285V43.584a3.785,3.785,0,0,0,5.689,3.284L45.988,34.205a3.793,3.793,0,0,0,0-6.57Zm31.9,22.447a1.529,1.529,0,0,1-2.295,1.324L60.256,42.552V19.289l15.337-8.855a1.529,1.529,0,0,1,2.295,1.324ZM56.362,51.2V10.64a6.754,6.754,0,0,0-6.746-6.746H10.64A6.753,6.753,0,0,0,3.894,10.64V51.2a6.753,6.753,0,0,0,6.746,6.745H49.616A6.753,6.753,0,0,0,56.362,51.2ZM79.071,7.062a5.367,5.367,0,0,0-5.424,0l-13.39,7.731V10.64A10.653,10.653,0,0,0,49.616,0H10.64A10.653,10.653,0,0,0,0,10.64V51.2A10.652,10.652,0,0,0,10.64,61.84H49.616A10.652,10.652,0,0,0,60.256,51.2V47.048l13.39,7.732a5.424,5.424,0,0,0,8.136-4.7V11.759a5.369,5.369,0,0,0-2.711-4.7" transform="translate(0)" fill-rule="evenodd"/>
  </g>
</svg>
